<?xml version="1.0" encoding="UTF-8"?>
<svg xmlns="http://www.w3.org/2000/svg" xmlns:xlink="http://www.w3.org/1999/xlink" width="40pt" height="25pt" viewBox="0 0 40 25" version="1.1">
<g id="surface1">
<path style=" stroke:none;fill-rule:evenodd;fill:rgb(14.509804%,34.117647%,83.921569%);fill-opacity:1;" d="M 2.179688 0 L 37.820312 0 C 38.996094 0 39.945312 0.949219 39.945312 2.125 L 39.945312 22.875 C 39.945312 24.050781 38.996094 25 37.820312 25 L 2.179688 25 C 1.003906 25 0.0546875 24.050781 0.0546875 22.875 L 0.0546875 2.125 C 0.0546875 0.949219 1.003906 0 2.179688 0 Z M 2.179688 0 "/>
<path style=" stroke:none;fill-rule:evenodd;fill:rgb(100%,100%,100%);fill-opacity:1;" d="M 0.0546875 11.738281 L 1.96875 11.738281 L 2.402344 10.703125 L 3.367188 10.703125 L 3.800781 11.738281 L 7.570312 11.738281 L 7.570312 10.949219 L 7.90625 11.742188 L 9.863281 11.742188 L 10.199219 10.9375 L 10.199219 11.738281 L 19.570312 11.738281 L 19.566406 10.039062 L 19.746094 10.039062 C 19.875 10.042969 19.910156 10.054688 19.910156 10.265625 L 19.910156 11.738281 L 24.757812 11.738281 L 24.757812 11.34375 C 25.148438 11.550781 25.757812 11.738281 26.554688 11.738281 L 28.59375 11.738281 L 29.03125 10.703125 L 30 10.703125 L 30.425781 11.738281 L 34.355469 11.738281 L 34.355469 10.757812 L 34.949219 11.738281 L 38.097656 11.738281 L 38.097656 5.238281 L 34.980469 5.238281 L 34.980469 6.003906 L 34.542969 5.238281 L 31.347656 5.238281 L 31.347656 6.003906 L 30.945312 5.238281 L 26.628906 5.238281 C 25.90625 5.238281 25.269531 5.339844 24.757812 5.617188 L 24.757812 5.238281 L 21.777344 5.238281 L 21.777344 5.617188 C 21.449219 5.328125 21.003906 5.238281 20.511719 5.238281 L 9.621094 5.238281 L 8.890625 6.917969 L 8.140625 5.238281 L 4.710938 5.238281 L 4.710938 6.003906 L 4.335938 5.238281 L 1.410156 5.238281 L 0.0546875 8.328125 Z M 12.148438 10.800781 L 11 10.800781 L 10.996094 7.152344 L 9.367188 10.800781 L 8.382812 10.800781 L 6.753906 7.148438 L 6.753906 10.800781 L 4.472656 10.800781 L 4.042969 9.761719 L 1.707031 9.761719 L 1.269531 10.800781 L 0.0546875 10.800781 L 2.0625 6.140625 L 3.726562 6.140625 L 5.636719 10.554688 L 5.636719 6.140625 L 7.464844 6.140625 L 8.933594 9.304688 L 10.28125 6.140625 L 12.148438 6.140625 Z M 3.660156 8.792969 L 2.890625 6.9375 L 2.128906 8.792969 Z M 16.722656 10.800781 L 12.976562 10.800781 L 12.976562 6.140625 L 16.722656 6.140625 L 16.722656 7.109375 L 14.097656 7.109375 L 14.097656 7.953125 L 16.660156 7.953125 L 16.660156 8.90625 L 14.097656 8.90625 L 14.097656 9.839844 L 16.722656 9.839844 Z M 22.003906 7.394531 C 22.003906 8.140625 21.503906 8.523438 21.214844 8.636719 C 21.460938 8.730469 21.667969 8.894531 21.769531 9.03125 C 21.925781 9.261719 21.953125 9.46875 21.953125 9.886719 L 21.953125 10.800781 L 20.824219 10.800781 L 20.820312 10.214844 C 20.820312 9.933594 20.847656 9.53125 20.640625 9.304688 C 20.476562 9.140625 20.226562 9.105469 19.824219 9.105469 L 18.621094 9.105469 L 18.621094 10.800781 L 17.5 10.800781 L 17.5 6.140625 L 20.078125 6.140625 C 20.652344 6.140625 21.074219 6.15625 21.4375 6.363281 C 21.792969 6.570312 22.003906 6.875 22.003906 7.394531 Z M 20.585938 8.089844 C 20.433594 8.179688 20.25 8.183594 20.03125 8.183594 L 18.667969 8.183594 L 18.667969 7.148438 L 20.050781 7.148438 C 20.246094 7.148438 20.449219 7.15625 20.582031 7.234375 C 20.726562 7.300781 20.816406 7.445312 20.816406 7.644531 C 20.816406 7.847656 20.730469 8.011719 20.585938 8.089844 Z M 23.800781 10.800781 L 22.660156 10.800781 L 22.660156 6.140625 L 23.800781 6.140625 Z M 37.085938 10.800781 L 35.496094 10.800781 L 33.371094 7.304688 L 33.371094 10.800781 L 31.085938 10.800781 L 30.652344 9.761719 L 28.320312 9.761719 L 27.898438 10.800781 L 26.585938 10.800781 C 26.039062 10.800781 25.351562 10.683594 24.960938 10.285156 C 24.566406 9.890625 24.359375 9.355469 24.359375 8.507812 C 24.359375 7.816406 24.484375 7.183594 24.964844 6.683594 C 25.328125 6.3125 25.894531 6.140625 26.667969 6.140625 L 27.753906 6.140625 L 27.753906 7.140625 L 26.691406 7.140625 C 26.28125 7.140625 26.050781 7.199219 25.828125 7.414062 C 25.636719 7.613281 25.503906 7.984375 25.503906 8.472656 C 25.503906 8.972656 25.605469 9.332031 25.8125 9.566406 C 25.988281 9.75 26.300781 9.804688 26.59375 9.804688 L 27.097656 9.804688 L 28.679688 6.140625 L 30.359375 6.140625 L 32.257812 10.550781 L 32.257812 6.140625 L 33.964844 6.140625 L 35.9375 9.386719 L 35.9375 6.140625 L 37.085938 6.140625 Z M 30.269531 8.792969 L 29.492188 6.9375 L 28.722656 8.792969 Z M 30.269531 8.792969 "/>
<path style=" stroke:none;fill-rule:evenodd;fill:rgb(100%,100%,100%);fill-opacity:1;" d="M 39.945312 18.246094 C 39.671875 18.640625 39.140625 18.84375 38.421875 18.84375 L 36.257812 18.84375 L 36.257812 17.84375 L 38.414062 17.84375 C 38.628906 17.84375 38.777344 17.816406 38.867188 17.726562 C 38.945312 17.65625 39 17.550781 39 17.421875 C 39 17.289062 38.945312 17.179688 38.863281 17.113281 C 38.78125 17.042969 38.664062 17.011719 38.46875 17.011719 C 37.414062 16.976562 36.101562 17.042969 36.101562 15.566406 C 36.101562 14.890625 36.535156 14.179688 37.710938 14.179688 L 39.945312 14.179688 L 39.945312 13.253906 L 37.867188 13.253906 C 37.242188 13.253906 36.789062 13.402344 36.464844 13.632812 L 36.464844 13.253906 L 33.394531 13.253906 C 32.90625 13.253906 32.328125 13.371094 32.054688 13.632812 L 32.054688 13.253906 L 26.574219 13.253906 L 26.574219 13.632812 C 26.136719 13.320312 25.402344 13.253906 25.0625 13.253906 L 21.445312 13.253906 L 21.445312 13.632812 C 21.101562 13.300781 20.332031 13.253906 19.863281 13.253906 L 15.816406 13.253906 L 14.890625 14.246094 L 14.023438 13.253906 L 7.976562 13.253906 L 7.976562 19.757812 L 13.910156 19.757812 L 14.863281 18.746094 L 15.761719 19.757812 L 19.417969 19.761719 L 19.417969 18.230469 L 19.777344 18.230469 C 20.265625 18.238281 20.835938 18.21875 21.339844 18.003906 L 21.339844 19.757812 L 24.355469 19.757812 L 24.355469 18.0625 L 24.503906 18.0625 C 24.6875 18.0625 24.707031 18.070312 24.707031 18.253906 L 24.707031 19.757812 L 33.867188 19.757812 C 34.449219 19.757812 35.058594 19.609375 35.394531 19.34375 L 35.394531 19.757812 L 38.300781 19.757812 C 38.90625 19.757812 39.496094 19.675781 39.945312 19.457031 Z M 21.78125 15.742188 C 21.78125 17.039062 20.808594 17.308594 19.828125 17.308594 L 18.425781 17.308594 L 18.425781 18.871094 L 16.246094 18.871094 L 14.867188 17.328125 L 13.429688 18.871094 L 8.988281 18.871094 L 8.988281 14.207031 L 13.5 14.207031 L 14.878906 15.734375 L 16.304688 14.207031 L 19.890625 14.207031 C 20.78125 14.207031 21.78125 14.453125 21.78125 15.742188 Z M 12.863281 17.890625 L 10.105469 17.890625 L 10.105469 16.960938 L 12.566406 16.960938 L 12.566406 16.011719 L 10.105469 16.011719 L 10.105469 15.164062 L 12.917969 15.164062 L 14.144531 16.523438 Z M 17.304688 18.425781 L 15.585938 16.523438 L 17.304688 14.683594 Z M 19.851562 16.351562 L 18.402344 16.351562 L 18.402344 15.164062 L 19.867188 15.164062 C 20.269531 15.164062 20.550781 15.328125 20.550781 15.734375 C 20.550781 16.136719 20.285156 16.351562 19.851562 16.351562 Z M 27.445312 14.207031 L 31.1875 14.207031 L 31.1875 15.171875 L 28.5625 15.171875 L 28.5625 16.019531 L 31.125 16.019531 L 31.125 16.972656 L 28.5625 16.972656 L 28.5625 17.898438 L 31.1875 17.902344 L 31.1875 18.871094 L 27.445312 18.871094 Z M 26.007812 16.703125 C 26.257812 16.796875 26.460938 16.960938 26.554688 17.09375 C 26.714844 17.324219 26.738281 17.535156 26.742188 17.945312 L 26.742188 18.871094 L 25.617188 18.871094 L 25.617188 18.289062 C 25.617188 18.007812 25.644531 17.589844 25.433594 17.375 C 25.269531 17.207031 25.019531 17.167969 24.613281 17.167969 L 23.414062 17.167969 L 23.414062 18.871094 L 22.285156 18.871094 L 22.285156 14.207031 L 24.875 14.207031 C 25.441406 14.207031 25.855469 14.230469 26.222656 14.425781 C 26.578125 14.640625 26.800781 14.929688 26.800781 15.464844 C 26.800781 16.207031 26.300781 16.585938 26.007812 16.703125 Z M 25.371094 16.113281 C 25.222656 16.203125 25.035156 16.210938 24.820312 16.210938 L 23.457031 16.210938 L 23.457031 15.164062 L 24.835938 15.164062 C 25.035156 15.164062 25.238281 15.167969 25.371094 15.246094 C 25.519531 15.324219 25.605469 15.46875 25.605469 15.667969 C 25.605469 15.867188 25.519531 16.027344 25.371094 16.113281 Z M 35.496094 16.410156 C 35.714844 16.636719 35.832031 16.917969 35.832031 17.398438 C 35.832031 18.402344 35.203125 18.871094 34.070312 18.871094 L 31.886719 18.871094 L 31.886719 17.871094 L 34.0625 17.871094 C 34.273438 17.871094 34.425781 17.84375 34.519531 17.753906 C 34.597656 17.683594 34.652344 17.578125 34.652344 17.449219 C 34.652344 17.316406 34.59375 17.207031 34.515625 17.144531 C 34.429688 17.070312 34.3125 17.039062 34.117188 17.039062 C 33.066406 17.003906 31.753906 17.070312 31.753906 15.597656 C 31.753906 14.917969 32.179688 14.207031 33.355469 14.207031 L 35.605469 14.207031 L 35.605469 15.199219 L 33.546875 15.199219 C 33.34375 15.199219 33.210938 15.207031 33.097656 15.285156 C 32.976562 15.359375 32.929688 15.472656 32.929688 15.621094 C 32.929688 15.796875 33.035156 15.914062 33.175781 15.96875 C 33.292969 16.007812 33.421875 16.019531 33.613281 16.019531 L 34.214844 16.035156 C 34.824219 16.050781 35.242188 16.15625 35.496094 16.410156 Z M 39.945312 15.164062 L 37.902344 15.164062 C 37.699219 15.164062 37.5625 15.171875 37.449219 15.246094 C 37.332031 15.324219 37.285156 15.433594 37.285156 15.582031 C 37.285156 15.757812 37.386719 15.878906 37.53125 15.929688 C 37.648438 15.972656 37.777344 15.984375 37.960938 15.984375 L 38.570312 16 C 39.183594 16.015625 39.59375 16.117188 39.84375 16.375 C 39.886719 16.410156 39.914062 16.449219 39.945312 16.488281 Z M 39.945312 15.164062 "/>
</g>
</svg>
