<?xml version="1.0" encoding="UTF-8"?>
<svg xmlns="http://www.w3.org/2000/svg" xmlns:xlink="http://www.w3.org/1999/xlink" width="40pt" height="40pt" viewBox="0 0 40 40" version="1.1">
<g id="surface1">
<path style=" stroke:none;fill-rule:nonzero;fill:rgb(56.862745%,55.686275%,55.686275%);fill-opacity:1;" d="M 21.816406 20.121094 L 34.910156 7.273438 C 35.394531 6.789062 35.394531 5.816406 34.910156 5.332031 C 34.425781 4.847656 33.695312 4.847656 32.96875 5.332031 L 20.121094 18.183594 L 7.03125 5.089844 C 6.304688 4.847656 5.574219 4.847656 5.089844 5.089844 C 4.605469 5.816406 4.605469 6.546875 5.089844 7.273438 L 17.9375 20.121094 L 5.089844 32.96875 C 4.605469 33.453125 4.605469 34.425781 5.089844 34.910156 C 5.574219 35.394531 6.546875 35.394531 7.03125 34.910156 L 20.121094 22.0625 L 32.96875 34.910156 C 33.453125 35.394531 34.425781 35.394531 34.910156 34.910156 C 35.394531 34.425781 35.394531 33.453125 34.910156 32.96875 Z M 21.816406 20.121094 "/>
</g>
</svg>
