<?xml version="1.0" encoding="UTF-8"?>
<svg xmlns="http://www.w3.org/2000/svg" xmlns:xlink="http://www.w3.org/1999/xlink" width="40pt" height="25pt" viewBox="0 0 40 25" version="1.1">
<g id="surface1">
<path style=" stroke:none;fill-rule:evenodd;fill:rgb(95.686275%,95.686275%,95.686275%);fill-opacity:1;" d="M 2.132812 0 L 37.867188 0 C 39.042969 0 40 0.949219 40 2.125 L 40 22.875 C 40 24.050781 39.042969 25 37.867188 25 L 2.132812 25 C 0.957031 25 0 24.050781 0 22.875 L 0 2.125 C 0 0.949219 0.957031 0 2.132812 0 Z M 2.132812 0 "/>
<path style=" stroke:none;fill-rule:evenodd;fill:rgb(0%,0%,0%);fill-opacity:1;" d="M 32.992188 22.40625 C 32.925781 22.410156 32.871094 22.429688 32.832031 22.472656 C 32.789062 22.511719 32.765625 22.5625 32.765625 22.625 C 32.765625 22.6875 32.789062 22.738281 32.832031 22.78125 C 32.871094 22.820312 32.925781 22.84375 32.992188 22.84375 C 33.054688 22.84375 33.105469 22.820312 33.148438 22.78125 C 33.191406 22.738281 33.210938 22.6875 33.214844 22.625 C 33.210938 22.5625 33.191406 22.511719 33.148438 22.472656 C 33.105469 22.429688 33.054688 22.410156 32.992188 22.40625 Z M 32.992188 22.796875 C 32.941406 22.792969 32.902344 22.777344 32.867188 22.746094 C 32.835938 22.714844 32.820312 22.671875 32.820312 22.625 C 32.820312 22.578125 32.835938 22.535156 32.867188 22.503906 C 32.902344 22.472656 32.941406 22.457031 32.992188 22.457031 C 33.039062 22.457031 33.078125 22.472656 33.109375 22.503906 C 33.144531 22.535156 33.160156 22.578125 33.160156 22.625 C 33.160156 22.671875 33.144531 22.714844 33.109375 22.746094 C 33.078125 22.777344 33.039062 22.792969 32.992188 22.796875 Z M 33.003906 22.523438 L 32.910156 22.523438 L 32.910156 22.726562 L 32.953125 22.726562 L 32.953125 22.648438 L 32.972656 22.648438 L 33.035156 22.726562 L 33.085938 22.726562 L 33.019531 22.648438 C 33.042969 22.648438 33.058594 22.640625 33.070312 22.628906 C 33.078125 22.617188 33.085938 22.605469 33.085938 22.585938 C 33.085938 22.566406 33.078125 22.550781 33.0625 22.539062 C 33.050781 22.527344 33.03125 22.523438 33.003906 22.523438 Z M 33.003906 22.5625 C 33.015625 22.5625 33.023438 22.5625 33.03125 22.566406 C 33.039062 22.574219 33.039062 22.578125 33.039062 22.585938 C 33.039062 22.597656 33.039062 22.605469 33.03125 22.609375 C 33.023438 22.613281 33.015625 22.613281 33.003906 22.613281 L 32.953125 22.613281 L 32.953125 22.5625 Z M 33.003906 22.5625 "/>
<path style=" stroke:none;fill-rule:evenodd;fill:rgb(0%,0%,0%);fill-opacity:1;" d="M 8.542969 22.703125 L 8.078125 22.703125 L 8.078125 20.535156 L 8.535156 20.535156 L 8.535156 20.800781 C 8.535156 20.800781 8.9375 20.476562 9.175781 20.480469 C 9.640625 20.488281 9.917969 20.882812 9.917969 20.882812 C 9.917969 20.882812 10.144531 20.480469 10.648438 20.480469 C 11.402344 20.480469 11.511719 21.164062 11.511719 21.164062 L 11.511719 22.695312 L 11.0625 22.695312 L 11.0625 21.347656 C 11.0625 21.347656 11.0625 20.9375 10.578125 20.9375 C 10.074219 20.9375 10.027344 21.347656 10.027344 21.347656 L 10.027344 22.695312 L 9.5625 22.695312 L 9.5625 21.335938 C 9.5625 21.335938 9.515625 20.910156 9.09375 20.910156 C 8.546875 20.910156 8.535156 21.347656 8.535156 21.347656 Z M 8.542969 22.703125 "/>
<path style=" stroke:none;fill-rule:evenodd;fill:rgb(0%,0%,0%);fill-opacity:1;" d="M 22.746094 20.480469 C 22.503906 20.476562 22.105469 20.796875 22.105469 20.796875 L 22.105469 20.535156 L 21.644531 20.535156 L 21.644531 22.703125 L 22.113281 22.703125 L 22.105469 21.347656 C 22.105469 21.347656 22.113281 20.910156 22.664062 20.910156 C 22.765625 20.910156 22.84375 20.933594 22.90625 20.972656 L 22.90625 20.96875 L 23.058594 20.546875 C 22.964844 20.507812 22.863281 20.480469 22.746094 20.480469 Z M 22.746094 20.480469 "/>
<path style=" stroke:none;fill-rule:evenodd;fill:rgb(0%,0%,0%);fill-opacity:1;" d="M 29.320312 20.480469 C 29.082031 20.476562 28.679688 20.796875 28.679688 20.796875 L 28.679688 20.535156 L 28.222656 20.535156 L 28.222656 22.703125 L 28.691406 22.703125 L 28.679688 21.347656 C 28.679688 21.347656 28.691406 20.910156 29.238281 20.910156 C 29.339844 20.910156 29.421875 20.933594 29.484375 20.972656 L 29.484375 20.96875 L 29.636719 20.546875 C 29.542969 20.507812 29.4375 20.480469 29.320312 20.480469 Z M 29.320312 20.480469 "/>
<path style=" stroke:none;fill-rule:evenodd;fill:rgb(0%,0%,0%);fill-opacity:1;" d="M 13.019531 20.46875 C 12.320312 20.46875 11.953125 21.097656 11.949219 21.617188 C 11.949219 22.15625 12.371094 22.773438 13.039062 22.773438 C 13.429688 22.773438 13.75 22.484375 13.75 22.484375 L 13.75 22.707031 L 14.210938 22.707031 L 14.210938 20.535156 L 13.75 20.535156 L 13.75 20.808594 C 13.75 20.808594 13.449219 20.46875 13.019531 20.46875 Z M 13.109375 20.914062 C 13.484375 20.914062 13.789062 21.238281 13.789062 21.636719 C 13.789062 22.039062 13.484375 22.363281 13.109375 22.363281 C 12.734375 22.363281 12.433594 22.039062 12.433594 21.636719 C 12.433594 21.238281 12.734375 20.914062 13.109375 20.914062 Z M 13.109375 20.914062 "/>
<path style=" stroke:none;fill-rule:evenodd;fill:rgb(0%,0%,0%);fill-opacity:1;" d="M 26.425781 20.46875 C 25.726562 20.46875 25.355469 21.097656 25.355469 21.617188 C 25.351562 22.15625 25.773438 22.773438 26.445312 22.773438 C 26.835938 22.773438 27.15625 22.484375 27.15625 22.484375 L 27.15625 22.707031 L 27.613281 22.707031 L 27.613281 20.535156 L 27.152344 20.535156 L 27.152344 20.808594 C 27.152344 20.808594 26.851562 20.46875 26.425781 20.46875 Z M 26.515625 20.914062 C 26.890625 20.914062 27.195312 21.238281 27.195312 21.636719 C 27.195312 22.039062 26.890625 22.363281 26.515625 22.363281 C 26.136719 22.363281 25.835938 22.039062 25.835938 21.636719 C 25.835938 21.238281 26.136719 20.914062 26.515625 20.914062 Z M 26.515625 20.914062 "/>
<path style=" stroke:none;fill-rule:evenodd;fill:rgb(0%,0%,0%);fill-opacity:1;" d="M 30.835938 20.46875 C 30.140625 20.46875 29.769531 21.097656 29.765625 21.617188 C 29.765625 22.15625 30.1875 22.773438 30.855469 22.773438 C 31.246094 22.773438 31.570312 22.484375 31.570312 22.484375 L 31.566406 22.707031 L 32.027344 22.707031 L 32.027344 19.675781 L 31.566406 19.675781 L 31.566406 20.808594 C 31.566406 20.808594 31.265625 20.46875 30.835938 20.46875 Z M 30.925781 20.914062 C 31.300781 20.914062 31.605469 21.238281 31.605469 21.636719 C 31.605469 22.039062 31.300781 22.363281 30.925781 22.363281 C 30.550781 22.363281 30.25 22.039062 30.25 21.636719 C 30.25 21.238281 30.550781 20.914062 30.925781 20.914062 Z M 30.925781 20.914062 "/>
<path style=" stroke:none;fill-rule:evenodd;fill:rgb(0%,0%,0%);fill-opacity:1;" d="M 15.613281 22.777344 C 15.136719 22.777344 14.695312 22.484375 14.695312 22.484375 L 14.898438 22.175781 C 14.898438 22.175781 15.3125 22.367188 15.613281 22.367188 C 15.804688 22.367188 16.128906 22.304688 16.132812 22.113281 C 16.136719 21.90625 15.589844 21.847656 15.589844 21.847656 C 15.589844 21.847656 14.769531 21.835938 14.769531 21.164062 C 14.769531 20.742188 15.179688 20.472656 15.703125 20.472656 C 16.007812 20.472656 16.574219 20.734375 16.574219 20.734375 L 16.34375 21.089844 C 16.34375 21.089844 15.90625 20.917969 15.675781 20.910156 C 15.480469 20.902344 15.246094 20.996094 15.246094 21.164062 C 15.246094 21.625 16.609375 21.128906 16.609375 22.058594 C 16.609375 22.667969 16.054688 22.777344 15.613281 22.777344 Z M 15.613281 22.777344 "/>
<path style=" stroke:none;fill-rule:evenodd;fill:rgb(0%,0%,0%);fill-opacity:1;" d="M 17.367188 19.90625 L 17.367188 20.535156 L 16.960938 20.535156 L 16.960938 20.992188 L 17.367188 20.992188 L 17.367188 22.082031 C 17.367188 22.082031 17.332031 22.820312 18.128906 22.820312 C 18.351562 22.820312 18.78125 22.660156 18.78125 22.660156 L 18.597656 22.1875 C 18.597656 22.1875 18.425781 22.332031 18.230469 22.328125 C 17.863281 22.316406 17.875 22.082031 17.875 22.082031 L 17.875 20.992188 L 18.632812 20.992188 L 18.632812 20.535156 L 17.875 20.535156 L 17.875 19.90625 Z M 17.367188 19.90625 "/>
<path style=" stroke:none;fill-rule:evenodd;fill:rgb(0%,0%,0%);fill-opacity:1;" d="M 20.132812 20.496094 C 19.386719 20.496094 19.011719 21.113281 19.015625 21.644531 C 19.015625 22.195312 19.355469 22.8125 20.179688 22.8125 C 20.53125 22.8125 21.027344 22.503906 21.027344 22.503906 L 20.816406 22.132812 C 20.816406 22.132812 20.476562 22.371094 20.179688 22.371094 C 19.585938 22.371094 19.546875 21.792969 19.546875 21.792969 L 21.140625 21.792969 C 21.140625 21.792969 21.257812 20.496094 20.132812 20.496094 Z M 20.066406 20.921875 C 20.085938 20.921875 20.101562 20.921875 20.121094 20.921875 C 20.683594 20.921875 20.679688 21.449219 20.679688 21.449219 L 19.546875 21.449219 C 19.546875 21.449219 19.519531 20.953125 20.066406 20.921875 Z M 20.066406 20.921875 "/>
<path style=" stroke:none;fill-rule:evenodd;fill:rgb(0%,0%,0%);fill-opacity:1;" d="M 24.875 22.128906 L 25.085938 22.554688 C 25.085938 22.554688 24.75 22.773438 24.367188 22.773438 C 23.582031 22.773438 23.144531 22.183594 23.144531 21.625 C 23.144531 20.75 23.839844 20.492188 24.308594 20.492188 C 24.738281 20.492188 25.105469 20.734375 25.105469 20.734375 L 24.867188 21.160156 C 24.867188 21.160156 24.722656 20.9375 24.296875 20.9375 C 23.875 20.9375 23.648438 21.300781 23.648438 21.644531 C 23.648438 22.03125 23.910156 22.359375 24.304688 22.359375 C 24.613281 22.359375 24.875 22.128906 24.875 22.128906 Z M 24.875 22.128906 "/>
<path style=" stroke:none;fill-rule:evenodd;fill:rgb(96.862745%,62.352941%,10.196078%);fill-opacity:1;" d="M 33.308594 14.789062 L 33.308594 14.496094 L 33.230469 14.496094 L 33.140625 14.699219 L 33.054688 14.496094 L 32.976562 14.496094 L 32.976562 14.789062 L 33.03125 14.789062 L 33.03125 14.570312 L 33.113281 14.757812 L 33.171875 14.757812 L 33.253906 14.566406 L 33.253906 14.789062 Z M 32.820312 14.789062 L 32.820312 14.546875 L 32.917969 14.546875 L 32.917969 14.496094 L 32.667969 14.496094 L 32.667969 14.546875 L 32.765625 14.546875 L 32.765625 14.789062 Z M 32.820312 14.789062 "/>
<path style=" stroke:none;fill-rule:evenodd;fill:rgb(96.862745%,62.352941%,10.196078%);fill-opacity:1;" d="M 33.324219 10.433594 C 33.324219 14.96875 29.636719 18.644531 25.09375 18.644531 C 20.550781 18.644531 16.863281 14.96875 16.863281 10.433594 C 16.863281 5.898438 20.550781 2.222656 25.09375 2.222656 C 29.636719 2.222656 33.324219 5.898438 33.324219 10.433594 Z M 33.324219 10.433594 "/>
<path style=" stroke:none;fill-rule:evenodd;fill:rgb(91.764706%,0%,10.588235%);fill-opacity:1;" d="M 23.171875 10.433594 C 23.171875 14.96875 19.488281 18.644531 14.941406 18.644531 C 10.398438 18.644531 6.714844 14.96875 6.714844 10.433594 C 6.714844 5.898438 10.398438 2.222656 14.941406 2.222656 C 19.488281 2.222656 23.171875 5.898438 23.171875 10.433594 Z M 23.171875 10.433594 "/>
<path style=" stroke:none;fill-rule:evenodd;fill:rgb(100%,37.254902%,0.392157%);fill-opacity:1;" d="M 20.019531 3.96875 C 18.097656 5.472656 16.867188 7.808594 16.867188 10.433594 C 16.867188 13.054688 18.097656 15.394531 20.019531 16.894531 C 21.9375 15.394531 23.171875 13.054688 23.171875 10.433594 C 23.171875 7.808594 21.9375 5.472656 20.019531 3.96875 Z M 20.019531 3.96875 "/>
</g>
</svg>
