<?xml version="1.0" encoding="UTF-8"?>
<svg xmlns="http://www.w3.org/2000/svg" xmlns:xlink="http://www.w3.org/1999/xlink" width="40pt" height="25pt" viewBox="0 0 40 25" version="1.1">
<g id="surface1">
<path style=" stroke:none;fill-rule:evenodd;fill:rgb(5.490196%,27.058824%,58.431373%);fill-opacity:1;" d="M 2.132812 0 L 37.867188 0 C 39.042969 0 40 0.949219 40 2.125 L 40 22.875 C 40 24.050781 39.042969 25 37.867188 25 L 2.132812 25 C 0.957031 25 0 24.050781 0 22.875 L 0 2.125 C 0 0.949219 0.957031 0 2.132812 0 Z M 2.132812 0 "/>
<path style=" stroke:none;fill-rule:evenodd;fill:rgb(100%,100%,100%);fill-opacity:1;" d="M 14.835938 17.742188 L 16.617188 7.347656 L 19.460938 7.347656 L 17.683594 17.742188 Z M 14.835938 17.742188 "/>
<path style=" stroke:none;fill-rule:evenodd;fill:rgb(100%,100%,100%);fill-opacity:1;" d="M 27.964844 7.574219 C 27.398438 7.363281 26.515625 7.136719 25.414062 7.136719 C 22.601562 7.136719 20.621094 8.546875 20.601562 10.566406 C 20.585938 12.058594 22.015625 12.890625 23.097656 13.390625 C 24.203125 13.898438 24.578125 14.222656 24.570312 14.679688 C 24.5625 15.375 23.6875 15.691406 22.867188 15.691406 C 21.730469 15.691406 21.125 15.535156 20.191406 15.148438 L 19.824219 14.980469 L 19.425781 17.308594 C 20.089844 17.597656 21.316406 17.851562 22.59375 17.863281 C 25.585938 17.863281 27.527344 16.46875 27.550781 14.3125 C 27.558594 13.128906 26.800781 12.230469 25.160156 11.488281 C 24.164062 11.007812 23.554688 10.6875 23.5625 10.203125 C 23.5625 9.769531 24.078125 9.308594 25.191406 9.308594 C 26.121094 9.292969 26.796875 9.496094 27.324219 9.707031 L 27.578125 9.824219 L 27.964844 7.574219 "/>
<path style=" stroke:none;fill-rule:evenodd;fill:rgb(100%,100%,100%);fill-opacity:1;" d="M 35.285156 7.347656 L 33.085938 7.347656 C 32.40625 7.347656 31.894531 7.535156 31.597656 8.210938 L 27.371094 17.734375 L 30.359375 17.734375 C 30.359375 17.734375 30.847656 16.453125 30.957031 16.171875 C 31.285156 16.171875 34.1875 16.175781 34.601562 16.175781 C 34.6875 16.539062 34.949219 17.734375 34.949219 17.734375 L 37.589844 17.734375 Z M 31.796875 14.058594 C 32.03125 13.460938 32.929688 11.15625 32.929688 11.15625 C 32.914062 11.183594 33.164062 10.554688 33.308594 10.164062 L 33.5 11.058594 C 33.5 11.058594 34.046875 13.539062 34.160156 14.058594 Z M 31.796875 14.058594 "/>
<path style=" stroke:none;fill-rule:evenodd;fill:rgb(100%,100%,100%);fill-opacity:1;" d="M 12.421875 7.347656 L 9.636719 14.433594 L 9.339844 12.996094 C 8.820312 11.335938 7.203125 9.535156 5.398438 8.636719 L 7.945312 17.722656 L 10.957031 17.71875 L 15.4375 7.347656 L 12.421875 7.347656 "/>
<path style=" stroke:none;fill-rule:evenodd;fill:rgb(94.901961%,68.235294%,7.843137%);fill-opacity:1;" d="M 7.035156 7.347656 L 2.445312 7.347656 L 2.410156 7.566406 C 5.980469 8.425781 8.34375 10.503906 9.324219 13 L 8.324219 8.226562 C 8.152344 7.570312 7.652344 7.371094 7.035156 7.347656 "/>
</g>
</svg>
