<?xml version="1.0" encoding="utf-8"?>
<!-- Generator: Adobe Illustrator 24.0.0, SVG Export Plug-In . SVG Version: 6.00 Build 0)  -->
<svg version="1.1" id="Layer_1" xmlns="http://www.w3.org/2000/svg" xmlns:xlink="http://www.w3.org/1999/xlink" x="0px" y="0px"
	 viewBox="0 0 322.826 279" style="enable-background:new 0 0 322.826 279;" xml:space="preserve">
<linearGradient id="SVGID_1_" gradientUnits="userSpaceOnUse" x1="31" y1="139.5" x2="310" y2="139.5">
	<stop  offset="0" style="stop-color:#FBEBF1"/>
	<stop  offset="1" style="stop-color:#FDD3D1"/>
</linearGradient>
<circle style="fill:url(#SVGID_1_);" cx="170.5" cy="139.5" r="139.5"/>
<path style="fill:#FFFFFF;" d="M25.983,232.279c-6.942,0.472-14.351,1.464-20.658,4.588c-3.565,1.766-7.364,5.392-4.054,9.303
	c3.8,4.49,11.421,5.566,16.884,6.249c7.548,0.944,15.271,0.778,22.734-0.727c7.239-1.46,14.2-4.111,21.241-6.288
	c7.505-2.32,15.075-4.434,22.739-6.165c16.624-3.754,33.762-5.849,50.821-5.196c4.287,0.164,8.587,0.487,12.818,1.213
	c3.393,0.582,7.459,1.274,10.231,3.464c3.73,2.947-0.707,5.817-3.567,6.888c-3.045,1.139-6.33,1.688-9.551,2.025
	c-7.497,0.785-15.529,0.579-22.755-1.73c-2.521-0.806-5.99-2.044-7.414-4.495c-1.531-2.635,1.56-4.885,3.534-6.086
	c6.424-3.909,14.425-5.659,21.729-7.086c8.381-1.637,16.91-2.521,25.439-2.854c7.498-0.293,15.752-0.641,22.982,1.707
	c2.917,0.947,5.631,2.565,5.626,5.927c-0.003,1.852-0.629,3.686-0.316,5.537c0.733,4.335,5.215,6.829,8.974,8.175
	c7.207,2.58,15.293,2.64,22.85,2.382c16.811-0.573,33.718-2.864,50.306-5.567c4.016-0.654,8.023-1.363,12.02-2.121
	c0.704-0.134,0.406-1.208-0.296-1.075c-17.504,3.32-35.212,5.677-52.97,7.106c-8.311,0.669-16.857,1.158-25.127-0.191
	c-4.941-0.806-13.304-2.716-14.606-8.608c-0.435-1.97,0.342-3.977,0.278-5.962c-0.065-2.019-0.972-3.67-2.606-4.855
	c-2.585-1.873-6.013-2.529-9.106-2.981c-3.812-0.557-7.678-0.713-11.527-0.721c-8.607-0.017-17.246,0.646-25.758,1.917
	c-7.653,1.142-15.375,2.749-22.611,5.543c-3.314,1.279-11.761,4.432-10.197,9.462c0.62,1.992,2.681,3.347,4.424,4.26
	c3.177,1.664,6.766,2.54,10.288,3.087c6.956,1.079,14.257,1.001,21.183-0.274c3.363-0.619,12.83-2.638,11.266-7.907
	c-0.708-2.384-3.543-3.598-5.661-4.362c-3.473-1.254-7.191-1.83-10.845-2.261c-8.735-1.029-17.622-0.973-26.388-0.409
	c-16.757,1.077-33.282,4.368-49.398,9.011c-7.26,2.092-14.388,4.603-21.634,6.731c-7.906,2.321-15.991,3.294-24.222,2.818
	c-3.874-0.224-7.754-0.715-11.522-1.658c-3.245-0.812-7.1-1.948-9.373-4.557c-5.059-5.809,7.728-9.445,11.278-10.309
	c4.106-0.999,8.303-1.548,12.515-1.835C26.695,233.345,26.7,232.23,25.983,232.279L25.983,232.279z"/>
<linearGradient id="SVGID_2_" gradientUnits="userSpaceOnUse" x1="243.3558" y1="238.3681" x2="243.3558" y2="57.7803">
	<stop  offset="0" style="stop-color:#FBEBF1"/>
	<stop  offset="1" style="stop-color:#FF7289"/>
</linearGradient>
<path style="fill:url(#SVGID_2_);stroke:#412E7C;stroke-width:0.75;stroke-miterlimit:10;" d="M259.371,57.78
	c-0.405,0.09-37.145,23.203-37.145,23.203v142.302l37.145,15.083L264.485,121L259.371,57.78z"/>
<path style="fill:#FFFFFF;stroke:#412E7C;stroke-width:0.75;stroke-miterlimit:10;" d="M170.568,52.536v185.832h9.593V57.78h83.108
	v180.588h9.593V52.536c0-2.44-1.978-4.418-4.418-4.418h-93.459C172.546,48.118,170.568,50.096,170.568,52.536z"/>
<path style="fill:#FBBEB9;" d="M89.378,240.721c-0.463,1.471-1.458,4.055-2.169,5.583c1.619,2.246,7.182,2.899,7.182,2.899
	c0.078-1.854,1.489-4.936,2.037-6.163C95.409,242.7,90.631,241.818,89.378,240.721z"/>
<path style="fill:#FBBEB9;" d="M36.229,236.304c0.568-0.969,1.269-1.804,2.104-2.605c3.14,0.568,5.979,3.24,5.979,3.24
	c-1.804,1.236-3.207,4.409-3.24,5.946C39.602,242.651,35.093,240.179,36.229,236.304z"/>
<path style="fill:#F99E96;" d="M87.062,94.587c1.15,0.797,1.156,3.073-0.521,4.566c2.597-0.391,6.989,0.759,8.299,1.908
	c-1.884-1.011-2.367-4.734,0.161-6.227C93.667,93.317,87.191,91.285,87.062,94.587z"/>
<path style="fill:#281B51;" d="M101.795,157.682c1.441,8.166,9.89,38.523,11.205,45.318c0.575,2.97-1.047,8.637-2.771,12.085
	c-1.724,3.448-12.166,25.634-13.916,29.093c-1.657-0.059-6.038-1.759-7.695-2.706c3.491-7.219,11.6-25.164,10.239-40.016
	c-3.254-7.041-8.698-17.396-10.71-21.775c-4.852,9.941-7.551,18.41-9.193,21.756c-1.643,3.346-3.407,5.597-6.631,8.943
	c-3.224,3.346-19.939,20.167-29.042,28.859c-3.491-0.616-5.339-3.696-5.475-5.202c9.377-9.651,25.05-30.115,26.351-32.305
	s1.78-3.08,2.532-5.886s8.199-25.625,9.37-37.178C82.568,155.806,98.573,155.931,101.795,157.682z"/>
<path style="fill:#FBBEB9;" d="M99.03,84.37c0.132,3.472-0.49,8.237-1.832,10.92c-0.595,1.19-0.669,1.298-1.965,1.199
	c-1.221-0.093-3.588-1.018-5.294-3.019C89.165,92.563,94.963,81.791,99.03,84.37z"/>
<linearGradient id="SVGID_3_" gradientUnits="userSpaceOnUse" x1="94.5551" y1="89.5509" x2="103.0958" y2="88.7625">
	<stop  offset="0" style="stop-color:#FBBEB9"/>
	<stop  offset="1" style="stop-color:#FCE0DE"/>
</linearGradient>
<path style="fill:url(#SVGID_3_);" d="M99.03,84.37c-0.186-0.118-0.376-2.208-0.569-2.272c-0.168,0.111-0.343,2.251-0.529,2.43
	c0.037,2.889,0.167,9.382-1.856,11.975c0.534-0.063,0.695-0.358,1.122-1.212C98.54,92.607,99.162,87.842,99.03,84.37z"/>
<path style="fill:#F59F00;" d="M107.996,112.623c8.853-2.411,18.424-2.319,22.634-2.237c8.184,2.458,19.762,5.566,22.413,7.054
	c1.342,4.812-0.294,21.904-3.099,28.262c-5.767,1.227-17.835,1.565-20.707,1.605c-11.835-1.763-28.435-4.577-28.435-4.577
	C98.792,128.045,98.479,114.734,107.996,112.623z"/>
<path style="fill:#FAB005;" d="M120.363,140.49c0,0,6.989-13.117,1.935-16.557c-4.805-3.271-5.867-5.914-6.329-12.867
	c-2.614,0.341-5.325,0.837-7.973,1.558c-9.518,2.111-9.204,15.422-7.194,30.107c0,0,7.779,1.319,16.483,2.716
	C118.014,142.729,120.363,140.49,120.363,140.49z"/>
<path style="fill:#FCC419;" d="M149.944,145.702c2.805-6.358,4.44-23.45,3.099-28.262c-2.651-1.488-14.229-4.596-22.413-7.054
	c1.03,9.802,0.894,25.587-1.393,36.921C132.109,147.267,144.177,146.929,149.944,145.702z"/>
<path style="fill:#F59F00;" d="M150.863,134.453c-0.74-4.184-2.223-1.133-4.38-0.553c-2.157,0.579-2.969-2.812-4.772-1.074
	c-1.802,1.738-6.331,5.14-11.996,2.629c-6.985,3.991-6.959,10.822-1.414,10.746c12.736-0.175,8.797-4.811,12.853-4.907
	c4.056-0.097,5.718,0.052,7.295-1.912C150.026,137.419,148.835,134.55,150.863,134.453z"/>
<path style="fill:#212529;" d="M87.338,76.459c-1.311,1.193-2.212,2.285-3.143,5.238c-0.48,1.522,0.023,5.138,0.442,7.024
	c0.419,1.886,0.903,3.289,1.296,4.501c0.358,1.105,0.859,2.001,1.837,2.375c1.18,0.451,2.352,0.409,3.421,0.329
	c0.792-0.06,1.872-0.202,1.773-1.51c-0.109-1.444,0.425-3.051,1.193-3.638c0.768-0.587,0.609-0.614,0.198-1.613
	c-0.411-0.999-0.647-1.969,0.294-2.822c0.94-0.852,1.969,0.147,2.028,1.205c0.059,1.058,0.558,1.146,0.529,0.088
	c-0.029-1.058,0.529-1.176,0.558-1.763s0.411-0.529,1.087-0.588s0.85-2.492,1.44-3.146c0.572-0.635,0.822-1.856,0.656-3.161
	c-0.177-1.388-1.432-1.581-2.138-2.721c-1.133-1.83-3.208,0.213-6.108-0.611C90.864,75.124,88.744,75.18,87.338,76.459z"/>
<path style="fill:#FBBEB9;" d="M139.863,142.662c2.167-0.362,2.73-0.207,4.247,0.052c1.517,0.258,4.191-0.959,5.472-1.86
	c1.108-0.779,1.347-5.784,1.347-7.249c0-1.841-0.826-0.528-2.218-0.298c-1.392,0.231-3.286,1.66-3.711,1.06
	c-0.425-0.599-0.134-0.74,0.175-1.939c0.309-1.199,0.515-2.455,0.086-2.694c-0.836-0.465-1.02,0.982-1.458,2.217
	c-0.425,1.199-1.006,2.647-1.779,3.661c-0.773,1.014-1.624,2.351-2.861,2.305S140.176,140.675,139.863,142.662z"/>
<path style="fill:#209A9F;" d="M92.422,99.12c-4.465-0.905-6.436-0.702-10.289,0.957c-3.931,1.692-5.505,2.622-10.096,5.89
	c-4.591,3.268-11.456,14.158-14.952,25.519c-0.788,2.561-0.591,3.677,1.773,5.384c2.364,1.707,6.303,3.611,8.601,4.202
	c0.722,4.99,3.02,13.065,8.601,17.595c6.04,1.51,22.126,1.379,25.737-0.985c3.48-6.5,7.582-19.571,4.956-31.783
	c1.51,3.217,8.04,11.824,13.231,15.173c3.16,2.039,4.226,2.504,5.865,2.622c4.53,0.328,13.5-0.636,16.06-0.898
	c0.657-1.576,1.379-4.727-0.591-6.5c-2.516-0.937-9.674-1.615-12.462-2.745c-2.542-1.03-2.567-1.352-3.874-2.578
	c-1.205-1.13-10.382-13.734-12.614-18.133c-2.232-4.399-4.333-8.929-9.783-9.651C97.134,102.467,96.968,100.042,92.422,99.12z"/>
<linearGradient id="SVGID_4_" gradientUnits="userSpaceOnUse" x1="63.7003" y1="110.5258" x2="71.4217" y2="123.5419">
	<stop  offset="0" style="stop-color:#6EC5BC"/>
	<stop  offset="1" style="stop-color:#209A9F"/>
</linearGradient>
<path style="fill:url(#SVGID_4_);" d="M72.037,105.968c-4.159,2.961-10.186,12.179-13.882,22.334
	c1.089-1.233,2.486-2.075,4.699-4.695c3.476-4.117,5.077-10.2,10.429-14.819c0.549-2.22,1.545-4.067,2.338-5.293
	C74.611,104.154,73.471,104.947,72.037,105.968z"/>
<linearGradient id="SVGID_5_" gradientUnits="userSpaceOnUse" x1="113.071" y1="99.3868" x2="107.3088" y2="117.351">
	<stop  offset="0" style="stop-color:#6EC5BC"/>
	<stop  offset="1" style="stop-color:#209A9F"/>
</linearGradient>
<path style="fill:url(#SVGID_5_);" d="M111.807,111.738c-2.048-4.026-4.23-7.887-9.224-8.549c-0.863-0.114-1.593-0.272-2.23-0.459
	c-0.957,0.924-1.964,2.023-3.016,3.335c6.496,0.849,9.455,11.088,20.26,21.584c-1.955-2.984-4.94-11.937-5.79-15.91
	C111.807,111.739,111.807,111.738,111.807,111.738z"/>
<linearGradient id="SVGID_6_" gradientUnits="userSpaceOnUse" x1="86.0425" y1="107.3446" x2="93.3964" y2="128.5753">
	<stop  offset="0" style="stop-color:#157B8D"/>
	<stop  offset="1" style="stop-color:#209A9F"/>
</linearGradient>
<path style="fill:url(#SVGID_6_);" d="M103.072,103.355c-3.392,0.837-6.713,3.996-9.164,8.525
	c-2.451,4.529-5.594,15.664-10.017,18.488c-4.422,2.824-11.775-2.93-11.029-11.455c0.746-8.525,0.16-8.578,0.213-10.496
	C81.174,102.076,98.01,101.65,103.072,103.355z"/>
<path style="fill:#43ABAB;" d="M72.446,108.222c0,3.518,0.749,7.385,0.749,9.365s-0.321,5.405,4.174,5.833
	c4.495,0.428,7.064-1.284,9.204-4.977c2.141-3.692,7.438-9.793,9.9-11.559C98.935,105.118,72.446,104.797,72.446,108.222z"/>
<path style="fill:#412E7C;" d="M98.786,160.507c-5.287,2.623-16.665,2.259-21.069,0.34c-1.121-0.488-0.762,0.976-1.201,3.605
	c-1.407,8.415-5.449,24.055-7.526,27.334c8.529-11.279,13.804-17.807,13.523-22.23C82.233,165.132,95.251,171.586,98.786,160.507z"
	/>
<path style="fill:#5C7CFA;" d="M74.319,103.566c-2.301,1.445-2.462,3.639-1.819,5.619c0.642,1.98,2.301,4.977,7.492,4.656
	c5.191-0.321,10.275-3.532,13.806-4.977c3.532-1.445,7.28-5.067,8.669-5.244c1.403-0.179,0.119-0.828-1.273-1.334
	c-2.623-0.954-6.861-3.964-11.035-4.017c-4.174-0.054-6.957,0.856-9.953,2.355C77.208,102.121,76.673,102.335,74.319,103.566z"/>
<path style="fill:#212529;" d="M87.645,245.291c-1.105,2.692-3.605,7.738-4.662,9.565c-1.057,1.826-1.221,1.819-0.336,2.451
	c1.682,1.202,3.989,1.49,6.489,1.538c2.499,0.048,11.652-0.175,14.179-0.577C105,258,106.606,257.433,108,257
	s2.86-1.568,2.475-2.962s-1.54-0.71-3.028-0.817c-1.155-0.083-7.239-1.822-10.718-3.605c-1.381-0.708-1.394-1.538-1.49-2.451
	C93.846,247.598,89.952,246.252,87.645,245.291z"/>
<path style="fill:#212529;" d="M36.803,236.821c-0.14-0.464-0.73-0.598-1.079-0.263c-1.968,1.889-5.65,3.905-6.724,4.442
	c-0.748,0.374-1.355,1.053-1,2c0.499,1.33,5.937,9.791,7.506,11.211c0.957,0.866,1.811,1.342,3.361,1.6
	c2.199,0.367,8.811,1.124,11.306,1.455c0.346,0.046,0.671-0.183,0.736-0.526c0.009-0.05,0.018-0.1,0.027-0.151
	c0.197-1.194-0.493-2.355-1.608-2.825c-2.172-0.915-5.654-2.273-6.486-2.395c-1.136-0.167,0.158,0.631-1.536-2.071
	c-0.763-1.217,0.746-5.718,1.025-8.031c0.042-0.346-0.196-0.654-0.539-0.718C40.232,240.258,37.604,239.484,36.803,236.821z"/>
<path style="fill:#FFFFFF;" d="M76.603,172.391l-1.975-2.339l0.423-0.358l1.777,2.105c0.494-0.07,2.067-0.293,2.825-0.398
	c0.219-0.869,0.46-2.034,0.714-3.261c0.425-2.055,0.865-4.179,1.273-5.276l0.519,0.193c-0.394,1.057-0.829,3.161-1.25,5.195
	c-0.273,1.321-0.532,2.57-0.766,3.468l-0.047,0.179l-0.184,0.025c-0.764,0.105-3.159,0.444-3.159,0.444L76.603,172.391z"/>
<path style="fill:#BAC8FF;" d="M199.213,146.552c0.47,0.623,1.333,1.486,1.867,1.856c0.986-1.52,2.054-3.78,1.479-4.479
	C201.984,143.231,198.049,143.321,199.213,146.552z"/>
<path style="fill:#FFA8A8;" d="M209.263,234.845c-0.159,2.024,0.278,3.849,0.516,5.318c-1.468,1.508-3.77,2.374-4.127,0
	c0.794-1.627,0.714-3.85,0.516-5.556C207.437,233.337,208.588,234.25,209.263,234.845z"/>
<path style="fill:#FFFFFF;" d="M91.002,173.487l-0.114-0.07c-0.138-0.086-0.27-0.165-0.395-0.242
	c-1.056-0.641-1.754-1.064-3.066-2.992l-0.05-0.073l0.002-0.088c0.044-2.251-0.055-7.191-0.056-7.24l0.554-0.012
	c0.001,0.049,0.098,4.873,0.058,7.174c1.212,1.766,1.83,2.141,2.846,2.758c0.092,0.056,0.187,0.113,0.286,0.174
	c0.164-0.058,0.345-0.12,0.536-0.186c0.986-0.34,2.452-0.846,2.967-1.269c0.212-2.489,0.685-6.135,1.391-9.038l0.538,0.131
	c-0.708,2.916-1.18,6.593-1.386,9.063l-0.008,0.101l-0.072,0.072c-0.526,0.526-2.036,1.047-3.249,1.465
	c-0.239,0.083-0.462,0.159-0.655,0.229L91.002,173.487z"/>
<path style="fill:#FFA8A8;" d="M173.101,96.494c-0.73-0.592-1.797-1.35-2.458-0.36c-0.535,0.803-0.539,2.937,0.42,5.395
	c0.488,1.25,2.462,4.421,3.297,5.395c0.835,0.974,1.517,1.242,1.738,2.757c0.757,5.188,4.818,15.747,7.942,21.995
	c0.755,1.51,0.758,1.957,1.96,1.324c3.561-1.874,10.322-8.236,13.16-12.133c2.503-1.602,3.264-3.398,3.264-3.398l-6.107-3.604
	c-1.031,2.441-4.218,6.377-7.842,9.314c-0.851,0.689-1.64,0.245-2.124-1c-1.39-3.57-5.613-7.514-6.623-14.184
	c-0.177-1.168,0.743-1.876,0.92-3.327s-0.033-2.944,0.363-4.287c0.396-1.343-0.608-2.249-1.235-1.106
	c-0.437,0.798-0.697,2.175-0.851,3.033c-0.154,0.859-0.48,0.746-1.079-0.22C176.768,100.349,174.381,97.532,173.101,96.494z"/>
<path style="fill:#FFA8A8;" d="M224.185,225.995c0.365,1.614,1.702,3.636,3.081,5.073c0.726,0.756,0.039,5.385-0.715,6.61
	c-0.523,0.849-2.981-2.262-3.1-3.373c-0.119-1.111-1.488-5.294-2.202-6.365C222.2,225.4,223.55,225.479,224.185,225.995z"/>
<path style="fill:#5C7CFA;" d="M201.733,143.237c-2.41,5.744-6.076,14.563-6.417,21.282c-0.49,9.654,0.899,20.415,3.683,32.48
	c3.11,13.478,6.579,26.835,6.727,38.313l3.662-0.128c1.413-5.718,3.212-15.291,2.184-24.349c1.542,5.782,6.296,13.042,9.765,17.732
	c1.419-0.611,2.232-1.541,3.22-2.412c-4.648-11.679-4.706-21.149-9.529-29.4c4.009-9.296,8.694-19.139,9.529-31.492
	c0.581-8.599-2.575-17.438-3.999-20.365C218.061,145.363,204.765,141.204,201.733,143.237z"/>
<path style="fill:#281B51;" d="M226.676,107.818c-0.73,1.018-0.69,1.767-0.086,3.061c0.604,1.293,1.542,2.49,2.059,3.223
	c0.517,0.733,1.237,0.679,1.897,0c1.466-1.509,5.647-7.285,6.251-8.061c0.604-0.776,0.776-1.767,0.604-2.63
	c-0.172-0.862-0.68-2.619-1.111-3.524c-0.431-0.905-1.595-1.681-2.198-1.078C233.487,99.412,228.098,105.835,226.676,107.818z"/>
<path style="fill:#4C6EF5;" d="M215.03,196.755c-0.505,1.689-1.48,5.414,0.469,9.826c1.32,2.989,4.084,6.873,6.311,11.293
	C219.59,209.863,218.659,202.963,215.03,196.755z"/>
<linearGradient id="SVGID_7_" gradientUnits="userSpaceOnUse" x1="215.2166" y1="196.6909" x2="215.055" y2="196.388">
	<stop  offset="0" style="stop-color:#355C84"/>
	<stop  offset="1" style="stop-color:#4775B1"/>
</linearGradient>
<path style="fill:url(#SVGID_7_);" d="M215.03,196.755c0.066-0.152,0.132-0.305,0.198-0.457
	C215.159,196.397,215.093,196.542,215.03,196.755z"/>
<linearGradient id="SVGID_8_" gradientUnits="userSpaceOnUse" x1="239.0426" y1="249.2153" x2="168.6859" y2="249.2153">
	<stop  offset="0" style="stop-color:#FBEBF1"/>
	<stop  offset="1" style="stop-color:#FF7289"/>
</linearGradient>
<path style="fill:url(#SVGID_8_);" d="M230.448,246.894c-10.563-1.246-12.46-10.205-22.161-5.368
	c-9.701,4.837-17.886,5.212-25.937,2.872c-8.051-2.341-20.353,7.943-9.205,10.565c11.148,2.623,13.881-8.132,29.087-1.032
	c15.206,7.1,25.625,3.465,25.625,3.465S251.197,249.341,230.448,246.894z"/>
<path style="fill:#DBE4FF;" d="M202.519,112.008c-3.009,2.585-4.835,4.747-4.705,7.884c0.085,2.034,1.06,3.688,2.162,7.629
	c1.102,3.942,2.122,6.086,1.95,9.24c-0.127,2.331-1.229,5.341-2.246,6.655c-1.017,1.314-1.06,2.246-0.466,3.136
	c-0.568-1.985,1.95-2.585,4.493-1.992c2.543,0.593,8.735,3.052,14.496,3.264c4.336,0.16,3.755-1.685,3.466-2.609
	c-0.396-1.266-2.406-4.978-3.254-6.377c-0.848-1.399-1.187-4.154-0.042-6.782s2.289-5.552,2.543-7.375
	c-0.127-3.179-4.493-12.588-4.493-12.588S205.359,111.584,202.519,112.008z"/>
<path style="fill:#FF8787;" d="M198.052,121.469c-1.337-1.893-2.881-3.264-3.931-4.077c-0.46,0.598-0.968,1.211-1.517,1.827
	c1.36,1.185,1.969,4.845,1.067,7.833c1.737-1.691,3.399-3.511,4.685-5.132C198.262,121.775,198.163,121.625,198.052,121.469z"/>
<path style="fill:#BAC8FF;" d="M218.413,138.838c-0.848-1.399-1.187-4.154-0.042-6.782c1.144-2.628,2.289-5.552,2.543-7.375
	c-0.067-1.684-1.324-5.115-2.49-7.97c-0.983-0.932-1.871-1.52-2.621-0.879c0.024,2.838-1.722,7.326,0.194,10.649
	c1.916,3.323,0.522,4.805-0.187,8.677c-0.608,3.316,4.245,9.276,4.053,12.608c2.503-0.326,2.049-1.769,1.805-2.552
	C221.272,143.949,219.261,140.237,218.413,138.838z"/>
<path style="fill:#FFA8A8;" d="M217.211,122.826c0.762,3.763,3.088,10.023,5.866,13.831c0.734,1.006,2.075,0.539,2.658-0.409
	c1.949-3.171,5.243-14.562,6.034-19.234c0.276-1.627,0.45-1.737,1.529-3.322c1.687-2.478,1.278-4.242,0.017-8.535
	c-0.449-1.531-1.635-2.351-3.203-1.908c-1.016,0.287-1.601,1.116-1.601,3.612c0,1.806,0.375,3.237-0.409,5.349
	c-0.784,2.112-0.359,1.504-0.681,4.6c-0.17,1.635-1.571,5.564-2.695,7.472c-0.389-1.361-0.882-3.554-0.882-4.746
	C221.697,119.706,217.733,121.006,217.211,122.826z"/>
<path style="fill:#FF8787;" d="M223.843,119.536c-2.146,0.17-6.11,1.47-6.632,3.29c0.146,0.719,0.349,1.53,0.601,2.397
	c1.751-2.851,4.393,0.658,4.67,4.619c0.442-1.502,1.443-4.153,2.243-5.561C224.337,122.921,223.843,120.728,223.843,119.536z"/>
<path style="fill:#DBE4FF;" d="M205.846,107.211c-2.11,0.207-4.73,0.346-7.311,2.634c-2.298,2.038-4.479,5.21-5.648,7.936
	c1.365,0.29,3.747,3.781,4.284,5.891c1.076-0.414,3.992-3.846,3.992-3.846l12.134-1.298c0,0,2.854-5.833,2.482-3.516
	c-0.372,2.317,0.414,5.75,1.034,7.901c1.282,0.124,6.797-1.425,7.748-3.163c-0.621-3.392-1.887-7.65-3.79-9.429
	c-1.903-1.779-4.873-3.351-6.486-3.723C212.59,107.757,207.997,109.28,205.846,107.211z"/>
<path style="fill:#212529;" d="M226.068,229.592c1.229,1.585,2.574,2.846,3.509,3.884c0.582,0.647,0.543,1.391-0.04,2.424
	c-1.973,3.493-6.279,8.988-10.448,12.809c-0.776,0.712-2.458-0.809-2.038-2.2c0.593-1.961,6.445-8.887,5.83-13.674
	C224.873,232.807,226.125,230.815,226.068,229.592z"/>
<path style="fill:#212529;" d="M209.708,239.607c0.427,1.138,0.967,2.618,1.423,3.642s0.711,1.906-0.114,2.39
	c-0.825,0.484-5.378,1.679-7.483,2.191c-2.106,0.512-4.51,1.09-6.174,0.341c-1.138-0.512-1.77-1.402-0.74-1.736
	c2.02-0.654,7.455-2.675,8.963-6.601C206.436,240.517,207.659,240.404,209.708,239.607z"/>
<g>
	<linearGradient id="SVGID_9_" gradientUnits="userSpaceOnUse" x1="68.2403" y1="131.7733" x2="58.3964" y2="139.5033">
		<stop  offset="0" style="stop-color:#157B8D"/>
		<stop  offset="1" style="stop-color:#209A9F"/>
	</linearGradient>
	<path style="fill:url(#SVGID_9_);" d="M66.539,124.425c-0.872,9.149-3.303,13.821-6.764,13.067c2.372,1.524,5.662,3.06,7.683,3.579
		C66.447,135.03,66.498,129.967,66.539,124.425z"/>
</g>
<linearGradient id="SVGID_10_" gradientUnits="userSpaceOnUse" x1="106.7832" y1="121.5331" x2="99.4097" y2="147.2868">
	<stop  offset="0" style="stop-color:#157B8D"/>
	<stop  offset="1" style="stop-color:#209A9F"/>
</linearGradient>
<path style="fill:url(#SVGID_10_);" d="M102.317,137.769c-1.623,6.849,1.872,10.926,1.701,14.972
	c2.691-7.055,4.803-17.214,2.733-26.842c-1.181-2.166-4.016-6.544-4.95-9.236C103.237,125.456,104.07,130.374,102.317,137.769z"/>
<path style="fill:#4C6EF5;" d="M101.986,103.77c-3.373,0.822-10.025,3.572-13.323,5.206c-3.932,1.949-7.005,5.147-12.682,2.968
	c-1.771-0.68-5.448-5.563,2.295-10.365c-1.473,0.724-2.222,1.08-3.958,1.987c-2.301,1.445-2.462,3.639-1.819,5.619
	c0.642,1.98,2.301,4.977,7.492,4.656c5.191-0.321,10.275-3.532,13.806-4.977C96.983,107.56,100.337,104.481,101.986,103.77z"/>
<linearGradient id="SVGID_11_" gradientUnits="userSpaceOnUse" x1="65.2426" y1="161.3422" x2="81.3472" y2="148.8777">
	<stop  offset="0" style="stop-color:#6EC5BC"/>
	<stop  offset="1" style="stop-color:#209A9F"/>
</linearGradient>
<path style="fill:url(#SVGID_11_);" d="M68.013,139.368c1.143,8.201,4.534,14.639,8.034,17.585
	c3.747,1.318,13.408,1.705,20.347,0.109C86.679,156.577,74.397,159.769,68.013,139.368z"/>
<path style="fill:#BAC8FF;" d="M201.585,138.938c2.014-3.927-1.268-12.83-2.354-17.133c-0.656-2.599-0.465-5.491,0.993-7.622
	c-1.604,1.745-2.502,3.481-2.409,5.709c0.085,2.034,1.06,3.688,2.162,7.629c1.102,3.942,2.122,6.086,1.95,9.24
	C201.888,137.448,201.764,138.194,201.585,138.938z"/>
<path style="fill:#BAC8FF;" d="M205.846,107.211c-2.11,0.207-4.953,0.287-7.533,2.575c-2.298,2.038-4.256,5.269-5.425,7.995
	c0.34,0.072,0.743,0.343,1.164,0.741c1.545-3.667,2.896-5.586,4.636-7.491c1.756-1.923,4.62-2.968,7.588-3.474
	C206.123,107.455,205.98,107.34,205.846,107.211z"/>
<linearGradient id="SVGID_12_" gradientUnits="userSpaceOnUse" x1="227.0196" y1="118.9544" x2="235.5897" y2="136.9796">
	<stop  offset="0" style="stop-color:#FBBEB9"/>
	<stop  offset="1" style="stop-color:#F99E96"/>
</linearGradient>
<path style="fill:url(#SVGID_12_);" d="M233.298,113.793c1.297-1.905,1.352-3.392,0.737-5.926c-0.007,1.322-0.399,2.443-0.951,3.312
	c-1.101,1.735-1.751,3.01-2.385,7.815c-0.634,4.805-3.854,12.139-4.455,13.941c-0.425,1.274-1.822,4.487-2.923,4.082
	c0.757,0.641,1.891,0.182,2.414-0.669c1.949-3.171,5.243-14.562,6.034-19.234C232.044,115.488,232.219,115.377,233.298,113.793z"/>
<linearGradient id="SVGID_13_" gradientUnits="userSpaceOnUse" x1="178.8428" y1="106.7439" x2="182.0405" y2="106.7439">
	<stop  offset="0" style="stop-color:#FBBEB9"/>
	<stop  offset="1" style="stop-color:#F99E96"/>
</linearGradient>
<path style="fill:url(#SVGID_13_);" d="M179.728,107.995c-0.177-1.168,0.743-1.876,0.92-3.327c0.177-1.451-0.033-2.944,0.363-4.287
	c0.377-1.278-0.514-2.156-1.141-1.254c0.943,0.324,0.431,1.844,0.179,3.404c-0.277,1.716-1.356,2.85-1.19,5.203
	c0.129,1.827,1.231,4.092,3.18,6.995C181.019,112.809,180.125,110.615,179.728,107.995z"/>
<linearGradient id="SVGID_14_" gradientUnits="userSpaceOnUse" x1="173.3318" y1="102.3417" x2="177.3932" y2="94.4364">
	<stop  offset="0" style="stop-color:#FBBEB9"/>
	<stop  offset="1" style="stop-color:#F99E96"/>
</linearGradient>
<path style="fill:url(#SVGID_14_);" d="M176.475,103.375c1.432,1.981,2.062,0.908,2.089-0.492c-0.177-0.032-0.411-0.301-0.718-0.795
	c-1.079-1.739-3.466-4.557-4.746-5.594c-0.73-0.592-1.797-1.35-2.457-0.36c-0.21,0.315-0.336,0.836-0.357,1.499
	C171.471,97.11,174.732,100.964,176.475,103.375z"/>
<path style="fill:#DBE4FF;" d="M202.721,129.837c2.222,4.676-0.555,12.289-1.861,13.741c4.375-1.567,7.849,2.534,15.33,2.765
	c-3.332-0.875-7.914-3.862-7.665-11.33C208.725,129.014,206.663,123.869,202.721,129.837z"/>
<path style="fill:#BAC8FF;" d="M219.536,122.437c2.021-0.574,4.427-1.593,5.026-2.686c-0.621-3.392-1.887-7.65-3.79-9.429
	c-1.903-1.779-4.873-3.351-6.486-3.723c-0.477,0.326-1.187,0.678-2.003,0.973c4.339,1.194,7.261,2.744,7.752,5.692
	C220.471,115.876,221.714,120.497,219.536,122.437z"/>
<path style="fill:#212529;" d="M216.098,89.841c-0.41-1.115-0.265-4.288,3.247-4.794c2.776-0.4,3.891,1.827,4.108,3.177
	c0.26,1.618-0.482,3.628-0.709,4.449c-0.227,0.821-0.495,1.395,1.145,2.567c1.64,1.173,3.176,1.803,3.259,3.043
	c0.13,1.954-2.168,2.84-1.953,4.798c0.178,1.623,2.366,1.987,2.44,4.099c0.036,1.026-0.365,2.524-2.392,3.297
	c-1.261,0.481-4.387,0.442-4.581-2.724c-0.194-3.165,1.054-4.33,0.928-5.399c-0.189-1.604-1.803,0.049-2.211-2.373
	c-0.257-1.523,1.445-3.15,1.194-5.484c-0.163-1.511-0.703-1.794-2.114-2.047C217.813,91.418,216.688,90.191,216.098,89.841z"/>
<path style="fill:#212529;" d="M226.592,102.204c-0.726,0.197-0.586,1.941,0.622,1.739
	C228.423,103.742,227.673,101.911,226.592,102.204z"/>
<g>
	<path style="fill:#495057;" d="M227.149,98.284c-0.073-1.098-1.286-1.718-2.701-2.66c0.273,0.261,0.542,0.59,0.798,1.044
		c1.296,2.3-2.026,5.607,0.559,7.635c0,0,0,0,0,0c-0.312-0.347-0.555-0.725-0.609-1.221
		C224.981,101.124,227.279,100.238,227.149,98.284z"/>
	<path style="fill:#495057;" d="M222.745,92.674c0.227-0.821,0.969-2.831,0.709-4.449c-0.217-1.351-1.332-3.577-4.108-3.177
		c-0.742,0.107-1.333,0.334-1.801,0.635c1.398-0.615,2.909,0.283,3.418,1.6c0.606,1.567,0.327,2.628,0.716,4.769
		c0.306,1.686,0.93,2.293,1.672,2.768C222.318,93.918,222.547,93.389,222.745,92.674z"/>
</g>
<path style="fill:#495057;" d="M221.575,95.624c-0.629,1.734-1.45,3.16-1.233,4.03c0.218,0.87,2.207,0.87,2.143,1.668
	C223.292,98.759,220.294,98.773,221.575,95.624z"/>
<path style="fill:#FFA8A8;" d="M208.71,105.315c0.896,0.47,0.441,2.257-0.46,2.651c0.314,1.479,4.462,1.828,4.206-0.305
	c-0.611-0.53-1.082-1.945-0.174-2.981c0.9-1.027,1.957-1.14,2.203-4.299c0.582-1.815-0.45-1.788-0.45-1.788
	S209.562,103.679,208.71,105.315z"/>
<path style="fill:#FF8787;" d="M209.187,106.132c0.549,0.646,1.768-0.359,2.858-1.504c1.025-1.077-1.662-0.445-2.815-0.138
	c-0.225,0.323-0.405,0.605-0.52,0.824C209.011,105.473,209.157,105.78,209.187,106.132z"/>
<path style="fill:#FFA8A8;" d="M206.305,95.006c-0.572,2.16-0.151,6.694,0.965,9.046c0.333,0.702,0.921,1.634,2.296,1.196
	c1.635-0.52,4.616-0.989,4.948-2.982c0.635-2.033-0.198-2.553,0.501-3.294c0.699-0.741,1.842-2.244,1.016-3.218
	c-0.826-0.974-4.891-3.557-4.891-3.557S207.109,92.317,206.305,95.006z"/>
<path style="fill:#212529;" d="M207.074,90.778c-1.299,0.884-1.567,2.287-1.567,3.388c0,1.101,0.199,1.875,1.467,1.966
	c1.982,0.143,2.402-1.463,3.799-1.424c1.075,0.03,1.748,0.986,1.975,1.639c0.414,1.191,0.816,1.189,0.939,0.432
	c0.113-0.695,0.755-1.067,1.327-0.792c0.572,0.275,0.605,1.392,0.344,2.237c-0.212,0.689-0.673,1.106-0.88,1.278
	c-0.206,0.172-0.391,0.282-0.202,0.884c0.189,0.602-0.269,2.073-0.479,2.704c-0.225,0.676,0.581,0.533,1.183,0
	c0.602-0.533,2.421-2.829,2.221-5.815c-0.138-2.047-0.034-3.182-0.12-4.059c-0.086-0.877-1.221-2.7-1.789-2.305
	c-0.568,0.396-0.889,0.216-1.617-0.206C212.118,89.802,209.427,89.175,207.074,90.778z"/>
<path style="fill:#FF6F6D;" d="M214.1,90.942c0.737,0.405,3.284,2.155,3.031,4.393c-0.017-1.423,0.291-2.571,1.32-2.879
	c0.274-1.474-0.771-3.017-2.365-2.605C215.605,90.45,214.922,91.268,214.1,90.942z"/>
<path style="fill:#FFFFFF;" d="M207.691,101.846c0.606,0.321,2.173,0.245,2.829-0.068
	C210.163,103.238,207.862,103.869,207.691,101.846z"/>
<path style="fill:#495057;" d="M214.086,90.936c-0.123-0.064-0.257-0.141-0.41-0.23c-1.557-0.903-4.248-1.531-6.601,0.072
	c-1.299,0.884-1.567,2.287-1.567,3.388c0,1.101,0.889,1.821,1.99,1.186c0.142-0.082,0.276-0.169,0.407-0.259
	c-1.202,0.207-1.363-0.685-0.786-2.532C207.806,90.354,211.337,89.621,214.086,90.936z"/>
<path style="fill:#4C6EF5;" d="M209.23,161.486c-2.026,3.322-3.077,18.574-3.158,24.165c-0.081,5.591,1.816,16.367,3.706,21.958
	c0.742,2.196,1.37,3.939,1.998,5.572c-0.049-0.784-0.115-1.567-0.203-2.346c-1.988-7.875-4.165-14.94-4.165-23.264
	C207.408,180.392,207.934,169.994,209.23,161.486z"/>
<path style="fill:#89A2F9;" d="M74.69,105.664c2.232-2.846,6.565-5.595,10.641-6.145c4.075-0.55,14.877,2.652,11.287,2.717
	c-3.59,0.065-8.732-2.587-11.708,1.52C81.935,107.864,79.283,102.398,74.69,105.664z"/>
<linearGradient id="SVGID_15_" gradientUnits="userSpaceOnUse" x1="215.2213" y1="101.9271" x2="307.4159" y2="194.1217">
	<stop  offset="0.0031" style="stop-color:#FF7289"/>
	<stop  offset="1" style="stop-color:#FBC8C7"/>
</linearGradient>
<rect x="259.368" y="57.78" style="fill:url(#SVGID_15_);stroke:#412E7C;stroke-width:0.75;stroke-miterlimit:10;" width="3.901" height="180.488"/>
<path style="fill:#495057;" d="M100.949,78.978c-0.177-1.388-1.432-1.581-2.138-2.721c-0.248-0.401-0.542-0.616-0.879-0.716
	c0.478,0.321,0.801,1.252,1.272,1.923c1.05,1.494,0.262,2.484-0.424,3.251c-0.643,0.72-0.041,3.65-0.358,4.602
	c0.127-0.011,0.27-0.018,0.431-0.032c0.676-0.059,0.85-2.492,1.44-3.146C100.866,81.504,101.116,80.282,100.949,78.978z"/>
<path style="fill:#412E7C;" d="M96.313,244.178c1.75-3.459,12.191-25.644,13.916-29.093c0.263-0.526,0.515-1.02,0.755-1.495
	c-3.434,3.781-7.938,7.286-11.785,15.508c-2.814,6.015-4.883,10.722-6.265,14.226C94.28,243.794,95.571,244.151,96.313,244.178z"/>
<path style="fill:#412E7C;" d="M66.101,197.807c-0.495,1.437-1.006,2.343-1.945,3.925c-1.114,1.877-12.786,17.177-22.003,27.588
	c4.359-3.33,9.224-6.321,12.828-9.343C61.34,214.643,63.904,207.259,66.101,197.807L66.101,197.807z"/>
<linearGradient id="SVGID_16_" gradientUnits="userSpaceOnUse" x1="126.8709" y1="147.5315" x2="131.3916" y2="132.9822">
	<stop  offset="0" style="stop-color:#157B8D"/>
	<stop  offset="1" style="stop-color:#209A9F"/>
</linearGradient>
<path style="fill:url(#SVGID_16_);" d="M126.589,142.193c-4.195,0.581-6.922-1.278-10.335-4.149c1.262,1.201,2.53,2.255,3.727,3.028
	c3.16,2.039,4.226,2.504,5.865,2.622c4.53,0.328,13.5-0.636,16.06-0.898C140.306,138.693,132.007,141.443,126.589,142.193z"/>
<linearGradient id="SVGID_17_" gradientUnits="userSpaceOnUse" x1="146.0571" y1="131.7507" x2="148.1913" y2="143.1329">
	<stop  offset="0" style="stop-color:#FBBEB9"/>
	<stop  offset="1" style="stop-color:#F99E96"/>
</linearGradient>
<path style="fill:url(#SVGID_17_);" d="M148.975,133.275c-0.102,3.022-2.431,7.248-5.47,9.335c0.187,0.032,0.386,0.067,0.605,0.104
	c1.326,0.226,3.535-0.675,4.926-1.507c0.396-0.333,0.762-0.681,1.1-1.037c0.638-1.211,0.794-5.386,0.794-6.565
	C150.93,131.883,150.207,133.171,148.975,133.275z"/>
<linearGradient id="SVGID_18_" gradientUnits="userSpaceOnUse" x1="202.8296" y1="259.1224" x2="226.4581" y2="259.1224">
	<stop  offset="0" style="stop-color:#FBEBF1"/>
	<stop  offset="1" style="stop-color:#FF7289"/>
</linearGradient>
<path style="fill:url(#SVGID_18_);" d="M203.119,257.679c7.196,3.147,14.985,4.43,22.809,3.694c0.704-0.066,0.711-1.175,0-1.108
	c-7.614,0.716-15.239-0.477-22.25-3.542C203.031,256.439,202.467,257.393,203.119,257.679L203.119,257.679z"/>
<g>
	<path style="fill:#FF6F6D;" d="M276.637,237.745c-1.652-4.054-5.17-7.116-8.754-9.38c-3.584-2.263-11.152-6.085-15.397-10.878
		c-2.215-2.502-3.582-5.966-1.918-9.639c1.911-4.218,11.115-5.068,19.769,5.421c9.592,11.624,10.365,22.553,9.789,25.944
		C279.102,238.189,277.819,236.853,276.637,237.745z"/>
	<linearGradient id="SVGID_19_" gradientUnits="userSpaceOnUse" x1="261.0976" y1="221.8392" x2="278.3521" y2="221.1203">
		<stop  offset="0" style="stop-color:#FF6F6D"/>
		<stop  offset="1" style="stop-color:#F04844"/>
	</linearGradient>
	<path style="fill:url(#SVGID_19_);" d="M273.015,225.963c0.286,4.766,3.121,8.851,7.245,10.702
		c-0.13-4.829-2.069-13.878-9.923-23.396c-2.942-3.566-5.947-5.818-8.708-7.076C265.784,212.821,272.747,221.49,273.015,225.963z"/>
	<path style="fill:#FFFFFF;" d="M275.074,227.89c-7.795-11.644-17.033-16.104-19.678-17.193l0.221-0.537
		c2.684,1.105,12.054,5.627,19.94,17.407L275.074,227.89z"/>
	<linearGradient id="SVGID_20_" gradientUnits="userSpaceOnUse" x1="303.0196" y1="220.0525" x2="250.7485" y2="186.7269">
		<stop  offset="0" style="stop-color:#209A9F"/>
		<stop  offset="1" style="stop-color:#46CFBC"/>
	</linearGradient>
	<path style="fill:url(#SVGID_20_);" d="M278.014,237.489c0.225-4.43,0.151-8.637-2.502-10.964
		c-2.814-2.468-6.674-3.968-7.552-7.848c-0.592-2.616,1.197-5.846,1.481-7.453c0.296-1.678,0.543-3.554-0.592-3.998
		c-1.135-0.444-1.53-1.58-1.728-3.208c-0.197-1.629-0.081-4.314,0.995-7.543c0.355-1.064,0.985-2.601,0.394-3.665
		s-1.222-1.3-1.222-3.349c0-2.049-0.544-4.514,0.36-7.407c0.394-1.261,1.423-2.311,0.822-3.942c-0.549-1.49-1.883-4.575-1.379-8.708
		c0.197-1.616,1.583-3.403,3.987-2.694c2.404,0.709,5.549,3.324,6.849,4.782c1.3,1.458,2.638,3.126,3.663,4.071
		c1.025,0.946,1.578,1.913,2.918,3.731c1.103,1.497,1.489,3.98,1.458,6.147c-0.039,2.719-0.433,5.201,0.749,6.147
		c1.182,0.946,4.374,2.404,3.625,9.654c-0.11,5.954-2.048,29.663-4.058,36.05C284.057,237.004,279.292,236.969,278.014,237.489z"/>
	<linearGradient id="SVGID_21_" gradientUnits="userSpaceOnUse" x1="294.9477" y1="235.1431" x2="272.6689" y2="194.0526">
		<stop  offset="0" style="stop-color:#1A8894"/>
		<stop  offset="0.4708" style="stop-color:#209A9E"/>
		<stop  offset="1" style="stop-color:#36B5AE"/>
	</linearGradient>
	<path style="fill:url(#SVGID_21_);" d="M286.715,191.587c-0.462-0.369-0.681-0.975-0.777-1.735
		c-4.239,7.999-3.418,11.455-2.1,16.855c1.228,5.033-0.908,23.743-4.367,30.498c1.98-0.204,5.125-0.132,6.811,0.086
		c0.233-0.741,0.465-1.718,0.694-2.871l1.656-11.616c0.959-8.589,1.644-18.092,1.708-21.563
		C291.089,193.99,287.897,192.532,286.715,191.587z"/>
	<path style="fill:#FFEFC9;" d="M284.481,237.068c-2.851-19.171,4.156-35.92,13.66-53.344c1.808-3.315,4.483-8.002,6.216-7.399
		c1.733,0.603,0.458,6.217-0.115,9.01c-5.726,27.874-9.775,43.571-15.078,55.218C288.421,239.278,285.293,237.031,284.481,237.068z"
		/>
	<path style="fill:#FFD86F;" d="M292.481,211.68c-3.856,6.33-4.664,20.068-2.218,26.053c0.133-0.217,0.264-0.435,0.395-0.653
		c4.319-10.606,7.938-24.696,12.647-47.224C300.237,200.39,296.336,205.351,292.481,211.68z"/>
	<linearGradient id="SVGID_22_" gradientUnits="userSpaceOnUse" x1="315.9754" y1="225.6885" x2="284.9291" y2="203.2344">
		<stop  offset="0" style="stop-color:#209A9F"/>
		<stop  offset="1" style="stop-color:#46CFBC"/>
	</linearGradient>
	<path style="fill:url(#SVGID_22_);" d="M293.852,237.078c0.843-4.676,2.759-7.972,6.592-9.505
		c3.833-1.533,9.858-1.222,12.418-4.676c2.801-3.779-2.496-5.9-1.262-7.931c1.384-2.277,7.004-1.996,10.267-7.857
		c2.411-4.33,0.011-9.005-4.241-10.401c-5.848-1.92-10.628,0.478-12.678,3.259c-1.25,1.696-0.582,3.079-1.518,4.285
		c-1.384,1.786-5.178,2.143-7.455,2.053c-2.277-0.089-3.973,0.491-4.598,1.875s0.491,2.321,2.366,3.214
		c1.875,0.893,3.42,2.127,2.946,4.062c-0.536,2.187-2.675,2.846-4.821,4.91c-2.366,2.277-4.241,4.464-4.598,8.705
		c-0.357,4.241,1.786,7.008,2.991,8.66C291.914,236.84,292.933,236.646,293.852,237.078z"/>
	<polygon style="fill:#FBE0CC;" points="295.868,235.727 270.966,235.727 274.589,258.872 292.244,258.872 	"/>
	<path style="fill:#8F7C6C;" d="M287.619,237.733l-16.043-0.442l0.049,2.649c8.216,1.281,18.208,3.446,22.319,8.071l1.773-11.326
		C293.591,236.386,290.58,238.034,287.619,237.733z"/>
	<rect x="270.037" y="235.727" style="fill:#C7AC97;" width="26.648" height="3.972"/>
	<path style="fill:#FFFFFF;" d="M291.788,231.702l-0.574-0.091c0.462-2.914,2.869-6.486,7.362-10.921c1.907-1.882,3.41-4.2,5-6.654
		c2.982-4.6,6.362-9.813,13.492-13.858l0.287,0.505c-7.007,3.975-10.346,9.125-13.291,13.668c-1.608,2.481-3.128,4.825-5.079,6.752
		C294.583,225.449,292.23,228.916,291.788,231.702z"/>
	<path style="fill:#FFFFFF;" d="M281.551,227.735l-0.581-0.014c0.027-1.116-0.101-2.622-0.278-4.707
		c-0.301-3.551-0.755-8.918-0.749-16.606c0.01-12.454-3.576-25.848-9.592-35.826l0.498-0.3c6.068,10.066,9.685,23.571,9.675,36.127
		c-0.006,7.663,0.447,13.015,0.747,16.556C281.449,225.069,281.578,226.588,281.551,227.735z"/>
	<g>
		<linearGradient id="SVGID_23_" gradientUnits="userSpaceOnUse" x1="316.0457" y1="224.2604" x2="301.611" y2="194.4743">
			<stop  offset="0" style="stop-color:#2FAFAA"/>
			<stop  offset="0.5071" style="stop-color:#46CFBC"/>
			<stop  offset="1" style="stop-color:#83DDD0"/>
		</linearGradient>
		<path style="fill:url(#SVGID_23_);" d="M317.627,196.709c-5.848-1.92-10.628,0.478-12.678,3.259
			c-1.25,1.696-0.582,3.079-1.518,4.285c-1.384,1.786-5.178,2.143-7.455,2.053c-2.277-0.089-3.973,0.491-4.598,1.875
			c-0.625,1.384,0.491,2.321,2.366,3.214c1.325,0.631,2.482,1.434,2.881,2.533c-0.381-7.122,4.742-5.575,6.466-7.75
			c3.401-4.292,6.88-6.001,10.264-6.429c3.073-0.388,7.927,0.628,9.43,4.546C323.155,200.915,320.961,197.803,317.627,196.709z"/>
		<linearGradient id="SVGID_24_" gradientUnits="userSpaceOnUse" x1="295.0657" y1="234.4277" x2="280.6309" y2="204.6416">
			<stop  offset="0" style="stop-color:#2FAFAA"/>
			<stop  offset="0.5071" style="stop-color:#46CFBC"/>
			<stop  offset="1" style="stop-color:#83DDD0"/>
		</linearGradient>
		<path style="fill:url(#SVGID_24_);" d="M294.199,218.482c-0.719,0.534-1.524,1.111-2.33,1.886
			c-2.366,2.277-4.241,4.464-4.598,8.705c-0.209,2.488,0.443,4.465,1.26,6.011C288.062,229,291.493,223.174,294.199,218.482z"/>
	</g>
	<path style="fill:#FDF0E5;" d="M273.279,241.382l2.53,15.734h14.907C290.716,257.116,278.207,255.465,273.279,241.382z"/>
</g>
<path style="fill:#FCFFFC;" d="M84.732,32.066c5.331-0.867,11.025,0.857,14.944,4.583c1.255,1.143,2.057,2.664,3.117,3.967
	c1.13,0.128,2.179-0.469,3.267-0.671c3.678-0.841,7.687,0.453,10.431,2.985c1.438,1.281,2.195,3.085,3.065,4.76
	c1.826-0.218,3.71-0.578,5.514-0.006c3.088,0.7,5.886,3.398,6.929,6.357c0,0-49.814-0.024-73.524-0.063
	c-0.7-1.717-0.517-3.637-0.16-5.412c1.091-4.173,4.798-7.373,8.926-8.374c1.743-0.52,3.569-0.449,5.36-0.562
	c0.761-0.645,1.284-1.512,1.955-2.24C77.163,34.467,80.873,32.618,84.732,32.066"/>
<path style="fill:#FCFFFC;" d="M240.048,16.418c-4.179-0.679-8.641,0.672-11.713,3.592c-0.984,0.896-1.613,2.088-2.443,3.109
	c-0.886,0.101-1.708-0.367-2.561-0.526c-2.883-0.659-6.025,0.355-8.176,2.34c-1.127,1.004-1.721,2.418-2.402,3.731
	c-1.431-0.171-2.908-0.453-4.322-0.005c-2.42,0.548-4.613,2.663-5.431,4.982c0,0,39.043-0.019,57.627-0.049
	c0.548-1.346,0.405-2.85,0.126-4.241c-0.855-3.27-3.761-5.779-6.996-6.563c-1.366-0.408-2.797-0.352-4.201-0.44
	c-0.596-0.506-1.006-1.185-1.532-1.756C245.98,18.3,243.072,16.851,240.048,16.418"/>
<path style="fill:#FCFFFC;" d="M37.892,149.11c2.652-0.431,5.485,0.426,7.434,2.28c0.624,0.568,1.024,1.325,1.55,1.974
	c0.562,0.064,1.084-0.233,1.625-0.334c1.83-0.418,3.824,0.225,5.189,1.485c0.715,0.637,1.092,1.534,1.525,2.368
	c0.909-0.109,1.846-0.287,2.743-0.003c1.536,0.348,2.928,1.69,3.447,3.162c0,0-24.781-0.012-36.576-0.031
	c-0.348-0.854-0.257-1.809-0.08-2.692c0.543-2.076,2.387-3.668,4.44-4.166c0.867-0.259,1.776-0.224,2.667-0.279
	c0.378-0.321,0.639-0.752,0.972-1.115C34.127,150.304,35.972,149.384,37.892,149.11"/>
<g>
	<g>
		<path style="fill:#F59F00;" d="M142,117.113l-5.815-0.837c-1.106-0.159-2.003,0.516-2.003,1.508l0.007,4.566
			c0.083,0.925,0.944,1.65,1.996,1.65c1.051,0,1.913-0.676,1.996-1.532l0.001-0.732l2.983,0.131l0.834,0.037v-0.643v-1.43v-0.643
			v-1.453V117.113L142,117.113z M136.185,119.018c-0.644-0.06-1.168-0.571-1.168-1.141c0-0.569,0.524-0.964,1.168-0.88l4.98,0.65
			v1.455l-1.884-0.19v0.68l1.884,0.164v1.455l-2.982-0.171l0.005-2.806c0-0.001,0-0.003,0-0.004c0-0.002,0-0.003,0-0.005l0-0.066
			l-0.834-0.094v0.055c0,0,0,0-0.001,0c0,0.005,0.001,0.011,0.001,0.016C137.354,118.683,136.83,119.078,136.185,119.018
			L136.185,119.018z M136.185,119.739c0.436,0.035,0.839-0.052,1.168-0.226v1.418l-0.003,1.282c0.041,0.568-0.466,1.061-1.137,1.066
			c-0.009,0-0.019,0-0.028,0c-0.644-0.009-1.168-0.479-1.168-1.048c0-0.383,0-1.565,0-1.643v-1.274
			C135.346,119.55,135.749,119.704,136.185,119.739L136.185,119.739z"/>
	</g>
</g>
</svg>
