<?xml version="1.0" encoding="utf-8"?>
<!-- Generator: Adobe Illustrator 24.0.0, SVG Export Plug-In . SVG Version: 6.00 Build 0)  -->
<svg version="1.1" id="Layer_1" xmlns="http://www.w3.org/2000/svg" xmlns:xlink="http://www.w3.org/1999/xlink" x="0px" y="0px"
	 viewBox="0 0 339 279" style="enable-background:new 0 0 339 279;" xml:space="preserve">
<path style="fill:#FBBEB9;" d="M269.653,252.225c-1.227-1.827-0.415-5.057-0.824-7.586l-9.628-0.543c0,0,2.156,5.161,1.12,6.793
	c-0.451,0.712-9.084,4.875-9.21,5.851c-0.21,1.627,16.631,1.647,19.436,0.081C272.014,256.003,270.998,254.227,269.653,252.225z"/>
<path style="fill:#212529;" d="M272.029,259h-28.487c0,0-0.789-3.566,5.872-4.84c3.208-0.613,21.128-2.16,21.128-2.16L272.029,259z"
	/>
<linearGradient id="SVGID_1_" gradientUnits="userSpaceOnUse" x1="32" y1="139.5" x2="311" y2="139.5">
	<stop  offset="0" style="stop-color:#FBEBF1"/>
	<stop  offset="1" style="stop-color:#FDD3D1"/>
</linearGradient>
<circle id="SVGID_4_" style="fill:url(#SVGID_1_);" cx="171.5" cy="139.5" r="139.5"/>
<path style="fill:#FFFFFF;" d="M81.033,95.414c0.892,4.182,3.411,8.115,7.582,9.613c3.786,1.36,8.166,0.325,10.41-3.154
	c1.556-2.413,2.038-7.507-1.592-8.458c-1.31-0.343-2.635,0.369-3.239,1.55c-0.793,1.552-0.163,3.19,0.863,4.447
	c0.451,0.552,1.231-0.235,0.783-0.783c-0.613-0.751-1.124-1.811-0.806-2.812c0.436-1.369,2.004-1.7,3.007-0.791
	c1.094,0.991,1.272,2.709,0.969,4.07c-0.576,2.592-2.698,4.625-5.256,5.234c-5.992,1.427-10.525-3.922-11.653-9.21
	C81.952,94.422,80.884,94.717,81.033,95.414L81.033,95.414z"/>
<path style="fill:#FFFFFF;" d="M165.751,90.811c-2.345,3.576-3.367,8.134-1.497,12.151c1.697,3.647,5.514,6.032,9.565,5.178
	c2.81-0.592,6.769-3.833,4.891-7.082c-0.678-1.173-2.116-1.613-3.381-1.211c-1.661,0.529-2.382,2.129-2.553,3.742
	c-0.075,0.709,1.033,0.709,1.108,0.006c0.102-0.964,0.496-2.073,1.432-2.551c1.28-0.654,2.617,0.228,2.678,1.58
	c0.066,1.475-1.03,2.809-2.21,3.552c-2.248,1.415-5.185,1.337-7.418-0.053c-5.23-3.254-4.618-10.239-1.654-14.761
	C167.102,90.767,166.141,90.216,165.751,90.811L165.751,90.811z"/>
<path style="fill:#281B51;" d="M268.441,86.566c-6.621-5.568-19.828,22.129-28.968,24.59c-7.889,2.124-43.763,0.774-44.136,6.235
	c-0.941,13.762,25.161,18.491,45.102,15.299C256.404,130.132,285.602,100.996,268.441,86.566z"/>
<g>
	<path style="fill:#CBDEE3;" d="M268.351,112.004l-0.941-3.604l3.613-0.943c0.057-0.116,0.114-0.232,0.17-0.348l-3.857,1.007
		l-2.893-11.085l8.961-2.339c-0.019-0.096-0.036-0.193-0.057-0.289l-8.978,2.343l-2.286-8.758c-0.083,0.069-0.166,0.14-0.249,0.212
		l2.25,8.621l-5.305,1.385l-0.474,0.124l-5.305,1.385l-0.293-1.124c-0.077,0.096-0.153,0.191-0.23,0.287l0.238,0.911l-1.227,0.32
		c-0.103,0.128-0.207,0.257-0.31,0.384l1.611-0.421l2.893,11.085l-11.084,2.893l-1.321-5.06c-0.083,0.068-0.168,0.14-0.251,0.205
		l1.287,4.929l-11.085,2.893l-1.286-4.929c-0.099,0.007-0.199,0.014-0.299,0.02l1.301,4.983l-11.085,2.893l-1.894-7.258
		c-0.1,0.005-0.2,0.01-0.3,0.015l1.91,7.317l-11.085,2.893l-2.463-9.436c-0.099,0.009-0.199,0.018-0.297,0.028l2.475,9.483
		l-11.085,2.893l-2.61-9.999c-0.09,0.054-0.181,0.108-0.261,0.165l2.482,9.511c0.199,0.192,0.398,0.383,0.613,0.568l10.935-2.854
		l2.273,8.709c0.108,0.024,0.215,0.049,0.324,0.073l-2.312-8.856l11.084-2.893l2.893,11.085l-6.167,1.61
		c0.261,0.033,0.519,0.069,0.781,0.1l5.461-1.425l0.489,1.873c0.102,0.004,0.204,0.005,0.307,0.008l-0.511-1.956l11.085-2.893
		l1.145,4.388c0.099-0.011,0.197-0.024,0.295-0.035l-1.155-4.427l11.085-2.893l1.057,4.051c0.09-0.047,0.179-0.091,0.268-0.138
		l-1.041-3.988l10.897-2.844c0.167-0.144,0.333-0.288,0.499-0.434l-0.101,0.026l-2.893-11.085l5.305-1.385l0.474-0.124l5.305-1.385
		l1.006,3.855C268.206,112.221,268.278,112.113,268.351,112.004z M235.911,128.463l-11.085,2.893l-2.893-11.085l11.085-2.893
		L235.911,128.463z M247.28,125.495l-11.085,2.893l-2.893-11.085l11.084-2.893L247.28,125.495z M258.65,122.528l-11.085,2.893
		l-2.893-11.085l11.085-2.893L258.65,122.528z M261.746,109.575l-0.474,0.124l-5.305,1.385l-2.893-11.085l5.305-1.385l0.474-0.123
		l5.305-1.385l2.893,11.085L261.746,109.575z"/>
</g>
<path style="fill:#FBBEB9;" d="M299.399,252.225c1.917,1.08-2.663-5.057-2.254-7.586l9.943-0.543c0,0,0.608,5.161,1.643,6.793
	c0.451,0.712,9.083,4.875,9.21,5.851c0.21,1.627-16.407-0.988-19.436,0.081C298,257,299,252,299.399,252.225z"/>
<path style="fill:#D6D6D6;" d="M244.442,178.562c4.803-23.493,13.429-43.308,17.818-52.135c10.816,8.618,30.823-1.068,39.245-2.417
	c-0.043,3.938-3.344,16.53-1.698,21.132c6.845,19.139,11.243,93.606,9.633,102.458c-0.517,2.843-12.18,4.735-14.035,2.359
	c-6.913-8.853-16.433-95.019-22.032-84.611c-0.974,1.812-10.606,23.296-10.608,25.785c-0.005,8.052,17.662,57.873,7.834,58.433
	c-2.006,0.114-5.783,0.828-9.792-0.008C256.89,248.742,237.852,210.791,244.442,178.562z"/>
<g>
	<path style="fill:#BABABA;" d="M257.784,180.501c-1.113,11.261-7.156,16.483-1.605,26.928c5.551,10.445,8.162,9.792,6.041,20.073
		c-1.261,6.109-3.48,13.086-5.073,17.743c1.586,2.608,2.905,4.156,3.659,4.313c4.01,0.835,7.786,0.122,9.792,0.008
		c9.828-0.56-7.839-50.381-7.834-58.433c0.002-2.49,9.633-23.974,10.608-25.785c0.211-0.393,0.429-0.633,0.652-0.76l-0.054-0.253
		C273.971,164.334,258.897,169.24,257.784,180.501z"/>
</g>
<g>
	<path style="fill:#BABABA;" d="M299.807,145.142c-1.646-4.602,1.655-17.194,1.698-21.132c-2.663,0.427-6.487,1.687-10.811,2.939
		c-2.126,8.122-3.671,17.723-2.437,26.183c2.818,19.325,9.067,44.75,12.242,62.13c2.942,16.109,2.979,25.786,3.539,35.261
		c2.771-0.599,4.734-1.268,4.963-2.524C310.609,239.148,306.651,164.281,299.807,145.142z"/>
</g>
<path style="fill:#412E7C;" d="M304.495,180.972c5.183-2.569,1.885-39.123,2.039-42.082c0.688-13.233,2.055-47.894-6.55-54.925
	c-5.899-4.82-26.468-7.75-36.495,3.236c-6.889,7.549-11.029,50.601-17.289,81.655c-0.563,2.792,17.544,12.158,17.544,12.158
	l6.684-32.593c0,0,6.789,0.744,10.162,0.662c1.466-0.036,3.417,34.024,4.86,33.89C291.431,182.42,299.833,183.282,304.495,180.972z"
	/>
<g>
	<path style="fill:#281B51;" d="M306.534,138.89c0.688-13.233,2.055-47.894-6.55-54.925c-1.95-1.594-5.508-2.976-9.754-3.722
		c1.556,5.891,4.402,17.193,4.6,21.8c0.274,6.365,2.967,22.644,0.887,33.66c-2.081,11.016-7.099,30.845-3.672,41.861
		c0.56,1.798,1.049,3.508,1.487,5.128c4.113-0.095,8.197-0.348,10.963-1.719C309.677,178.403,306.38,141.849,306.534,138.89z"/>
</g>
<g>
	<path style="fill:#DEEBEE;" d="M301.862,181.881v-5.639h4.757c0.017-0.094,0.032-0.197,0.048-0.293h-4.805v-11.457h5.559
		c0.001-0.098,0.002-0.195,0.002-0.293h-5.561V152.74h5.322c-0.004-0.099-0.009-0.195-0.013-0.293h-5.309v-5.484v-0.49v-5.484h4.731
		c-0.005-0.098-0.01-0.202-0.014-0.294h-4.717V129.24h5.068c0.003-0.096,0.005-0.196,0.008-0.294h-5.076v-11.457h5.17
		c-0.001-0.098-0.004-0.196-0.005-0.293h-5.165v-11.457h4.645c-0.008-0.098-0.015-0.196-0.023-0.294h-4.622V93.989h2.948
		c-0.022-0.096-0.042-0.198-0.065-0.294h-2.882v-7.513c-0.098-0.154-0.193-0.313-0.295-0.457v7.97h-11.456V82.238h6.95
		c-0.223-0.1-0.454-0.198-0.69-0.293h-6.26v-1.724c-0.099-0.017-0.195-0.036-0.294-0.052v1.776h-11.456v-1.931
		c-0.098,0.014-0.196,0.025-0.294,0.04v1.891h-6.934c-0.225,0.094-0.446,0.193-0.668,0.293h7.602v11.457h-11.456v-9.257
		c-0.1,0.072-0.196,0.149-0.295,0.223v9.034h-5.483h-0.49h-0.079c-0.033,0.096-0.065,0.196-0.097,0.294h0.176h0.49h5.483v11.457
		h-5.483h-0.49h-3.139c-0.021,0.098-0.042,0.195-0.063,0.294h3.202h0.49h5.483v11.457h-5.483h-0.49h-5.383
		c-0.017,0.097-0.034,0.196-0.051,0.293h5.434h0.49h5.483v11.457h-5.483h-0.49h-5.483v-11.175c-0.098,0.563-0.197,1.124-0.295,1.696
		v9.479h-1.571c-0.016,0.098-0.031,0.196-0.047,0.294h1.618v11.457h-3.452c-0.016,0.098-0.031,0.196-0.047,0.294h3.499v5.484v0.49
		v5.484h-5.374c-0.016,0.098-0.033,0.196-0.049,0.293h5.423v11.457h-7.46c-0.018,0.098-0.037,0.196-0.056,0.293h7.516v11.372
		c0.21,0.127,0.419,0.253,0.628,0.378h5.15h0.49h3.89l0.06-0.293h-3.95h-0.49h-5.483v-11.457h5.483h0.49h5.483v3.982l0.295-1.436
		v-2.546h0.522l0.06-0.293h-0.582V152.74h2.932l0.06-0.293h-2.992v-5.484v-0.49v-5.484h11.456v5.484v0.49v2.074
		c0.098,0.004,0.198,0.01,0.294,0.014v-2.087v-0.49v-5.484h11.456v5.484v0.49v5.484h-8.322c0.014,0.095,0.029,0.196,0.043,0.293
		h8.279v11.457h-6.976c0.01,0.098,0.02,0.195,0.03,0.293h6.946v11.457h-5.746c0.011,0.097,0.023,0.198,0.034,0.293h5.712v6.522
		c0.098-0.002,0.196-0.005,0.294-0.007v-6.515h11.456v5.714C301.668,181.932,301.762,181.904,301.862,181.881z M266.316,164.197
		h-5.483h-0.49h-5.483V152.74h5.483h0.49h5.483V164.197z M266.316,146.474v0.49v5.484h-5.483h-0.49h-5.483v-5.484v-0.49v-5.484
		h5.483h0.49h5.483V146.474z M266.316,140.696h-5.483h-0.49h-5.483V129.24h5.483h0.49h5.483V140.696z M278.066,140.696h-11.456
		V129.24h11.456V140.696z M278.066,128.946h-11.456v-11.457h11.456V128.946z M278.066,117.196h-11.456v-11.457h11.456V117.196z
		 M278.066,105.446h-11.456V93.989h11.456V105.446z M289.817,140.696h-11.456V129.24h11.456V140.696z M289.817,128.946h-11.456
		v-11.457h11.456V128.946z M289.817,117.196h-11.456v-11.457h11.456V117.196z M289.817,105.446h-11.456V93.989h11.456V105.446z
		 M289.817,93.695h-11.456V82.238h11.456V93.695z M290.111,93.989h11.456v11.457h-11.456V93.989z M290.111,105.739h11.456v11.457
		h-11.456V105.739z M290.111,117.489h11.456v11.457h-11.456V117.489z M290.111,129.24h11.456v11.457h-11.456V129.24z
		 M290.111,146.963v-0.49v-5.484h11.456v5.484v0.49v5.484h-11.456V146.963z M290.111,152.74h11.456v11.457h-11.456V152.74z
		 M290.111,175.948v-11.457h11.456v11.457H290.111z"/>
</g>
<linearGradient id="SVGID_2_" gradientUnits="userSpaceOnUse" x1="270.3195" y1="114.6357" x2="288.2568" y2="114.6357">
	<stop  offset="0" style="stop-color:#157B8D"/>
	<stop  offset="1" style="stop-color:#209A9F"/>
</linearGradient>
<path style="fill:url(#SVGID_2_);" d="M285.114,80.465c0,0-7.009-1.508-10.68,2.304c-3.283,3.408-4.508,65.571-4.006,65.653
	c3.372,0.551,6.789,0.744,10.162,0.662C280.757,149.079,294.183,80.503,285.114,80.465z"/>
<path style="fill:#212529;" d="M272.347,64.317c1.076-1.69,3.869-5.395,10.533-1.8c4.369,2.357,2.422,13.899,0.089,15.4
	c-1.819,1.17-5.429-5.675-6.933-8.751c-1.623,0.041-2.986-0.092-3.387-0.594C271.469,67.095,271.618,65.462,272.347,64.317z"/>
<path style="fill:#FFA8A8;" d="M282.084,72.009l4.084,9.895c0.114,1.469-7.515,6.085-9.963,4.385
	c-0.716-0.498-0.623-1.919-0.088-3.489l3.236-8.571L282.084,72.009z"/>
<path style="fill:#412E7C;" d="M278.703,75.951c0.676-0.168,1.456-0.367,2.132-0.541c0.832-0.214,1.589,0.568,1.325,1.385
	c-0.28,0.866-0.8,1.92-1.765,2.871c-1.125,1.109-2.487,1.697-3.805,1.881L278.703,75.951z"/>
<path style="fill:#FFA8A8;" d="M279.318,67.912l2.807,5.829c0.772,1.993-0.177,4.243-2.149,5.068
	c-1.575,0.659-2.634,0.802-4.758,0.827c-1.77,0.021-2.886-1.532-3.19-3.815c-0.394-2.962,0.084-5.802,0.426-7.307
	C273.232,65.082,277.21,64.247,279.318,67.912z"/>
<path style="fill:#FFFFFF;" d="M275.94,72.872c0,0-1.394,0.548-3.464,0.568c0,0,0.122,1.334,0.988,1.688
	C274.33,75.482,275.669,74.521,275.94,72.872z"/>
<g>
	<path style="fill:#FF8787;" d="M274.375,77.442c1.897-0.65,3.771,2.105,6.864-1.154c0.577-0.608,0.751-1.907,0.825-2.675
		l0.061,0.128c0.772,1.993-0.177,4.243-2.149,5.068c-1.575,0.659-2.634,0.802-4.758,0.827c-1.08,0.013-1.915-0.562-2.472-1.529
		C273.101,78.116,273.796,77.64,274.375,77.442z"/>
</g>
<path style="fill:#212529;" d="M277.32,66.261c0,0,1.798,2.064,1.819,3.304c0.021,1.24-0.073,1.774,0.372,2.049
	c0.446,0.275,1.497-0.811,1.302-2.071C280.617,68.282,279.678,65.194,277.32,66.261z"/>
<path style="fill:#FFA8A8;" d="M280.119,70.706c0.144-0.374,0.229-0.765,0.291-1.161c0.118-0.753,0.468-1.844,1.498-1.12
	c1.499,1.054,0.652,5.03-1.257,5.044C279.235,73.479,279.757,71.649,280.119,70.706z"/>
<g>
	<path style="fill:#FFFFFF;" d="M277.955,86.661c0,0,2.937-1.673,4.09-3.135c0.757-0.961,1.94-4.127,1.94-4.127
		s2.556,1.319,3.079,3.73l-6.709,6.747c0,0-0.99-1.763-1.422-2.267C278.698,87.333,277.955,86.661,277.955,86.661z"/>
	<path style="fill:#FFFFFF;" d="M277.955,86.661l-0.465-1.126c-0.229-0.555-0.699-3.355-0.66-3.649c0,0-1.61,2.063-2.223,2.877
		c-0.614,0.814-0.927,1.496-0.927,1.496l2.219,3.513C275.899,89.771,277.099,86.676,277.955,86.661z"/>
</g>
<path style="fill:#212529;" d="M273.068,66.227c0,0,5.72,3.931,6.4,3.742c0.68-0.189,0.744-3.392-0.707-4.383
	C277.31,64.595,272.376,63.855,273.068,66.227z"/>
<g>
	<g>
		<path style="fill:#5C7CFA;" d="M269.692,70.053c0.003-0.46,0.101-0.897,0.274-1.231c0.214-0.413,0.526-0.639,0.877-0.636
			l1.919,0.014c0.32,0.002,0.611,0.218,0.799,0.592c0.15,0.301,0.232,0.691,0.228,1.099c-0.003,0.355-0.071,0.704-0.192,0.982
			l-0.513,1.188c-0.302,0.699-0.776,1.097-1.302,1.093l-0.359-0.003c-0.09-0.001-0.177-0.012-0.262-0.033
			C270.296,72.904,269.68,71.655,269.692,70.053z M270.838,68.925c-0.03,0-0.122,0.058-0.216,0.238
			c-0.119,0.229-0.189,0.556-0.191,0.896c-0.01,1.344,0.517,2.351,0.999,2.357l0.359,0.003c0.205,0.001,0.447-0.253,0.618-0.648
			l0.514-1.188c0.082-0.19,0.129-0.436,0.131-0.695c0.004-0.567-0.205-0.919-0.297-0.948L270.838,68.925z"/>
	</g>
	<g>
		<path style="fill:#5C7CFA;" d="M275.278,72.127l-0.717-1.197c-0.176-0.294-0.271-0.661-0.268-1.034
			c0.003-0.429,0.132-0.836,0.362-1.145c0.252-0.339,0.611-0.531,0.984-0.528l2.76,0.021c0.824,0.007,1.467,0.835,1.46,1.886
			c-0.013,1.702-1.083,3.079-2.385,3.069l-0.517-0.004c-0.137-0.001-0.271-0.019-0.402-0.051
			C276.05,73.018,275.598,72.662,275.278,72.127z M278.393,68.981l-2.76-0.021c-0.185-0.001-0.321,0.144-0.386,0.231
			c-0.135,0.182-0.214,0.44-0.216,0.71c-0.002,0.239,0.056,0.47,0.164,0.649l0.717,1.197c0.267,0.447,0.651,0.705,1.05,0.709
			l0.517,0.004c0.895,0.007,1.631-1.041,1.641-2.337c0.004-0.559-0.269-1.041-0.618-1.128
			C278.467,68.987,278.43,68.982,278.393,68.981z"/>
	</g>
	<g>
		<path style="fill:#5C7CFA;" d="M273.322,70.08c0.11,0.028,0.231,0.004,0.325-0.073c0.424-0.349,0.723-0.056,0.756-0.021
			c0.14,0.147,0.374,0.154,0.522,0.014c0.148-0.14,0.154-0.374,0.014-0.522c-0.275-0.29-0.997-0.672-1.762-0.04
			c-0.157,0.13-0.18,0.363-0.05,0.52C273.18,70.021,273.249,70.062,273.322,70.08z"/>
	</g>
</g>
<path style="fill:#412E7C;" d="M299.134,83.605c13.47,1.203,39.298,22.099,39.861,42.562c0.379,13.787-20.425,27.911-31.835,30.139
	c-3.89,0.759-5.671-3.056-6.523-4.421c-3.355-5.367,21.437-20.58,20.275-28.299c-1.111-7.385-17.827-18.045-21.935-23.417
	C291.714,90.674,295.46,83.277,299.134,83.605z"/>
<path style="fill:#281B51;" d="M319.342,93.634c1.464,5.298,2.939,10.174,3.929,12.265c2.66,5.621,4.749,6.542,6.237,15.137
	c1.488,8.594,3.096,8.134-2.312,14.12c-5.408,5.985-0.086,9.669-10.651,12.124c-8.544,1.986-13.047,0.034-16.045,4.292
	c0.043,0.106,0.076,0.214,0.138,0.313c0.853,1.365,2.634,5.18,6.523,4.421c11.41-2.228,32.215-16.352,31.835-30.139
	C338.662,114.095,329.536,101.876,319.342,93.634z"/>
<g>
	<path style="fill:#DEEBEE;" d="M330.845,129.24h0.49h5.483v5.326c0.099-0.189,0.202-0.378,0.295-0.568v-4.759h1.616
		c0.018-0.098,0.042-0.196,0.058-0.294h-1.674v-11.457h0.209c-0.034-0.098-0.066-0.196-0.101-0.293h-0.109v-0.316
		c-0.094-0.256-0.194-0.51-0.295-0.765v1.082h-5.483h-0.49h-5.483v-11.457h5.483h0.148c-0.073-0.099-0.15-0.195-0.223-0.294h-5.408
		v-6.328c-0.097-0.1-0.197-0.195-0.295-0.294v6.622h-11.456V93.989h6.158c-0.118-0.097-0.236-0.197-0.355-0.294h-5.803v-4.203
		c-0.098-0.063-0.196-0.125-0.295-0.187v4.39h-11.456v-9.62c-0.1-0.024-0.196-0.043-0.295-0.065v9.686h-6.092
		c0.031,0.097,0.064,0.196,0.097,0.294h5.995v8.911c0.097,0.091,0.195,0.181,0.295,0.273v-9.184h11.456v11.457h-8.884
		c0.114,0.098,0.226,0.195,0.341,0.294h8.542v7.421c0.098,0.091,0.197,0.183,0.295,0.274v-7.696h11.456v11.457h-7.797
		c0.085,0.098,0.173,0.196,0.255,0.293h7.542v11.457h-6.126c-0.068,0.098-0.138,0.195-0.209,0.294h6.335v11.457h-11.456v-5.665
		c-0.098,0.099-0.196,0.198-0.295,0.297v5.369h-5.51c-0.101,0.098-0.198,0.196-0.298,0.294h5.808v5.484v0.49v5.484h-11.456v-5.245
		c-0.106,0.148-0.198,0.291-0.295,0.436v4.809h-0.596c0.055,0.094,0.114,0.192,0.175,0.293h0.42v0.666
		c0.093,0.14,0.191,0.281,0.295,0.423v-1.089h11.456v1.594c0.098-0.041,0.196-0.085,0.295-0.128v-1.466h3.103
		c0.187-0.096,0.375-0.194,0.562-0.293h-3.665v-5.484v-0.49v-5.484h11.456v5.484v0.49v0.536c0.099-0.074,0.196-0.152,0.295-0.227
		v-0.31v-0.49v-5.484h5.483h0.49h0.924c0.087-0.097,0.171-0.196,0.257-0.294h-1.181h-0.49h-5.483V129.24H330.845z M325.362,117.489
		h5.483h0.49h5.483v11.457h-5.483h-0.49h-5.483V117.489z"/>
</g>
<path style="fill:#FFA8A8;" d="M303.427,148.859c0,0-1.874-3.435-3.62-3.717c-1.746-0.282-5.746,0.823-5.183,1.26
	c0.563,0.436,4.158,0.079,4.158,0.079s-3.815,1.425-4.517,2.388c-0.701,0.963,0.837,2.285,1.838,2.512
	c1.001,0.227,5.597,2.214,7.313,1.651C305.131,152.47,303.427,148.859,303.427,148.859z"/>
<path style="fill:#FFFFFF;stroke:#412E7C;stroke-width:0.75;stroke-miterlimit:10;" d="M258.806,258.141h-95.699v-143.55h37.215
	c0.051,0,0.102,0,0.153,0c7.228,0.048,13.742,4.393,16.857,10.915c9.858,20.642,41.474,87.212,41.474,91.955V258.141z"/>
<g>
	<g>
		<defs>
			<path id="SVGID_3_" d="M232.706,258.141h-95.699v-143.55h37.215c0.051,0,0.102,0,0.153,0c7.228,0.048,13.742,4.393,16.857,10.915
				c9.858,20.642,41.475,87.212,41.475,91.955V258.141z"/>
		</defs>
		<clipPath id="SVGID_5_">
			<use xlink:href="#SVGID_3_"  style="overflow:visible;"/>
		</clipPath>
		<g style="clip-path:url(#SVGID_5_);">
			<g>
				<defs>
					<rect id="SVGID_6_" x="132.006" y="109.59" width="105.7" height="153.55"/>
				</defs>
				<clipPath id="SVGID_7_">
					<use xlink:href="#SVGID_6_"  style="overflow:visible;"/>
				</clipPath>
				<g style="clip-path:url(#SVGID_7_);">
					
						<image style="overflow:visible;" width="221" height="321" xlink:href="B06C9BD4F0C2B7FB.jpg"  transform="matrix(0.48 0 0 0.48 131.6908 109.28)">
					</image>
				</g>
			</g>
		</g>
	</g>
	<path style="fill:none;stroke:#412E7C;stroke-width:0.75;stroke-miterlimit:10;" d="M232.706,258.141h-95.699v-143.55h37.215
		c0.051,0,0.102,0,0.153,0c7.228,0.048,13.742,4.393,16.857,10.915c9.858,20.642,41.475,87.212,41.475,91.955V258.141z"/>
</g>
<path style="fill:#BABABA;" d="M185.977,148.759H75.597v-34.168h97.318c7.214,0,13.062,5.848,13.062,13.062V148.759z"/>
<g>
	<g>
		<defs>
			<rect id="SVGID_8_" x="102.655" y="156.271" width="82.201" height="101.869"/>
		</defs>
		<clipPath id="SVGID_9_">
			<use xlink:href="#SVGID_8_"  style="overflow:visible;"/>
		</clipPath>
		<g style="clip-path:url(#SVGID_9_);">
			<g>
				<defs>
					<rect id="SVGID_10_" x="97.655" y="151.271" width="92.201" height="111.869"/>
				</defs>
				<clipPath id="SVGID_11_">
					<use xlink:href="#SVGID_10_"  style="overflow:visible;"/>
				</clipPath>
				<g style="clip-path:url(#SVGID_11_);">
					
						<image style="overflow:visible;" width="193" height="234" xlink:href="B06C9BD4F0C2B7F9.jpg"  transform="matrix(0.48 0 0 0.48 97.6108 151.04)">
					</image>
				</g>
			</g>
		</g>
	</g>
</g>
<rect x="50.199" y="148.759" style="fill:#412E7C;" width="135.778" height="9.212"/>
<g>
	<g>
		<path style="fill:#DEEBEE;" d="M264.633,176.816h-43.109c-2.157,0-4.261-1.765-4.675-3.922l-5.822-29.847
			c-0.414-2.157,1.012-3.922,3.169-3.922h43.109c2.157,0,4.261,1.765,4.675,3.922l5.822,29.847
			C268.216,175.051,266.79,176.816,264.633,176.816z"/>
	</g>
</g>
<g>
	<path style="fill:#FFFFFF;" d="M266.61,176.816h-43.109c-2.157,0-4.261-1.765-4.675-3.922l-5.822-29.847
		c-0.414-2.157,1.012-3.922,3.169-3.922h43.109c2.157,0,4.261,1.765,4.675,3.922l5.822,29.847
		C270.193,175.051,268.767,176.816,266.61,176.816z"/>
	<path style="fill:#CBEAFF;" d="M266.536,170.429c0.025,0.13-0.071,0.249-0.201,0.249h-44.974c-0.131,0-0.272-0.119-0.297-0.249
		l-5.498-28.315c-0.025-0.13,0.071-0.249,0.201-0.249h44.974c0.131,0,0.272,0.119,0.297,0.249L266.536,170.429z"/>
	<g>
		<path style="fill:#0433FF;" d="M227.094,161.991c0.004,0.02-0.011,0.039-0.032,0.039h-4.944c-0.02,0-0.043-0.019-0.047-0.039
			l-0.866-4.458c-0.004-0.02,0.011-0.039,0.032-0.039h4.944c0.021,0,0.043,0.019,0.047,0.039L227.094,161.991z"/>
		<path style="fill:#FF40FF;" d="M233.648,161.991c0.004,0.02-0.011,0.039-0.032,0.039h-4.944c-0.02,0-0.043-0.019-0.047-0.039
			l-0.865-4.458c-0.004-0.02,0.011-0.039,0.032-0.039h4.944c0.02,0,0.043,0.019,0.047,0.039L233.648,161.991z"/>
		<path style="fill:#00F800;" d="M228.445,167.838c0.004,0.02-0.011,0.039-0.032,0.039h-4.944c-0.02,0-0.043-0.019-0.047-0.039
			l-0.866-4.458c-0.004-0.02,0.011-0.039,0.032-0.039h4.944c0.02,0,0.043,0.019,0.047,0.039L228.445,167.838z"/>
		<path style="fill:#FFFA00;" d="M234.999,167.838c0.004,0.02-0.011,0.039-0.032,0.039h-4.944c-0.02,0-0.043-0.019-0.047-0.039
			l-0.866-4.458c-0.004-0.02,0.011-0.039,0.032-0.039h4.944c0.02,0,0.043,0.019,0.047,0.039L234.999,167.838z"/>
	</g>
</g>
<g>
	<polygon style="fill:#FFFFFF;" points="233.582,146.995 220.409,146.995 220.17,146.082 233.343,146.082 	"/>
</g>
<g>
	<polygon style="fill:#FFFFFF;" points="234.493,150.473 221.32,150.473 221.081,149.561 234.254,149.561 	"/>
</g>
<path style="fill:#412E7C;" d="M246.688,173.785c0.058,0.722-0.365,1.345-0.946,1.392c-0.581,0.047-1.099-0.501-1.157-1.223
	c-0.058-0.722,0.365-1.345,0.946-1.392C246.112,172.515,246.629,173.063,246.688,173.785z"/>
<path style="fill:#B3B3B3;" d="M251.797,217.463c-6.909-14.201-39.534-11.131-48.745-17.272c-9.212-6.141,2.303-22.645,0-30.706
	c-2.303-8.06-19.286-10.747-19.286-10.747l-71.323-0.768l-2.211,0.768c0,0,16.983,2.687,19.286,10.747
	c2.303,8.06-9.212,24.565,0,30.706c9.212,6.141,41.837,3.071,48.745,17.272c6.909,14.201,7.293,33.392,7.293,33.392h73.534
	C259.09,250.855,258.706,231.664,251.797,217.463z"/>
<path style="fill:#DBE4FF;" d="M254.009,216.695c-6.909-14.202-39.534-11.131-48.745-17.272c-9.212-6.141,2.303-22.646,0-30.706
	c-2.303-8.06-19.286-10.747-19.286-10.747h-73.534c0,0,16.983,2.687,19.286,10.747c2.303,8.06-9.212,24.565,0,30.706
	c9.212,6.141,41.836,3.07,48.745,17.272c6.909,14.201,7.293,33.392,7.293,33.392h73.534
	C261.301,250.087,260.918,230.896,254.009,216.695z"/>
<g>
	<path style="fill:#BAC8FF;" d="M183.252,223.604c4.242,12.806,4.516,26.484,4.516,26.484h73.534c0,0-0.274-13.677-4.516-26.484
		H183.252z"/>
</g>
<path style="fill:#BAC8FF;" d="M205.263,168.717c-0.05-0.174-0.115-0.343-0.178-0.512h-73.534c0.063,0.169,0.129,0.338,0.179,0.512
	c2.213,7.747-8.327,23.288-0.973,29.938h73.534C196.937,192.006,207.477,176.464,205.263,168.717z"/>
<g>
	<path style="fill:#D6D6D6;stroke:#D6D6D6;stroke-width:0.75;stroke-miterlimit:10;" d="M171.708,114.591H75.597v4.422h106.422
		C179.42,116.293,175.766,114.591,171.708,114.591z"/>
</g>
<path style="fill:#FFFFFF;" d="M254.009,216.695c-6.909-14.202-39.534-11.131-48.745-17.272c-9.212-6.141,2.303-22.646,0-30.706
	c-2.303-8.06-19.286-10.747-19.286-10.747h-3.454c0,0,16.983,2.687,19.286,10.747c2.303,8.06-9.212,24.565,0,30.706
	c9.212,6.141,41.837,3.07,48.745,17.272c6.909,14.201,7.293,33.392,7.293,33.392h3.454
	C261.301,250.087,260.918,230.896,254.009,216.695z"/>
<path style="fill:#FFFFFF;" d="M136.968,199.423c-9.212-6.141,2.303-22.646,0-30.706s-19.286-10.747-19.286-10.747h-5.238
	c0,0,16.983,2.687,19.286,10.747c2.303,8.06-9.212,24.565,0,30.706c9.212,6.141,41.836,3.07,48.745,17.272
	c6.909,14.201,7.293,33.392,7.293,33.392h5.238c0,0-0.384-19.191-7.293-33.392C178.804,202.493,146.18,205.564,136.968,199.423z"/>
<path style="fill:#FFFFFF;stroke:#412E7C;stroke-width:0.75;stroke-miterlimit:10;" d="M138.543,258.141H42.844v-143.55h37.215
	c0.051,0,0.102,0,0.153,0c7.228,0.048,13.742,4.393,16.857,10.915c9.858,20.642,41.474,87.212,41.474,91.955V258.141z"/>
<g>
	<g>
		<defs>
			<path id="SVGID_12_" d="M112.443,258.141H16.744v-143.55h37.215c0.051,0,0.102,0,0.154,0c7.228,0.048,13.742,4.393,16.857,10.915
				c9.858,20.642,41.474,87.212,41.474,91.955V258.141z"/>
		</defs>
		<clipPath id="SVGID_13_">
			<use xlink:href="#SVGID_12_"  style="overflow:visible;"/>
		</clipPath>
		<g style="clip-path:url(#SVGID_13_);">
			<g>
				<defs>
					<rect id="SVGID_14_" x="11.744" y="109.59" width="105.699" height="153.55"/>
				</defs>
				<clipPath id="SVGID_15_">
					<use xlink:href="#SVGID_14_"  style="overflow:visible;"/>
				</clipPath>
				<g style="clip-path:url(#SVGID_15_);">
					
						<image style="overflow:visible;" width="221" height="321" xlink:href="B06C9BD4F0C2B7FF.jpg"  transform="matrix(0.48 0 0 0.48 11.6908 109.28)">
					</image>
				</g>
			</g>
		</g>
	</g>
	<path style="fill:none;stroke:#412E7C;stroke-width:0.75;stroke-miterlimit:10;" d="M112.443,258.141H16.744v-143.55h37.215
		c0.051,0,0.102,0,0.154,0c7.228,0.048,13.742,4.393,16.857,10.915c9.858,20.642,41.474,87.212,41.474,91.955V258.141z"/>
</g>
<polygon style="fill:#CBEAFF;" points="113.994,169.997 96.722,169.997 83.336,141.594 100.608,141.594 "/>
<polygon style="fill:#8FD6F9;" points="99.057,143.769 111.418,169.997 113.994,169.997 100.608,141.594 83.336,141.594 
	84.361,143.769 "/>
<g>
	<g>
		<path style="fill:#FF7289;" d="M41.327,247.017H25.296c-0.377,0-0.685-0.308-0.685-0.685v-2.213c0-0.377,0.308-0.685,0.685-0.685
			h16.031c0.377,0,0.685,0.308,0.685,0.685v2.213C42.011,246.709,41.703,247.017,41.327,247.017z"/>
		<path style="fill:#FF7289;" d="M61.573,247.017h-16.03c-0.377,0-0.685-0.308-0.685-0.685v-2.213c0-0.377,0.308-0.685,0.685-0.685
			h16.031c0.377,0,0.685,0.308,0.685,0.685v2.213C62.258,246.709,61.95,247.017,61.573,247.017z"/>
		<path style="fill:#FF7289;" d="M81.82,247.017h-16.03c-0.377,0-0.685-0.308-0.685-0.685v-2.213c0-0.377,0.308-0.685,0.685-0.685
			h16.03c0.377,0,0.685,0.308,0.685,0.685v2.213C82.504,246.709,82.196,247.017,81.82,247.017z"/>
	</g>
	<g>
		<path style="fill:#FF7289;" d="M41.327,240.588H25.296c-0.377,0-0.685-0.308-0.685-0.685v-2.213c0-0.377,0.308-0.685,0.685-0.685
			h16.031c0.377,0,0.685,0.308,0.685,0.685v2.213C42.011,240.28,41.703,240.588,41.327,240.588z"/>
		<path style="fill:#FF7289;" d="M61.573,240.588h-16.03c-0.377,0-0.685-0.308-0.685-0.685v-2.213c0-0.377,0.308-0.685,0.685-0.685
			h16.031c0.377,0,0.685,0.308,0.685,0.685v2.213C62.258,240.28,61.95,240.588,61.573,240.588z"/>
		<path style="fill:#FF7289;" d="M81.82,240.588h-16.03c-0.377,0-0.685-0.308-0.685-0.685v-2.213c0-0.377,0.308-0.685,0.685-0.685
			h16.03c0.377,0,0.685,0.308,0.685,0.685v2.213C82.504,240.28,82.196,240.588,81.82,240.588z"/>
	</g>
	<g>
		<path style="fill:#FF7289;" d="M41.327,234.159H25.296c-0.377,0-0.685-0.308-0.685-0.685v-2.213c0-0.377,0.308-0.685,0.685-0.685
			h16.03c0.377,0,0.685,0.308,0.685,0.685v2.213C42.011,233.851,41.703,234.159,41.327,234.159z"/>
		<path style="fill:#FF7289;" d="M61.573,234.159H45.543c-0.377,0-0.685-0.308-0.685-0.685v-2.213c0-0.377,0.308-0.685,0.685-0.685
			h16.03c0.377,0,0.685,0.308,0.685,0.685v2.213C62.258,233.851,61.95,234.159,61.573,234.159z"/>
		<path style="fill:#FF7289;" d="M81.82,234.159h-16.03c-0.377,0-0.685-0.308-0.685-0.685v-2.213c0-0.377,0.308-0.685,0.685-0.685
			h16.03c0.377,0,0.685,0.308,0.685,0.685v2.213C82.504,233.851,82.196,234.159,81.82,234.159z"/>
	</g>
</g>
<linearGradient id="SVGID_16_" gradientUnits="userSpaceOnUse" x1="140.9732" y1="181.5228" x2="186.1163" y2="181.5228">
	<stop  offset="0" style="stop-color:#FF576D"/>
	<stop  offset="1" style="stop-color:#F03344"/>
</linearGradient>
<path style="fill:url(#SVGID_16_);" d="M155.942,171.788c2.495,6.717-0.384,28.691,14.969,32.288
	c9.472,2.22,13.756,0.465,15.066-2.542c1.63-3.742-11.655-13.052-10.076-18.48c4.318-14.849,1.439-18.463-14.489-25.084h-20.439
	C140.973,157.97,153.447,165.071,155.942,171.788z"/>
<linearGradient id="SVGID_17_" gradientUnits="userSpaceOnUse" x1="153.7829" y1="183.4304" x2="185.3759" y2="183.4304">
	<stop  offset="0" style="stop-color:#FF786D"/>
	<stop  offset="1" style="stop-color:#FF616C"/>
</linearGradient>
<path style="fill:url(#SVGID_17_);" d="M175.901,183.054c2.006-6.899,2.456-11.371,0.767-14.849h-22.886
	c0.951,1.178,1.715,2.386,2.159,3.582c1.887,5.08,0.706,18.884,6.659,26.867h22.775
	C182.835,194.182,174.642,187.384,175.901,183.054z"/>
<linearGradient id="SVGID_18_" gradientUnits="userSpaceOnUse" x1="186.4562" y1="205.4089" x2="226.3594" y2="205.4089">
	<stop  offset="0" style="stop-color:#6EC5BC"/>
	<stop  offset="1" style="stop-color:#209A9F"/>
</linearGradient>
<path style="fill:url(#SVGID_18_);" d="M186.456,194.433c0,0,0.288,5.757,4.222,9.596c3.934,3.838,20.247,5.278,23.317,11.131
	c3.071,5.853,8.156,7.005,11.035,4.702c2.399-1.919,1.873-9.397-4.261-13.479c-1.822-1.212-3.944-1.892-6.12-2.119
	c-3.223-0.337-10.297-1.363-15.983-4.214c-1.462-0.733-2.672-1.88-3.538-3.267C192.658,192.823,186.907,184.737,186.456,194.433z"/>
<linearGradient id="SVGID_19_" gradientUnits="userSpaceOnUse" x1="186.4562" y1="194.2513" x2="196.6686" y2="194.2513">
	<stop  offset="0" style="stop-color:#157B8D"/>
	<stop  offset="1" style="stop-color:#209A9F"/>
</linearGradient>
<path style="fill:url(#SVGID_19_);" d="M195.128,196.781c-2.47-3.959-8.221-12.045-8.672-2.348c0,0,0.098,1.889,0.917,4.222h9.296
	C196.077,198.105,195.56,197.473,195.128,196.781z"/>
<polygon style="fill:#412E7C;" points="138.543,217.461 146.922,258.141 138.543,258.141 "/>
<g>
	<path style="fill:#BC3A4E;" d="M23.882,155.487l0.314,85.618c0,0-1.665,3.361-9.296,1.661l-3.676-4.358
		c0,0-3.655-80.878-2.459-82.865C9.962,153.556,23.882,155.487,23.882,155.487z"/>
	<path style="fill:#FF7974;" d="M19.785,160.813l0.308,84.094c0,0-5.552,1.698-11.693-1.787l-0.321-87.574
		c0,0,0.232,1.854,2.88,3.42C13.608,160.532,18.261,160.995,19.785,160.813z"/>
	<path style="fill:#FFFFFF;" d="M23.882,155.487c0.006,1.74-3.493,3.164-7.816,3.18s-7.833-1.382-7.839-3.123
		c-0.006-1.741,3.493-3.164,7.816-3.18S23.876,153.747,23.882,155.487z"/>
	<path style="fill:#412E7C;" d="M21.958,155.494c0.005,1.313-2.634,2.386-5.894,2.398c-3.26,0.012-5.907-1.042-5.912-2.355
		c-0.005-1.313,2.634-2.386,5.894-2.398C19.306,153.128,21.953,154.182,21.958,155.494z"/>
	<g>
		<path style="fill:#FFFFFF;" d="M19.481,161.107c-0.004,0-0.008,0-0.011,0c-10.892-0.373-11.366-4.712-11.38-4.896
			c-0.093-1.149,0.596-1.608,0.972-1.692c0.164-0.036,0.327,0.069,0.363,0.233c0.036,0.163-0.066,0.324-0.228,0.362
			c-0.062,0.016-0.57,0.175-0.5,1.048c0.004,0.04,0.44,3.98,10.793,4.335c0.169,0.006,0.3,0.147,0.295,0.315
			C19.779,160.977,19.644,161.107,19.481,161.107z"/>
	</g>
</g>
<path style="fill:#3C65DF;" d="M51.55,146.118l0.328,89.384c0,0-1.738,3.509-9.704,1.734l-3.837-4.549
	c0,0-3.816-84.437-2.567-86.511C37.017,144.102,51.55,146.118,51.55,146.118z"/>
<path style="fill:#5C7CFA;" d="M47.272,151.678l0.322,87.794c0,0-5.796,1.772-12.207-1.865l-0.335-91.427
	c0,0,0.242,1.936,3.007,3.571C40.823,151.385,45.68,151.869,47.272,151.678z"/>
<path style="fill:#FFFFFF;" d="M51.55,146.118c0.007,1.817-3.647,3.303-8.16,3.32s-8.177-1.443-8.184-3.26
	c-0.007-1.817,3.646-3.303,8.16-3.32C47.879,142.842,51.543,144.301,51.55,146.118z"/>
<path style="fill:#412E7C;" d="M46.786,146.136c0.003,0.758-1.521,1.378-3.403,1.385c-1.882,0.007-3.41-0.602-3.413-1.36
	c-0.003-0.758,1.521-1.378,3.403-1.385C45.255,144.769,46.783,145.378,46.786,146.136z"/>
<g>
	<path style="fill:#FFFFFF;" d="M46.954,151.986c-0.004,0-0.008,0-0.012,0c-11.371-0.39-11.866-4.919-11.881-5.112
		c-0.097-1.199,0.622-1.679,1.015-1.766c0.171-0.038,0.342,0.071,0.379,0.243c0.038,0.17-0.069,0.339-0.238,0.378
		c-0.065,0.017-0.595,0.183-0.522,1.094c0.004,0.041,0.459,4.155,11.268,4.526c0.176,0.006,0.313,0.153,0.308,0.329
		C47.265,151.85,47.125,151.985,46.954,151.986z"/>
</g>
<g>
	<path style="fill:#E17788;" d="M70.59,173.528l-17.121,59.508c0,0-1.837,1.996-6.79-0.729l-1.67-3.77
		c0,0,13.842-56.894,15.075-58.031C61.317,169.368,70.59,173.528,70.59,173.528z"/>
	<path style="fill:#FFA9A1;" d="M66.667,176.396l-16.817,58.449c0,0-4.198,0.054-7.757-3.609l17.513-60.868
		c0,0-0.215,1.334,1.307,2.958C62.436,174.95,65.572,176.214,66.667,176.396z"/>
	<path style="fill:#FFFFFF;" d="M70.59,173.528c-0.348,1.21-3.066,1.489-6.07,0.625c-3.005-0.864-5.158-2.546-4.81-3.755
		c0.348-1.21,3.066-1.49,6.071-0.625C68.785,170.637,70.939,172.318,70.59,173.528z"/>
	<path style="fill:#412E7C;" d="M69.253,173.143c-0.263,0.912-2.312,1.123-4.578,0.471c-2.266-0.652-3.89-1.92-3.628-2.832
		c0.263-0.912,2.312-1.123,4.578-0.471C67.891,170.963,69.516,172.231,69.253,173.143z"/>
	<g>
		<path style="fill:#FFFFFF;" d="M66.396,176.538c-0.003-0.001-0.005-0.001-0.008-0.002c-7.487-2.465-6.937-5.573-6.91-5.704
			c0.168-0.816,0.739-0.996,1.018-0.977c0.121,0.008,0.213,0.114,0.205,0.235c-0.008,0.12-0.112,0.212-0.232,0.205
			c-0.046-0.001-0.431,0.006-0.559,0.626c-0.006,0.028-0.501,2.853,6.616,5.196c0.116,0.038,0.179,0.163,0.141,0.279
			C66.63,176.508,66.51,176.571,66.396,176.538z"/>
	</g>
</g>
<g>
	<path style="fill:#412E7C;" d="M38.367,158.815l-5.343,74.371c0,0-1.666,2.809-8.181,0.832l-2.906-4.025
		c0,0,2.131-70.475,3.3-72.121C26.405,156.225,38.367,158.815,38.367,158.815z"/>
	<path style="fill:#7566DB;" d="M34.459,163.171l-5.248,73.048c0,0-4.932,1.11-10.037-2.319l5.465-76.071
		c0,0,0.08,1.626,2.277,3.159C29.114,162.521,33.124,163.229,34.459,163.171z"/>
	<path style="fill:#FFFFFF;" d="M38.367,158.815c-0.109,1.512-3.241,2.519-6.996,2.249c-3.755-0.27-6.711-1.714-6.603-3.226
		c0.109-1.512,3.241-2.519,6.996-2.249C35.519,155.859,38.475,157.303,38.367,158.815z"/>
	<path style="fill:#412E7C;" d="M33.391,158.457c-0.029,0.405-0.869,0.676-1.876,0.603c-1.007-0.072-1.8-0.46-1.771-0.865
		c0.029-0.405,0.869-0.675,1.877-0.603C32.627,157.665,33.42,158.052,33.391,158.457z"/>
	<g>
		<path style="fill:#FFFFFF;" d="M34.176,163.407c-0.003,0-0.007-0.001-0.01-0.001c-9.434-1.039-9.561-4.837-9.562-4.998
			c-0.005-1.004,0.623-1.358,0.956-1.405c0.145-0.021,0.28,0.081,0.3,0.226c0.021,0.144-0.079,0.277-0.222,0.3
			c-0.055,0.01-0.506,0.115-0.503,0.877c0.001,0.035,0.121,3.485,9.089,4.473c0.146,0.016,0.251,0.147,0.235,0.293
			C34.443,163.313,34.318,163.417,34.176,163.407z"/>
	</g>
</g>
<path style="fill:#209A9F;" d="M38.897,173.609l-1.598,70.565c0,0-1.445,2.734-7.697,1.167l-2.935-3.671
	c0,0-1.258-66.732-0.229-68.344C27.468,171.715,38.897,173.609,38.897,173.609z"/>
<linearGradient id="SVGID_20_" gradientUnits="userSpaceOnUse" x1="24.2374" y1="210.4012" x2="35.405" y2="210.4012">
	<stop  offset="0" style="stop-color:#209A9F"/>
	<stop  offset="1" style="stop-color:#46CFBC"/>
</linearGradient>
<path style="fill:url(#SVGID_20_);" d="M35.405,177.909l-1.57,69.31c0,0-4.612,1.279-9.598-1.726l1.635-72.178
	c0,0,0.151,1.533,2.3,2.881C30.321,177.543,34.145,178.026,35.405,177.909z"/>
<path style="fill:#FFFFFF;" d="M38.897,173.609c-0.033,1.434-2.947,2.532-6.51,2.451c-3.563-0.081-6.425-1.309-6.392-2.743
	c0.032-1.435,2.947-2.532,6.51-2.451C36.068,170.946,38.93,172.174,38.897,173.609z"/>
<path style="fill:#412E7C;" d="M36.367,173.552c-0.02,0.872-1.791,1.539-3.956,1.49c-2.166-0.049-3.905-0.795-3.885-1.667
	c0.02-0.872,1.791-1.539,3.956-1.49C34.647,171.933,36.386,172.68,36.367,173.552z"/>
<g>
	<path style="fill:#FFFFFF;" d="M35.148,178.145c-0.003,0-0.006,0-0.009,0c-8.968-0.544-9.265-4.129-9.273-4.282
		c-0.052-0.949,0.526-1.313,0.838-1.373c0.136-0.026,0.268,0.064,0.294,0.199c0.026,0.135-0.062,0.266-0.196,0.294
		c-0.051,0.012-0.474,0.132-0.435,0.853c0.002,0.033,0.276,3.29,8.801,3.807c0.139,0.008,0.244,0.128,0.236,0.266
		C35.397,178.044,35.283,178.148,35.148,178.145z"/>
</g>
<rect y="207.964" style="fill:#FCC419;" width="45.63" height="51.287"/>
<rect x="45.63" y="207.964" style="fill:#FAB005;" width="20.723" height="51.287"/>
<path style="fill:#F59F00;" d="M59.938,212.49h-7.893c-1.037,0-1.885,0.848-1.885,1.885c0,1.037,0.848,1.885,1.885,1.885h7.893
	c1.037,0,1.885-0.848,1.885-1.885C61.823,213.338,60.975,212.49,59.938,212.49z"/>
<path style="fill:#FCFFFC;" d="M80.732,38.066c5.331-0.867,11.025,0.857,14.944,4.583c1.255,1.143,2.057,2.664,3.117,3.967
	c1.13,0.128,2.179-0.469,3.267-0.671c3.678-0.841,7.687,0.453,10.431,2.985c1.438,1.281,2.195,3.085,3.065,4.76
	c1.826-0.218,3.71-0.578,5.514-0.006c3.088,0.7,5.886,3.398,6.929,6.357c0,0-49.814-0.024-73.524-0.063
	c-0.7-1.717-0.517-3.637-0.16-5.412c1.091-4.173,4.798-7.373,8.926-8.374c1.743-0.52,3.569-0.449,5.36-0.562
	c0.761-0.645,1.284-1.512,1.955-2.24C73.163,40.467,76.873,38.618,80.732,38.066"/>
<path style="fill:#FCFFFC;" d="M204.048,59.418c-4.179-0.679-8.641,0.672-11.713,3.592c-0.984,0.896-1.613,2.088-2.443,3.109
	c-0.886,0.101-1.708-0.367-2.561-0.526c-2.883-0.659-6.025,0.355-8.176,2.34c-1.127,1.004-1.721,2.418-2.402,3.731
	c-1.431-0.171-2.908-0.453-4.322-0.005c-2.42,0.548-4.613,2.663-5.431,4.982c0,0,39.043-0.019,57.627-0.049
	c0.548-1.346,0.405-2.85,0.126-4.241c-0.855-3.27-3.761-5.779-6.996-6.563c-1.366-0.408-2.797-0.352-4.201-0.44
	c-0.596-0.506-1.006-1.185-1.532-1.756C209.98,61.3,207.072,59.851,204.048,59.418"/>
<path style="fill:#FCFFFC;" d="M242.892,21.11c2.652-0.431,5.485,0.426,7.434,2.28c0.624,0.568,1.023,1.325,1.55,1.974
	c0.562,0.064,1.084-0.233,1.625-0.334c1.83-0.418,3.824,0.225,5.189,1.485c0.715,0.637,1.092,1.534,1.525,2.368
	c0.909-0.109,1.846-0.287,2.743-0.003c1.536,0.348,2.928,1.69,3.447,3.162c0,0-24.781-0.012-36.576-0.031
	c-0.348-0.854-0.257-1.809-0.08-2.692c0.543-2.076,2.387-3.668,4.44-4.166c0.867-0.259,1.776-0.224,2.667-0.279
	c0.378-0.321,0.639-0.752,0.972-1.115C239.127,22.304,240.972,21.384,242.892,21.11"/>
<path style="fill:#212529;" d="M297.513,259H326c0,0,0.789-3.566-5.872-4.84C316.92,253.547,299,252,299,252L297.513,259z"/>
<line style="fill:none;stroke:#412E7C;stroke-width:0.5;stroke-miterlimit:10;" x1="117" y1="258" x2="194" y2="258"/>
<g>
	<g>
		<path style="fill:#8FD6F9;" d="M256.472,145h-9.013c-1.714,0-2.871,1.405-2.582,3.138l1.338,7.978
			c0.398,1.614,1.959,2.884,3.607,2.884c1.648,0,2.78-1.27,2.634-2.884l-0.234-1.378h4.66h1.303l-0.23-1.307l-0.511-2.908
			l-0.23-1.307l-0.519-2.955L256.472,145L256.472,145z M248.297,149.969c-1.002,0-1.955-0.821-2.124-1.831
			c-0.169-1.01,0.507-1.831,1.506-1.831h7.727l0.508,2.908h-2.929l0.226,1.307h2.932l0.508,2.908h-4.653l-0.897-5.284
			c0-0.003-0.001-0.005-0.001-0.008c0-0.003-0.001-0.006-0.002-0.008l-0.021-0.124h-1.296l0.017,0.103c0,0-0.001,0-0.001,0
			c0.002,0.01,0.004,0.02,0.006,0.03C249.976,149.148,249.3,149.969,248.297,149.969L248.297,149.969z M248.518,151.277
			c0.679,0,1.27-0.219,1.719-0.59l0.447,2.627l0.399,2.376c0.243,1.051-0.393,1.979-1.44,2.003c-0.014,0-0.029,0.001-0.043,0.001
			c-1.009,0-1.966-0.821-2.135-1.831c-0.114-0.68-0.465-2.777-0.488-2.915l-0.378-2.26
			C247.174,151.058,247.839,151.277,248.518,151.277L248.518,151.277z"/>
	</g>
</g>
</svg>
