<?xml version="1.0" encoding="utf-8"?>
<!-- Generator: Adobe Illustrator 24.0.0, SVG Export Plug-In . SVG Version: 6.00 Build 0)  -->
<svg version="1.1" id="Layer_1" xmlns="http://www.w3.org/2000/svg" xmlns:xlink="http://www.w3.org/1999/xlink" x="0px" y="0px"
	 viewBox="0 0 365.137 279" style="enable-background:new 0 0 365.137 279;" xml:space="preserve">
<linearGradient id="SVGID_1_" gradientUnits="userSpaceOnUse" x1="58.1708" y1="139.5" x2="337.1708" y2="139.5">
	<stop  offset="0" style="stop-color:#FBEBF1"/>
	<stop  offset="1" style="stop-color:#FDD3D1"/>
</linearGradient>
<circle style="fill:url(#SVGID_1_);" cx="197.671" cy="139.5" r="139.5"/>
<g>
	<g>
		<path style="fill:#FFFFFF;" d="M210.413,107.673h-50.982c-0.151,0-0.274-0.122-0.274-0.274V42.274
			c0-0.151,0.122-0.274,0.274-0.274h50.982c0.151,0,0.274,0.122,0.274,0.274V107.4C210.686,107.551,210.564,107.673,210.413,107.673
			z M159.705,107.126h50.435V42.547h-50.435V107.126z"/>
	</g>
	<rect x="166.668" y="49.511" style="fill:#FFFFFF;" width="36.507" height="50.651"/>
	<g>
		<path style="fill:#FFFFFF;" d="M239.764,91.395h-21.529c-0.151,0-0.274-0.122-0.274-0.274V74.692c0-0.151,0.122-0.274,0.274-0.274
			h21.529c0.151,0,0.274,0.122,0.274,0.274v16.429C240.037,91.272,239.915,91.395,239.764,91.395z M218.508,90.848h20.982V74.966
			h-20.982V90.848z"/>
	</g>
	<g>
		<path style="fill:#FFFFFF;" d="M272.622,94.858h-26.067c-0.151,0-0.274-0.122-0.274-0.274V74.692c0-0.151,0.122-0.274,0.274-0.274
			h26.067c0.151,0,0.274,0.122,0.274,0.274v19.892C272.895,94.735,272.773,94.858,272.622,94.858z M246.828,94.311h25.52V74.966
			h-25.52V94.311z"/>
	</g>
	
		<rect x="253.364" y="75.327" transform="matrix(-1.836970e-16 1 -1 -1.836970e-16 344.2263 -174.9496)" style="fill:#FFFFFF;" width="12.448" height="18.623"/>
	<g>
		<path style="fill:#FFFFFF;" d="M268.083,68.682h-21.529c-0.151,0-0.274-0.122-0.274-0.274V51.979c0-0.151,0.122-0.274,0.274-0.274
			h21.529c0.151,0,0.274,0.122,0.274,0.274v16.429C268.357,68.559,268.234,68.682,268.083,68.682z M246.828,68.135h20.982V52.253
			h-20.982V68.135z"/>
	</g>
	<g>
		<path style="fill:#FFFFFF;" d="M239.764,68.682h-16.429c-0.151,0-0.274-0.122-0.274-0.274V46.879c0-0.151,0.122-0.274,0.274-0.274
			h16.429c0.151,0,0.274,0.122,0.274,0.274v21.529C240.037,68.559,239.915,68.682,239.764,68.682z M223.608,68.135h15.882V47.153
			h-15.882V68.135z"/>
	</g>
	
		<rect x="224.507" y="53.152" transform="matrix(-1.836970e-16 1 -1 -1.836970e-16 289.1929 -173.9052)" style="fill:#FFFFFF;" width="14.085" height="8.985"/>
	<g>
		<path style="fill:#FFFFFF;" d="M145.147,97.151h-44.922c-0.151,0-0.274-0.122-0.274-0.274V56.099c0-0.151,0.122-0.274,0.274-0.274
			h44.922c0.151,0,0.274,0.122,0.274,0.274v40.778C145.421,97.028,145.298,97.151,145.147,97.151z M100.498,96.604h44.375V56.373
			h-44.375V96.604z"/>
	</g>
	
		<rect x="108.501" y="60.231" transform="matrix(-1.836970e-16 1 -1 -1.836970e-16 199.174 -46.1978)" style="fill:#FFFFFF;" width="28.371" height="32.515"/>
</g>
<rect x="277.811" y="139.346" style="fill:#FFA8A8;" width="13.332" height="12.296"/>
<polygon style="fill:#281B51;" points="53.968,258.948 57.156,258.948 67.956,224.548 56.393,224.548 "/>
<polygon style="fill:#281B51;" points="304.224,258.948 301.035,258.948 289.041,224.548 301.798,224.548 "/>
<rect x="48.477" y="147.797" style="fill:#D73B61;" width="261.237" height="34.342"/>
<linearGradient id="SVGID_4_" gradientUnits="userSpaceOnUse" x1="48.4773" y1="203.3436" x2="309.714" y2="203.3436">
	<stop  offset="0.0031" style="stop-color:#FF7289"/>
	<stop  offset="1" style="stop-color:#FBC8C7"/>
</linearGradient>
<rect x="48.477" y="182.139" style="fill:url(#SVGID_4_);" width="261.237" height="42.408"/>
<g>
	<linearGradient id="SVGID_5_" gradientUnits="userSpaceOnUse" x1="172.4574" y1="189.9262" x2="173.1029" y2="189.9262">
		<stop  offset="0" style="stop-color:#371984"/>
		<stop  offset="1" style="stop-color:#003677"/>
	</linearGradient>
	<path style="fill:url(#SVGID_5_);" d="M172.78,198.036c-0.178,0-0.323-0.144-0.323-0.323v-15.573c0-0.178,0.144-0.323,0.323-0.323
		c0.178,0,0.323,0.144,0.323,0.323v15.573C173.103,197.891,172.958,198.036,172.78,198.036z"/>
</g>
<rect x="288.51" y="147.797" style="fill:#FBC8C7;" width="21.204" height="34.342"/>
<rect x="48.477" y="147.797" style="fill:#FF7289;" width="21.204" height="34.342"/>
<g>
	<path style="fill:#281B51;" d="M288.832,206.232H69.359v-58.54h219.474V206.232z M70.004,205.586h218.183v-57.249H70.004V205.586z"
		/>
</g>
<g>
	<path style="fill:#281B51;" d="M310.037,224.871H48.155v-77.179h261.882V224.871z M48.8,224.225h260.591v-75.888H48.8V224.225z"/>
</g>
<g>
	<rect x="48.349" y="205.586" style="fill:#281B51;" width="261.098" height="0.645"/>
</g>
<g>
	
		<ellipse transform="matrix(0.768 -0.6405 0.6405 0.768 -77.3036 69.7625)" style="fill:#BABABA;" cx="57.636" cy="141.577" rx="3.693" ry="3.693"/>
	<polygon style="fill:#BABABA;" points="56.236,139.336 51.648,139.568 54.19,142.66 	"/>
	<polygon style="fill:#BABABA;" points="56.43,139.566 58.666,135.553 60.317,139.199 	"/>
</g>
<path style="fill:#BABABA;" d="M55.251,147.615l2.994,11.429h0.917l1.154-11.429h1.941l4.313,11.429h0.971l-0.459-11.429H89.1
	c0,0,1.302-10.483-14.933-10.041C66.092,137.793,55.481,136.719,55.251,147.615z"/>
<path style="fill:#BABABA;" d="M87.836,142.888c1.187,3.072,9.288,2.494,10.666,5.395c1.378,2.901-1.286,8.612-2.503,9.455
	c-1.216,0.843-4.002,0.934-2.325-1.848c1.678-2.782,3.968-7.754-2.008-8.275c-1.186-0.103-4.329,0.609-4.865-3.299
	C86.691,143.506,87.836,142.888,87.836,142.888z"/>
<ellipse transform="matrix(0.1285 -0.9917 0.9917 0.1285 35.7908 222.6274)" style="fill:#212529;" cx="144.565" cy="90.95" rx="4.002" ry="1.473"/>
<path style="fill:#212529;" d="M153.438,94.442c-1.105,1.914-1.283,3.88-0.398,4.391c0.885,0.511,2.499-0.626,3.604-2.54
	c1.105-1.914,1.283-3.88,0.398-4.391C156.156,91.39,154.543,92.528,153.438,94.442z"/>
<circle style="fill:#212529;" cx="151.318" cy="95.864" r="3.893"/>
<path style="fill:#3A80BD;" d="M147.372,135.967l-15.078-2.158l1.487-23.158c0.197-3.8-0.191-10.249,14.939-9.607
	c3.932,0.167,7.232,0.126,9.556-0.337c4.166-0.831,1.493,7.368,0.518,9.687L147.372,135.967z"/>
<path style="fill:#FFA8A8;" d="M117.522,81.392c0.221-0.506,0.263-2.152,0.375-2.558c0.733-2.643-0.625-2.785-1.025-3.715
	c-0.282-0.656-1.507-2.386-2.782-1.951c-0.531,0.181-1.021,1.588-1.063,2.933c-0.056,1.786,2.127,4.325,2.127,4.325
	s0.381,2.183,0.566,1.968C115.906,82.179,117.522,81.392,117.522,81.392z"/>
<path style="fill:#3A80BD;" d="M140.416,101.435c3.779-0.501-0.584,6.49-3.224,8.941c-2.639,2.451-11.868-4.263-15.243-7.924
	c-6.527-7.08-7.282-15.299-6.75-21.28c0.672-0.278,1.717-0.644,2.532-0.346c1.847,4.364,5.05,10.442,8.255,14.33
	C129.735,99.7,135.766,102.051,140.416,101.435z"/>
<path style="fill:#FF8787;" d="M149.981,104.285c0,0-0.873,1.281-2.809,0.844c-1.939-0.438-2.427-1.655-2.427-1.655l1.855-7.611
	l4.985,0.913L149.981,104.285z"/>
<path style="fill:#FFA8A8;" d="M154.508,95.235c-1.199,3.721-5.495,5.564-7.776,4.931c-2.281-0.633-3.235-4.624-2.036-8.345
	c1.199-3.721,3.282-6.127,6.378-5.13C154.169,87.689,155.707,91.514,154.508,95.235z"/>
<path style="fill:#BAC8FF;" d="M111.712,141.577c-1.163,3.084-2.238,35.009-2.238,35.009h3.317c0,0,4.438-14.601,5.72-19.609
	c0.562-2.196,1.653-9.204,1.653-9.204l3.236,27.947h3.313c0,0,2.75-14.153,3.158-19.164c0.233-2.86-0.336-8.758-0.336-8.758
	s11.658,0.904,17.636,0.203c2.423-0.284,4.611-2.271,5.516-4.25c1.546-3.38-1.948-9.254-5.817-9.254
	c-5.726,0-14.575-0.686-14.575-0.686S113.434,137.012,111.712,141.577z"/>
<g>
	<path style="fill:#DBE4FF;" d="M140.367,148.623c-4.876,0-10.492-0.533-10.858-0.569c-0.061-0.006-0.119-0.034-0.161-0.078
		l-2.28-2.373c-0.099-0.103-0.095-0.266,0.007-0.365c0.103-0.099,0.266-0.095,0.365,0.007l2.214,2.304
		c1.235,0.114,14.016,1.256,17.013-0.111c0.13-0.06,0.283-0.002,0.342,0.128c0.059,0.13,0.002,0.283-0.128,0.342
		C145.697,148.449,143.152,148.623,140.367,148.623z"/>
</g>
<g>
	<path style="fill:#DBE4FF;" d="M121.523,162.389c-0.132,0-0.244-0.1-0.257-0.234c-0.006-0.064-0.611-6.446-1.358-12.899
		c-0.475-4.106-0.047-6.913,1.311-8.582c0.918-1.129,2.242-1.756,4.046-1.919c0.142-0.012,0.268,0.092,0.28,0.234
		c0.013,0.142-0.092,0.267-0.234,0.28c-1.659,0.149-2.866,0.715-3.692,1.73c-1.265,1.555-1.657,4.236-1.198,8.196
		c0.748,6.459,1.353,12.847,1.359,12.91c0.013,0.142-0.091,0.268-0.233,0.281C121.539,162.389,121.531,162.389,121.523,162.389z"/>
</g>
<path style="fill:#212529;" d="M143.425,88.347c0.751,1.581,4.066,5.309,10.004,3.098c1.897-0.706,0.79,3.114,1.316,3.248
	c1.718,0.439,3.439-0.741,3.525-2.99c0.194-5.099-3.798-7.266-8.724-6.713c-1.565,0.176,0.915-2.183-2.183-2.087
	C143.24,83.032,142.756,86.938,143.425,88.347z"/>
<path style="fill:#212529;" d="M154.223,90.394c-0.415,1.6-0.283,6.409,0.049,6.495c0.332,0.086,0.937-1.141,1.352-2.741
	c0.415-1.6,0.482-2.967,0.151-3.053C155.442,91.009,154.638,88.794,154.223,90.394z"/>
<path style="fill:#FFA8A8;" d="M152.792,95.393c-0.367,0.899-0.209,1.814,0.353,2.043c0.562,0.229,1.314-0.314,1.681-1.214
	c0.367-0.899,0.209-1.814-0.353-2.043C153.911,93.95,153.159,94.494,152.792,95.393z"/>
<g>
	<path style="fill:#DBE4FF;" d="M127.254,148.273c-0.132,0-0.244-0.1-0.257-0.234c-0.013-0.142,0.091-0.268,0.233-0.281l2.28-0.217
		c0.142-0.013,0.268,0.091,0.281,0.233c0.013,0.142-0.091,0.268-0.233,0.281l-2.28,0.217
		C127.271,148.272,127.262,148.273,127.254,148.273z"/>
</g>
<path style="fill:#FFA8A8;" d="M236.4,76.558c-0.191-0.722,0.117-3.053,0.053-3.63c-0.421-3.761,1.481-3.926,2.239-5.233
	c0.534-0.922,2.607-3.339,4.266-2.69c0.691,0.27,1.052,2.275,0.81,4.18c-0.321,2.529-3.893,6.067-3.893,6.067
	s-1.011,3.08-1.218,2.771C238.451,77.714,236.4,76.558,236.4,76.558z"/>
<path style="fill:#209A9F;" d="M188.885,107.554c-6.887,2.306-4.305,8.203-1.232,13.531c3.074,5.328,24.627-4.751,28.583-7.834
	c8.219-6.405,22.712-30.541,23.268-36.931c-0.272-0.645-2.363-0.872-3.176-0.961c-2.113,2.133-19.989,28.506-24.423,28.844
	C202.932,104.888,190.813,106.909,188.885,107.554z"/>
<ellipse transform="matrix(0.2535 -0.9673 0.9673 0.2535 40.2904 232.3132)" style="fill:#212529;" cx="170.664" cy="90.052" rx="3.619" ry="2.615"/>
<ellipse transform="matrix(0.1285 -0.9917 0.9917 0.1285 62.2681 258.9599)" style="fill:#212529;" cx="178.476" cy="94.051" rx="5.562" ry="4.562"/>
<path style="fill:#209A9F;" d="M174.545,158.206l-26.294-0.615c0,0-4.075-22.575-1.962-31.739c1.633-7.081,1.299-5.491,3.256-8.812
	c2.99-5.074,1.078-13.382,24.276-13.382c12.995,0,28.674,8.482,17.366,21.303L174.545,158.206z"/>
<path style="fill:#FFFFFF;" d="M96.171,171c-3,39,10.779,86.881,10.779,86.881l5.822-0.452l2.702-76.75l5.087,0.698
	c0,0,0.971,5.952,2.619,14.405c2.735,14.034,17.405,61.568,17.405,61.568l6.585-3.351c0,0-5.126-61.645-5.451-72.124
	c21.702,1.545,26.641,0.264,31.634-5.772c4.266-5.158,1.097-17.897,1.097-17.897l-31.82-0.605c0,0-30.518,0.091-36.85,3.163
	C101.171,163,96.789,162.963,96.171,171z"/>
<g>
	
		<rect x="70.948" y="48.496" transform="matrix(0.5873 -0.8094 0.8094 0.5873 -30.6624 88.3893)" style="fill:#6BA3D6;" width="0.775" height="51.527"/>
</g>
<g>
	<path style="fill:#6BA3D6;" d="M92.188,90.422c-0.21,0-0.422-0.064-0.606-0.197L76.181,79.051
		c-0.462-0.335-0.564-0.981-0.229-1.442c0.335-0.462,0.981-0.564,1.442-0.229l15.401,11.174c0.462,0.335,0.564,0.981,0.229,1.442
		C92.822,90.274,92.507,90.422,92.188,90.422z"/>
</g>
<path style="fill:#FFA8A8;" d="M96.594,92.541c-0.179-0.725-1.568-2.622-1.789-3.16c-1.436-3.501-3.184-2.733-4.476-3.516
	c-0.911-0.552-3.89-1.678-5.034-0.312c-0.477,0.569,0.169,2.501,1.296,4.056c1.496,2.065,6.327,3.454,6.327,3.454
	s2.366,2.217,2.398,1.847C95.35,94.539,96.594,92.541,96.594,92.541z"/>
<path style="fill:#281B51;" d="M41.933,56.312l1.819-7.044c0.166-0.642,0.821-1.029,1.464-0.863l16.423,4.242
	c0.643,0.166,1.029,0.821,0.863,1.464l-1.819,7.043c-0.166,0.642-0.821,1.029-1.464,0.863l-16.423-4.242
	C42.153,57.61,41.767,56.954,41.933,56.312z"/>
<rect x="47.378" y="53.102" transform="matrix(-0.2501 0.9682 -0.9682 -0.2501 118.7326 18.4603)" style="fill:#8BB7DF;" width="9.678" height="4.219"/>
<path style="fill:#209A9F;" d="M160.507,107.85c-2.668,10.634-3.07,15.196-11.737,18.972c-7.24,3.154-23.783,0.093-35.84-11.371
	c-4.061-3.862-17.332-16.722-19.01-21.399c0,0,2.005-1.771,2.324-2.08c2.324,1.754,20.788,17.655,31.099,19.775
	c7.702,1.584,23.976-4.435,30.853-5.925C160.563,105.308,160.754,106.865,160.507,107.85z"/>
<linearGradient id="SVGID_6_" gradientUnits="userSpaceOnUse" x1="161.7271" y1="112.201" x2="181.117" y2="112.201">
	<stop  offset="0" style="stop-color:#157B8D"/>
	<stop  offset="1" style="stop-color:#209A9F"/>
</linearGradient>
<path style="fill:url(#SVGID_6_);" d="M168.464,105.22c-4.21,0.524-6.921,4.728-6.727,7.853c0.194,3.126,0.774,4.381,0.774,4.381
	l8.153-4.381c0,0,4.444,2.387,4.444,6.339c3.72-2.229,5.636-5.157,5.974-7.118c0.338-1.961-1.79-7.193-3.824-7.288
	C175.223,104.912,168.464,105.22,168.464,105.22z"/>
<linearGradient id="SVGID_7_" gradientUnits="userSpaceOnUse" x1="166.6436" y1="109.6929" x2="178.4763" y2="109.6929">
	<stop  offset="0" style="stop-color:#FBBEB9"/>
	<stop  offset="1" style="stop-color:#F99E96"/>
</linearGradient>
<path style="fill:url(#SVGID_7_);" d="M178.476,108.785c0,2.253-3.974,5.594-7.331,5.594c-2.607,0-4.865-3.116-4.453-5.293
	c0.645-3.417,3.593-4.199,6.196-4.065C176.761,105.22,178.476,106.532,178.476,108.785z"/>
<path style="fill:#FFA8A8;" d="M177.581,106.299c0.676,0.391,1.234,0.935,1.324,1.347c0.591,2.679,2.081,2.743,2.871,3.377
	c0.556,0.448,1.259,1.782,2.09,1.484c0.528-0.189,1.046-2.749,0.453-3.957c-0.788-1.604-4.349-3.376-4.349-3.376
	s-0.916-1.198-0.978-0.922C178.929,104.529,177.581,106.299,177.581,106.299z"/>
<path style="fill:#3A80BD;" d="M175.858,102.309c-0.469-0.189-1.933-0.688-2.595-0.874c0.302,2.448,0.346,4.031,0.755,4.134
	c2.478,0.62,2.509,0.352,3.873,1.242c0.574-0.079,1.42-1.456,1.813-2.027C178.323,103.256,177.504,102.973,175.858,102.309z"/>
<path style="fill:#3A80BD;" d="M174.363,101.943c-2.622-1.185-9.701-2.316-13.898-1.737c-4.002,0.552-4.97,2.268-5.228,3.284
	c-1,3.937-0.455,3.112,1.194,2.772c1.496-0.309,7.15-2.032,10.447-2.208c2.292,0.175,1.463,0.52,7.141,1.514
	C173.628,102.835,174.167,102.636,174.363,101.943z"/>
<linearGradient id="SVGID_8_" gradientUnits="userSpaceOnUse" x1="168.5295" y1="104.8477" x2="178.4763" y2="104.8477">
	<stop  offset="0" style="stop-color:#FBBEB9"/>
	<stop  offset="1" style="stop-color:#F99E96"/>
</linearGradient>
<path style="fill:url(#SVGID_8_);" d="M176.826,107.208c0,0-4.699,3.696-6.689,3.169c-1.608-0.426-1.608-2.877-1.608-2.877
	s1.656-2.488,2.007-3.378c0.516-1.309,0.089-4.633,0.089-4.633l7.851-0.223c0,0-0.661,3.061-0.896,4.171
	C177.193,105.267,176.826,107.208,176.826,107.208z"/>
<path style="fill:#FFA8A8;" d="M180.229,97.146c-2.204,3.818-6.772,5.55-8.807,4.689c-2.324-0.984-3.342-6.366-0.758-12.627
	c1.682-4.075,5.383-3.748,8.559-1.914C182.399,89.127,182.433,93.328,180.229,97.146z"/>
<circle style="fill:#212529;" cx="173.017" cy="86.353" r="3.699"/>
<path style="fill:#212529;" d="M182.342,89.575c-0.402,1.227-2.241,1.087-3.648,0.625c-1.407-0.461-2.821-2.643-2.419-3.869
	c0.402-1.227,1.869-1.847,3.276-1.385C180.959,85.407,182.744,88.348,182.342,89.575z"/>
<ellipse style="fill:#212529;" cx="182.047" cy="92.157" rx="2.93" ry="4.248"/>
<path style="fill:#212529;" d="M174.549,85.453c0-0.793,1.189-1.678,2.877-1.883c3.687-0.446,5.112,4.443,5.112,5.237
	c0,0.793-0.101,1.121-1.798,1.121C179.043,89.927,174.549,86.246,174.549,85.453z"/>
<path style="fill:#FFA8A8;" d="M181.196,96.331c-0.346,1.074-1.059,1.806-1.593,1.634s-0.686-1.182-0.34-2.256
	c0.346-1.074,1.059-1.806,1.593-1.634C181.39,94.247,181.542,95.257,181.196,96.331z"/>
<circle style="fill:#212529;" cx="176.237" cy="87.909" r="1.687"/>
<g>
	<path style="fill:#BAC8FF;" d="M146.781,251.812c-0.575-0.277-5.292-74.847-5.292-74.847c-0.01-0.142,0.098-0.266,0.24-0.275
		c0.141-0.009,0.265,0.098,0.275,0.24l5.167,75.07C147.181,252.142,147.171,252,146.781,251.812z"/>
</g>
<g>
	<path style="fill:#BAC8FF;" d="M112.443,259.154c-0.003,0-0.007,0-0.01,0c-0.142-0.005-0.253-0.125-0.248-0.268l3.032-78.216
		c0.001-0.037,0.011-0.072,0.027-0.105l1.746-3.5c0.064-0.128,0.219-0.179,0.346-0.116c0.128,0.064,0.179,0.219,0.116,0.346
		l-1.721,3.45l-3.03,78.161C112.695,259.045,112.581,259.154,112.443,259.154z"/>
</g>
<g>
	<path style="fill:#BAC8FF;" d="M135.709,161.573c-0.126,0-0.236-0.093-0.255-0.221c-0.021-0.141,0.077-0.272,0.218-0.293
		c2.773-0.403,5.606-0.745,8.42-1.016c0.142-0.013,0.268,0.091,0.282,0.232c0.014,0.142-0.09,0.268-0.232,0.282
		c-2.805,0.27-5.63,0.611-8.395,1.013C135.734,161.572,135.721,161.573,135.709,161.573z"/>
</g>
<g>
	<path style="fill:#BAC8FF;" d="M129.006,162.685c-0.122,0-0.23-0.087-0.254-0.211c-0.026-0.14,0.066-0.275,0.206-0.301
		c0.846-0.158,1.706-0.311,2.556-0.456c0.14-0.024,0.274,0.07,0.298,0.211c0.024,0.141-0.071,0.274-0.211,0.298
		c-0.847,0.145-1.705,0.298-2.549,0.455C129.037,162.684,129.021,162.685,129.006,162.685z"/>
</g>
<g>
	<path style="fill:#BAC8FF;" d="M139.671,253.971c-0.11,0-0.211-0.07-0.246-0.181c-4.449-14.106-8.787-28.934-14.063-48.079
		c-0.486-1.736-0.888-3.397-1.314-5.155c-0.355-1.464-0.721-2.977-1.139-4.528c-0.623-2.39-0.994-4.592-1.386-6.923
		c-0.097-0.575-0.195-1.157-0.297-1.748c-0.001-0.006-0.002-0.012-0.003-0.019l-0.065-0.645c-0.238-2.372-0.463-4.612-0.582-6.984
		c0-3.198,0-6.492,0.617-9.734c0.027-0.14,0.162-0.231,0.302-0.205c0.14,0.027,0.232,0.162,0.205,0.302
		c-0.609,3.195-0.609,6.463-0.609,9.625c0.118,2.347,0.342,4.58,0.579,6.945l0.064,0.636c0.103,0.59,0.2,1.169,0.296,1.742
		c0.39,2.32,0.759,4.511,1.376,6.877c0.419,1.555,0.786,3.072,1.141,4.539c0.425,1.754,0.826,3.41,1.31,5.139
		c5.275,19.139,9.61,33.962,14.058,48.062c0.043,0.136-0.033,0.281-0.169,0.324C139.723,253.967,139.696,253.971,139.671,253.971z"
		/>
</g>
<g>
	<path style="fill:#BAC8FF;" d="M105.935,254.466c-0.106,0-0.206-0.066-0.243-0.172c-1.837-5.185-5.941-24.641-8.452-44.549
		c-1.388-11.002-2.075-20.345-2.042-27.771c0.039-8.899,1.135-14.764,3.258-17.43c3.655-4.592,12.249-5.317,21.347-6.085l0.75-0.063
		c13.327-1.129,27.559-1.063,27.701-1.062l26.204,0.615c0.143,0.003,0.255,0.122,0.252,0.264c-0.003,0.142-0.121,0.259-0.264,0.252
		l-26.199-0.615c-0.137,0-14.346-0.068-27.65,1.06l-0.75,0.063c-8.984,0.758-17.47,1.475-20.986,5.892
		c-3.764,4.728-4.157,20.644-1.108,44.816c2.507,19.874,6.598,39.279,8.427,44.441c0.048,0.134-0.023,0.282-0.157,0.33
		C105.993,254.461,105.964,254.466,105.935,254.466z"/>
</g>
<g>
	<path style="fill:#BAC8FF;" d="M115.475,180.938c-0.095,0-0.186-0.052-0.231-0.143l-3.032-6.071
		c-0.064-0.128-0.012-0.283,0.116-0.346c0.127-0.064,0.283-0.012,0.346,0.116l3.032,6.071c0.064,0.128,0.012,0.283-0.116,0.346
		C115.553,180.929,115.514,180.938,115.475,180.938z"/>
</g>
<path style="fill:#FFA8A8;" d="M178.924,173.888c-1.807-0.258-3.356-0.904-5.163-1.42c-0.446-0.081-0.88-0.162-1.308-0.239
	l-6.452,32.941l-4.272,49.959l4.368,0.367c0,0,10.879-30.664,15.421-48.545c1.355-5.333,3.179-13.481,3.179-13.481
	s1.322,4.266,0.554,10.754c-1.807,15.26,5.549,53.546,5.549,53.546h3.746l8.925-75.65c-4.965-2.78-10.434-4.365-15.767-6.423
	C184.862,174.533,182.022,174.404,178.924,173.888z"/>
<path style="fill:#DBE4FF;" d="M216.397,158.37l-25.346-0.276l-1.483-23.562c-1.249-5.548-1.374-14.876,4.474-20.315
	c0.759-0.706,3.207-1.446,4.116-2c5.973-3.641,20.831-1.56,26.579,1.177c6.401,3.048,10.008,5.705,8.596,11.973L216.397,158.37z"/>
<path style="fill:#5C7CFA;" d="M226.621,158.632l-15.71-2.032c0,0-22.861-0.609-29.487,2.692c-2.761,1.376-8.865,3.598-11.046,9.517
	c-3.308,8.976-6.806,47.327-6.806,47.327l39.364,0.352c0,0,1.197-7.366,1.323-9.847c0.311-6.126-0.791-24.521-0.791-24.521
	l18.224-0.243L226.621,158.632z"/>
<path style="fill:#FFA8A8;" d="M206.72,163.862c-2.721,0.337-4.209,2.737-4.245,3.461c-0.036,0.723,2.724,1.485,5.81,0.955
	c2.71-0.465,4.036-1.334,5.298-3.771c0.252-0.487-0.608-0.417-1.045-0.801C210.738,162.129,208.964,163.585,206.72,163.862z"/>
<path style="fill:#BAC8FF;" d="M232.57,116.229c-3.896-2.222-11.066,0.249-10.878,6.993c0.188,6.744,1.572,15.508-3.508,29.89
	c-1.788,5.061-4.795,7.479-6.751,9.074c-0.388,0.317,0.353,3.136,1.623,3.237c9.431,0.753,17.966-5.41,20.303-11.371
	C237.065,144.6,234.931,117.576,232.57,116.229z"/>
<path style="fill:#FF8787;" d="M197.967,169.541c1.559,2.624,2.223,4.604,2.979,4.319c0.756-0.285,2.604-4.46,0.685-7.371
	c-1.685-2.556-2.368-3.507-5.423-3.709c-0.611-0.04-1.49,0.951-1.687,1.568C193.711,166.886,196.682,167.377,197.967,169.541z"/>
<path style="fill:#DBE4FF;" d="M192.231,115.434c3.628-2.636,4.893-0.155,4.704,6.589c-0.188,6.744-7.976,18.395-7.024,22.743
	c2.023,9.231,5.765,14.699,7.129,17.739c0.455,1.013-2.402,1.245-2.928,2.002c-1.479-1.253-14.756-11.395-15.395-19.741
	C177.944,134.643,187.701,118.725,192.231,115.434z"/>
<path style="fill:#212529;" d="M193.209,258.915l-13.666,0.033c0,0-0.917-1.822,3.972-2.757c2.355-0.45,6.769-2.012,6.769-2.012
	l4.738-0.467l0.466,2.81C195.764,257.958,194.67,258.904,193.209,258.915z"/>
<path style="fill:#212529;" d="M163.987,258.915l-15.047,0.033c0,0-0.904-2.155,3.985-3.09c2.355-0.45,8.406-1.65,8.406-1.65
	l4.657,0.484c0,0,0.008,1.484,0.011,1.852C166.014,258.201,165.449,258.904,163.987,258.915z"/>
<ellipse transform="matrix(0.2418 -0.9703 0.9703 0.2418 59.9699 287.5523)" style="fill:#FFFFFF;" cx="213.99" cy="105.401" rx="4.579" ry="7.029"/>
<linearGradient id="SVGID_9_" gradientUnits="userSpaceOnUse" x1="207.7964" y1="109.4987" x2="216.6636" y2="109.4987">
	<stop  offset="0" style="stop-color:#FBBEB9"/>
	<stop  offset="1" style="stop-color:#F99E96"/>
</linearGradient>
<path style="fill:url(#SVGID_9_);" d="M215.673,114.323c-0.998,1.191-2.671,0.801-5.655-0.01c-1.755-0.477-2.388-1.691-2.186-2.446
	c0.227-0.845,1.41-1.739,1.816-2.99c0.389-1.199,0.938-4.956,0.938-4.956l6.077,1.856c0,0-0.606,2.155-0.745,4.346
	C215.808,111.863,216.254,113.63,215.673,114.323z"/>
<path style="fill:#FFFFFF;" d="M209.018,93.153c-1,0.975-6.066,9.541-3.843,11.367c7.541,6.193,2.086-7.775,4.687-10.409
	c0.352-0.356,0.76-0.565,1.206-0.657c-0.158-0.467-0.318-0.933-0.48-1.399C209.942,92.396,209.407,92.773,209.018,93.153z"/>
<ellipse transform="matrix(0.1151 -0.9934 0.9934 0.1151 90.0971 293.4558)" style="fill:#FFFFFF;" cx="209.762" cy="96.157" rx="5.061" ry="3.664"/>
<linearGradient id="SVGID_10_" gradientUnits="userSpaceOnUse" x1="207.5989" y1="99.1017" x2="220.2588" y2="99.1017">
	<stop  offset="0" style="stop-color:#FBBEB9"/>
	<stop  offset="1" style="stop-color:#F99E96"/>
</linearGradient>
<path style="fill:url(#SVGID_10_);" d="M219.834,100.45c-0.985,4.743-4.952,7.764-8.928,7.104c-2.593-0.431-3.973-4.899-2.988-9.642
	c0.985-4.743,4.456-8.048,8.402-7.229C220.265,91.503,220.819,95.707,219.834,100.45z"/>
<path style="fill:#FFFFFF;" d="M218.995,89.147c-3.372-0.978-6.581,0.785-8.361,2.697c0.189,0.414,0.375,0.829,0.561,1.245
	c2.107-1.237,6.051,1.81,6.966,2.746c3.33,3.404-3.947,11.757,1.11,13.77c5.057,2.013,6.46-5.636,7.265-10.201
	C227.34,94.838,223.216,90.371,218.995,89.147z"/>
<ellipse transform="matrix(0.6442 -0.7648 0.7648 0.6442 -2.0192 207.9407)" style="fill:#FFFFFF;" cx="222.5" cy="106.141" rx="4.579" ry="4.579"/>
<ellipse transform="matrix(0.3282 -0.9446 0.9446 0.3282 55.4781 262.0217)" style="fill:#FFFFFF;" cx="211.946" cy="92.008" rx="4.006" ry="3.664"/>
<ellipse transform="matrix(0.3282 -0.9446 0.9446 0.3282 56.8491 268.0102)" style="fill:#FFFFFF;" cx="216.842" cy="94.039" rx="2.131" ry="3.817"/>
<path style="fill:#FFA8A8;" d="M219.917,102.712c-0.496,1.09-1.338,1.773-1.88,1.526c-0.543-0.247-0.58-1.331-0.084-2.42
	s1.338-1.773,1.88-1.526C220.375,100.538,220.413,101.622,219.917,102.712z"/>
<path style="fill:#FBCE67;" d="M201.165,113.693c2.293-0.911,5.814-1.998,6.214-0.991c0.4,1.007,2.05,2.075-2.547,5.843
	c-1.763,1.445-6.662,3.711-7.062,2.704C197.37,120.241,198.872,114.604,201.165,113.693z"/>
<g>
	<path style="fill:#BAC8FF;" d="M205.732,156.992c-0.013,0-0.026-0.001-0.039-0.003c-0.141-0.021-0.238-0.153-0.217-0.294l4-26.581
		c0.008-0.054,0.033-0.104,0.071-0.143c0.092-0.094,9.205-9.439,8.877-15.418c-0.008-0.142,0.101-0.264,0.244-0.272
		c0.14-0.008,0.264,0.101,0.272,0.244c0.33,6.016-8.1,14.857-8.965,15.748l-3.988,26.498
		C205.967,156.901,205.857,156.992,205.732,156.992z"/>
</g>
<g>
	<path style="fill:#BAC8FF;" d="M194.112,164.766c-0.126,0-0.237-0.093-0.255-0.222c-0.02-0.141,0.078-0.272,0.219-0.292
		c0.372-0.053,1.721-0.961,2.573-1.583c-0.158-0.568-0.909-2.144-1.767-3.943c-2.237-4.692-5.617-11.782-5.227-14.692
		c0.552-4.121,4.907-13.758,5.092-14.166c0.059-0.13,0.212-0.187,0.342-0.128c0.13,0.059,0.187,0.212,0.128,0.342
		c-0.045,0.099-4.509,9.976-5.051,14.022c-0.369,2.758,2.971,9.764,5.182,14.401c1.178,2.471,1.795,3.783,1.843,4.249
		c0.009,0.091-0.03,0.18-0.103,0.234c-0.379,0.281-2.305,1.685-2.939,1.776C194.137,164.765,194.125,164.766,194.112,164.766z"/>
</g>
<path style="fill:#FBCE67;" d="M217.629,111.596c-0.224-0.141-1.376-0.812-1.61-0.676c0.154,0.594,0.245,1.162-0.231,1.338
	c-2.704,0.999-7.017,0.149-7.64-0.435c-0.793-0.743,0.458-1.066,0.458-1.066s-0.824-1.505-1.79-0.462
	c-0.966,1.043-2.476,4.698-0.972,6.063c2.68,2.432,9.614,4.557,12.839,0.725c0.462-0.443,0.91-1.273,0.565-2.542
	C218.806,112.914,218.517,112.157,217.629,111.596z"/>
<path style="fill:#FBCE67;" d="M203.502,121.551c-0.278-2.167-1.547-4.521-0.595-4.643c0.952-0.122,3.553-5.188,5.775-0.418
	c0.852,1.83-1.65,10.889-2.601,11.011C205.129,127.622,203.78,123.717,203.502,121.551z"/>
<g>
	<path style="fill:#BAC8FF;" d="M209.732,130.412c-0.098,0-0.191-0.056-0.235-0.151l-1.075-2.35
		c-0.059-0.13-0.002-0.283,0.127-0.342c0.13-0.059,0.283-0.002,0.342,0.127l1.075,2.35c0.059,0.13,0.002,0.283-0.127,0.342
		C209.804,130.404,209.768,130.412,209.732,130.412z"/>
</g>
<g>
	<path style="fill:#4C6EF5;" d="M204.158,197.916c-0.142,0-0.257-0.114-0.258-0.256c-0.043-4.875-0.316-9.771-0.836-14.969
		c-0.078-0.781-0.799-1.263-1.562-1.773c-0.349-0.233-0.71-0.474-1.022-0.753c-0.106-0.095-0.115-0.258-0.02-0.365
		c0.095-0.106,0.258-0.115,0.364-0.02c0.285,0.255,0.63,0.486,0.964,0.709c0.829,0.554,1.687,1.128,1.789,2.151
		c0.521,5.213,0.796,10.125,0.838,15.016c0.001,0.143-0.113,0.259-0.256,0.26C204.16,197.916,204.159,197.916,204.158,197.916z"/>
</g>
<g>
	<path style="fill:#4C6EF5;" d="M203.469,182.377c-0.102,0-0.199-0.061-0.24-0.162l-1.987-4.939
		c-0.053-0.132,0.011-0.283,0.143-0.336c0.132-0.053,0.283,0.011,0.336,0.143l1.987,4.939c0.053,0.132-0.011,0.283-0.143,0.336
		C203.533,182.371,203.501,182.377,203.469,182.377z"/>
</g>
<g>
	<path style="fill:#3A80BD;" d="M201.056,174.122c-0.684,0-1.401-0.745-2.188-2.273c-0.065-0.127-0.015-0.282,0.111-0.348
		c0.127-0.065,0.282-0.015,0.348,0.111c0.958,1.86,1.556,2.012,1.77,1.991c0.09-0.009,0.165-0.013,0.228-0.017
		c0.038-0.002,0.079-0.005,0.109-0.008c0.016-0.059,0.034-0.167,0.053-0.281c0.062-0.365,0.166-0.975,0.471-2.048
		c0.039-0.137,0.182-0.216,0.319-0.178c0.137,0.039,0.217,0.182,0.178,0.319c-0.298,1.046-0.399,1.639-0.459,1.993
		c-0.09,0.532-0.139,0.687-0.64,0.717c-0.058,0.004-0.126,0.008-0.208,0.016C201.117,174.12,201.086,174.122,201.056,174.122z"/>
</g>
<path style="fill:#FAB005;" d="M325.639,234.543c-0.375-5.835-0.961-11.653-1.652-17.458c-1.328-11.152-2.974-22.266-4.031-33.449
	c0.189,0.558,0.187-1.479-0.224-2.96c-0.657-2.367-1.912-4.401-2.815-6.66c-0.645-1.678-0.972-7.339-1.746-9.017
	c-1.259-2.741-3.47-3.484-5-6l-0.134,49.768c4.872,21.835,11.657,46.186,11.657,46.186s2.065,0,4.427-1.016
	C326.732,253.675,325.752,236.291,325.639,234.543z"/>
<path style="fill:#FCC419;" d="M345.171,203c0,0-7.046-40.297-12.844-52.342C328.014,141.696,321.171,139,321.171,139l-16.638,6.692
	h5.504v13.382c1.23,1.982,2.201,3.692,3.235,5.941c2.71,5.892,4.016,12.422,6.843,19.266c3.741,9.056,4.477,10.614,11.417,21.563
	c9.903,15.622,27.899,39.276,27.899,39.276s2.522,0.203,3.748-2.747C357.838,222.548,345.171,203,345.171,203z"/>
<path style="fill:#212529;" d="M287.615,99.147c-0.775-3.227-1.936-6.067-3.744-8.907c-2.422-3.806-5.772-6.067-9.036-8.623
	c-0.283,0.345-0.573,0.707-0.853,1.086c-1.589,2.151-2.034,4.559-1.664,7.21c0.337,2.418,1.336,4.657,1.868,7.021
	c0.088,0.391,0.173,0.785,0.257,1.18c0.366,2.489-1.342,4.629-2.695,6.469c-0.327,0.556-0.783,1.127-0.839,1.783
	c-0.013,1.041,0.857,1.852,1.869,1.609c-0.228,0.285-0.569,0.713-0.412,0.956c0.572,1.624,2.44,2.064,3.875,2.54
	c0.374,0.104,0.766,0.18,1.169,0.241c1.609,0.243,3.375,0.244,4.763,0.81c0.345,0.095,0.699,0.141,1.053,0.127
	c0.354-0.014,0.709-0.087,1.055-0.232c0.335-0.165,0.643-0.401,0.929-0.677c1.31-1.268,2.151-3.398,2.998-3.557
	C288.392,105.17,288.443,102.158,287.615,99.147z"/>
<g>
	<defs>
		<path id="SVGID_11_" d="M339.976,112.066c-1.103-3.042-2.762-5.885-4.648-8.083c-2.26-2.633-5.514-4.607-8.984-4.579
			c-1.769,0.014-3.701,0.503-5.197-0.441c-0.958-0.604-1.507-1.675-2.322-2.461c-2.048-1.973-4.771-1.245-7.261-0.861
			c-1.042,0.161-2.081,0.259-3.106,0.079c-2.481-0.437-3.693-2.626-4.389-4.842c-0.865-2.755-1.494-5.62-3.706-7.673
			c-2.312-2.147-4.895-0.369-7.438-0.082c-2.694,0.304-3.683-1.972-5.545-3.429c-1.969-1.54-4.325-2.569-6.864-2.063
			c-1.609,0.321-3.175,1.333-4.304,2.505c-1.658,1.721-0.871,1.853,0.829,3.183c2.575,2.016,5.058,4.135,6.832,6.922
			c1.807,2.84,2.969,5.68,3.743,8.907c0.828,3.012,0.778,6.023,0.592,9.035c0.077-0.014,0.153-0.014,0.231,0.006
			c1.508,0.393,3.123,0.599,4.273,1.775c1.814,1.855,3.695,3.529,5.597,5.005c0.475,0.369,0.952,0.726,1.415,1.085
			c0.109,0.541,0.23,1.066,0.361,1.574c0.131,0.508,0.272,1.001,0.423,1.476c0.224,0.717,0.467,1.47,0.736,2.236
			c0.268,0.766,0.562,1.545,0.887,2.314c0.298,0.728,0.623,1.489,0.973,2.278c1.927,4.487,4.287,10.53,9.732,10.339
			c3.703-0.415,1.712-4.432,4.573-6.294c1.55-1.009,4.242,0.518,5.775,0.958c2.721,0.78,5.491,0.775,8.283,0.406
			c4.805-0.636,8.608-3.842,9.615-8.665C341.779,119.328,341.245,115.565,339.976,112.066z"/>
	</defs>
	<use xlink:href="#SVGID_11_"  style="overflow:visible;fill:#212529;"/>
	<clipPath id="SVGID_12_">
		<use xlink:href="#SVGID_11_"  style="overflow:visible;"/>
	</clipPath>
	<path style="clip-path:url(#SVGID_12_);fill:#212529;" d="M277.233,85.874c3.54-2.605,3.152-3.46,3.324-3.914
		c0.172-0.455,1.625,2.529,6.016,1.016c1.746-0.265,0.137,4.554,3.881,6.232c3.743,1.678,1.53,4.862,5.799,5.723
		c4.269,0.861,6.593,0.607,10.853,3.122c4.26,2.515,8.778,10.352,11.747,14.243c2.969,3.891,14.438,3.762,16.061,7.247
		c1.624,3.485,5.517,2.711,6.475,0c0.958-2.711,0.699,5.914,0.699,5.914l-12.263,10.447l-14.935-3.582
		c0,0-26.252-19.651-26.57-20.023c-0.318-0.372-13.372-18.94-13.372-18.94L277.233,85.874z"/>
</g>
<linearGradient id="SVGID_13_" gradientUnits="userSpaceOnUse" x1="265.3777" y1="122.1948" x2="322.8269" y2="122.1948">
	<stop  offset="0" style="stop-color:#FF576D"/>
	<stop  offset="1" style="stop-color:#F03344"/>
</linearGradient>
<path style="fill:url(#SVGID_13_);" d="M322.827,140.419l-17.349,7.273l-3.449-0.015l-35.768-30.701
	c-3.909-4.528,6.233-14.254,9.652-16.27c0,0,11.413-3.85,15.052-3.993c5.364-0.211,14.725,1.885,16.793,7.498L322.827,140.419z"/>
<path style="fill:#FFA8A8;" d="M286.281,87.314c0.43,5.766-2.695,8.269-5.495,8.554c-1.878,0.191-5.585-3.827-5.44-8.211
	c0.145-4.384,2.06-7.391,5.707-7.271C284.699,80.506,285.954,82.939,286.281,87.314z"/>
<linearGradient id="SVGID_14_" gradientUnits="userSpaceOnUse" x1="280.0191" y1="97.8974" x2="289.1838" y2="97.8974">
	<stop  offset="0" style="stop-color:#FBBEB9"/>
	<stop  offset="1" style="stop-color:#F99E96"/>
</linearGradient>
<path style="fill:url(#SVGID_14_);" d="M289.176,99.354c-0.15,1.526-1.703,4.014-4.379,4.852c-1.574,0.492-2.588-2.182-2.819-2.929
	c-0.258-0.836,0.184-2.204-0.145-3.476c-0.316-1.221-1.814-4.701-1.814-4.701l5.834-1.572c0,0,0.508,2.082,1.794,4.052
	C288.596,97.033,289.263,98.467,289.176,99.354z"/>
<path style="fill:#212529;" d="M323.961,258.881l-14.464,0.211c0,0-0.626-1.378,4.114-2.896c2.468-0.79,12.674-3.174,12.674-3.174
	l0.431,2.595C327.066,257.339,325.717,258.938,323.961,258.881z"/>
<ellipse transform="matrix(0.6292 -0.7772 0.7772 0.6292 41.8967 253.7749)" style="fill:#212529;" cx="286.933" cy="82.975" rx="3.472" ry="4.453"/>
<path style="fill:#212529;" d="M288.51,88.869c0,2.479-0.691,4.489-1.544,4.489s-1.544-2.01-1.544-4.489
	c0-2.479,0.691-4.489,1.544-4.489S288.51,86.39,288.51,88.869z"/>
<path style="fill:#212529;" d="M286.647,80.37c-1.87-1.08-3.912-1.178-5.021-0.348c-0.544-0.576-1.346-0.958-2.26-1.082
	c-0.867-0.559-1.979-0.895-3.191-0.895c-2.77,0-5.015,1.752-5.015,3.914c0,2.162,2.245,3.914,5.015,3.914
	c0.754,0,1.469-0.131,2.111-0.364c0.243-0.026,0.488-0.068,0.735-0.13c1.089-0.272,1.992-0.855,2.584-1.583
	c0.487,0.665,1.181,1.291,2.033,1.783c2.244,1.295,4.736,1.179,5.567-0.26C290.036,83.882,288.891,81.665,286.647,80.37z"/>
<path style="fill:#FFA8A8;" d="M286.469,87.998c-0.045,1.163-0.55,2.087-1.129,2.065c-0.579-0.022-1.012-0.983-0.967-2.146
	s0.55-2.087,1.129-2.065C286.081,85.874,286.514,86.835,286.469,87.998z"/>
<path style="fill:#212529;" d="M286.574,82.975c-4.391,1.513-5.844-1.47-6.016-1.016c-0.169,0.448,0.2,1.284-3.166,3.796
	c0.31-0.061,0.61-0.142,0.894-0.246c0.243-0.026,0.488-0.068,0.735-0.13c1.089-0.272,1.992-0.855,2.584-1.583
	c0.487,0.665,1.181,1.291,2.033,1.783c1.541,0.89,3.2,1.113,4.357,0.7C287.457,84.531,287.635,82.814,286.574,82.975z"/>
<g>
	<path style="fill:#FFFFFF;" d="M284.129,111.41c-0.058,0-0.116-0.02-0.163-0.058c-2.84-2.323-4.326-6.388-3.699-10.115
		c0.024-0.141,0.157-0.236,0.297-0.212c0.141,0.024,0.235,0.157,0.212,0.297c-0.587,3.483,0.762,7.273,3.363,9.501
		c2.391-1.769,4.792-3.673,6.309-5.639c1.609-2.085,2.106-4.034,1.566-6.134c-0.036-0.138,0.048-0.279,0.186-0.314
		c0.139-0.036,0.279,0.048,0.314,0.186c1.272,4.942-3.168,8.703-8.232,12.438C284.237,111.393,284.183,111.41,284.129,111.41z"/>
</g>
<path style="fill:#212529;" d="M361.912,249.792l-9.416,6.657l-1.865,0.156c0,0-0.554-0.422,0.231-2.394
	c0.485-1.218,5.827-7.653,8.569-10.091c0.842-0.748,3.748-2.747,3.748-2.747l1.859,3.875
	C365.604,247.19,363.628,248.722,361.912,249.792z"/>
<path style="fill:#FFA8A8;" d="M302.782,152.808c-0.565,0.303-1.163,1.03-1.552,1.386c-0.834,0.762-2.165,1.972-3.634,2.586
	c-0.826,0.345-4.796,0.605-5.185,2.344c-0.218,0.973,4.555,2.554,7.369,1.501c2.977-1.114,3.673-4.319,3.673-4.319
	s1.6-2.702,1.303-2.669C304.458,153.671,302.782,152.808,302.782,152.808z"/>
<linearGradient id="SVGID_15_" gradientUnits="userSpaceOnUse" x1="291.9609" y1="126.2956" x2="319.4863" y2="126.2956">
	<stop  offset="0" style="stop-color:#FF786D"/>
	<stop  offset="1" style="stop-color:#F03344"/>
</linearGradient>
<path style="fill:url(#SVGID_15_);" d="M292.01,104.653c1.621-3.132-0.727-7.199,1.388-7.593c3.74-0.696,8.543-0.349,12.107,2.059
	c6.324,4.273,12.301,19.573,13.606,25.598c1.302,6.012-0.943,13.2-4.377,18.919c-3.865,6.436-9.155,11.118-11.013,12.206
	c-0.882,0.109-2.311-1.098-2.763-2.327c1.818-4.885,11.01-12.441,7.993-25.289C306.608,118.249,290.971,106.661,292.01,104.653z"/>
<path style="fill:#FFFFFF;" d="M246.373,102.813c0.649,1.241,3.666-4.839,3.956-6.053s2.276-6.595,1.115-6.062
	c-1.161,0.532-2.406-1.614-3.524-1.143C246.802,90.025,244.371,98.986,246.373,102.813z"/>
<path style="fill:#281B51;" d="M261.253,161.629c0,0-26.385-1.226-26.385-1.226c-10.718,0.329-18.904-3.81-21.886,14.814
	c-0.554,3.46,0.83,22.979,2.248,34.326c1.767,14.144,7.252,44.878,7.252,44.878l5.452,0.404l4.218-73.396
	c0,0,13.526,1.133,16.762,1.239c2.844,0.093,14.27,0.181,14.27,0.181l-14.566,72.782l6.633,0.048c0,0,30.995-68.913,29.12-81.255
	C281.817,157.617,261.253,161.629,261.253,161.629z"/>
<path style="fill:#FFFFFF;" d="M270.828,161.217c0,0-14.698,1.556-19.619,1.563c-7.742,0.01-16.341-2.376-16.341-2.376
	l-7.839-39.155c-1.669-5.841,5.942-14.358,25.173-14.366c22.248-0.009,26.371,10.859,24.702,16.7L270.828,161.217z"/>
<path style="fill:#212529;" d="M218.541,258.908h13.534c0,0,0-4.984-6.767-4.956C218.916,253.978,218.541,258.908,218.541,258.908z"
	/>
<path style="fill:#FFA8A8;" d="M198.071,163.389c-2.584,1.783-2.028,5.544-1.85,6.153c0.293,1.003,3.585-2.302,6.254-2.219
	c1.956,0.061,3.644-2.32,4.245-3.461c0.478-0.906,0.074-0.527-0.259-1.308C205.75,160.886,200.962,161.395,198.071,163.389z"/>
<path style="fill:#FFFFFF;" d="M228.055,115.111c4.504-6.118,8.372,2.44,8.218,7.935c-0.153,5.495-0.45,22.119-3.451,27.205
	c-5.36,9.084-24.013,13.447-26.188,13.869c-1.764-0.861-1.666-2.31-1.997-2.524c3.16-2.296,8.34-3.288,15.583-15.219
	C224.512,139.307,222.385,122.813,228.055,115.111z"/>
<path style="fill:#FFFFFF;" d="M296.522,133.742c0.492-2.163,0.16-4.475,0.601-6.538c-2.723-3.979-6.2-7.649-9.984-10.271
	c-0.6-0.968-12.707-8.939-21.199-8.939c-5.305,0-2.895,17.898,1.185,21.174c1.757,1.411,6.764,2.459,12.324,3.872
	c2.276,1.277,6.125,2.522,8.138,5.608c2.234-0.684,4.422-1.89,6.611-2.711C295.231,135.549,296.263,134.774,296.522,133.742z"/>
<linearGradient id="SVGID_16_" gradientUnits="userSpaceOnUse" x1="249.1708" y1="107.5664" x2="258.7524" y2="107.5664">
	<stop  offset="0" style="stop-color:#FBBEB9"/>
	<stop  offset="1" style="stop-color:#F99E96"/>
</linearGradient>
<polygon style="fill:url(#SVGID_16_);" points="258.752,112.319 249.75,112.071 249.171,102.813 258.188,102.813 "/>
<linearGradient id="SVGID_17_" gradientUnits="userSpaceOnUse" x1="246.5026" y1="112.7016" x2="262.2721" y2="112.7016">
	<stop  offset="0" style="stop-color:#FBBEB9"/>
	<stop  offset="1" style="stop-color:#F99E96"/>
</linearGradient>
<path style="fill:url(#SVGID_17_);" d="M246.755,110.719c-0.486,1.268-0.27,2.766,0.655,4.036c1.387,1.905,4.544,3.439,6.897,3.439
	c2.142,0,4.286-0.99,5.809-2.876c1.105-1.368,3.045-3.688,1.696-5.519c-1.591-2.158-5.02-2.594-7.22-2.592
	c-2.014,0.001-4.251,0.431-6.08,1.497C247.648,109.209,247.061,109.918,246.755,110.719z"/>
<path style="fill:#212529;" d="M247.684,258.759l20.57,0.148c0,0,0.917-2.766-3.972-3.7c-2.355-0.45-14.989-3.014-14.989-3.014
	L247.684,258.759z"/>
<linearGradient id="SVGID_18_" gradientUnits="userSpaceOnUse" x1="246.6192" y1="96.7399" x2="259.1414" y2="96.7399">
	<stop  offset="0" style="stop-color:#FBBEB9"/>
	<stop  offset="1" style="stop-color:#F99E96"/>
</linearGradient>
<path style="fill:url(#SVGID_18_);" d="M259.119,96.742c-0.208,5.421-3.625,9.976-7.68,9.82c-4.055-0.156-5.001-4.604-4.793-10.025
	c0.208-5.421,3.378-9.776,7.432-9.62C258.133,87.074,259.327,91.321,259.119,96.742z"/>
<path style="fill:#FFFFFF;" d="M262.098,89.883c-0.758-0.69-3.144,1.661-3.007,2.895c0.137,1.234-0.544,7.28,0.079,8.222
	c1.01,1.527,2.372-0.143,3-1C262.799,99.143,263.906,91.529,262.098,89.883z"/>
<path style="fill:#FFA8A8;" d="M261.004,98.417c-0.405,1.257-1.241,2.113-1.867,1.912c-0.626-0.202-0.805-1.385-0.4-2.642
	c0.405-1.257,1.241-2.113,1.867-1.912C261.23,95.977,261.409,97.159,261.004,98.417z"/>
<path style="fill:#FFFFFF;" d="M254.004,102.407l-2.834-0.505l-2.834,0.505c0-0.939,0.762-1.701,1.701-1.701h1.133h1.133
	C253.242,100.706,254.004,101.467,254.004,102.407L254.004,102.407z"/>
<path style="fill:#FFFFFF;" d="M261.325,89.192c0.321,3.564-6.101,3.564-10.155,3.564c-4.055,0-4.527-1.433-4.527-3.564
	c0-2.131,1.288-6.448,7.94-3.111C258.207,87.899,260.888,84.336,261.325,89.192z"/>
<g>
	<path style="fill:#C7D8EE;" d="M259.905,124.976c-0.078,0-0.154-0.036-0.204-0.1c-0.009-0.012-0.942-1.217-1.977-2.353
		c-1.96-2.15-2.397-1.996-2.414-1.988c-0.924,0.403-2.655-0.046-3.086-0.168l-5.605,2.602c-0.069,0.032-0.148,0.032-0.216,0
		c-0.061-0.028-1.509-0.705-2.77-2.321c-1.162-1.489-2.369-4.086-1.517-8.001c0.03-0.139,0.168-0.228,0.307-0.197
		c0.139,0.03,0.228,0.168,0.197,0.307c-1.427,6.56,3.142,9.29,3.895,9.69l5.579-2.59c0.058-0.027,0.124-0.031,0.184-0.013
		c0.543,0.166,2.108,0.529,2.824,0.217c0.359-0.157,1.024-0.058,3.004,2.115c0.829,0.91,1.592,1.862,1.881,2.228
		c0.652-0.286,3.02-1.481,4.386-4.222c0.064-0.128,0.219-0.179,0.346-0.116c0.128,0.064,0.18,0.219,0.116,0.346
		c-1.682,3.376-4.715,4.501-4.843,4.547C259.964,124.971,259.935,124.976,259.905,124.976z"/>
</g>
<path style="fill:#FFFFFF;" d="M257.843,91.906c0.727,2.465,1.405,9.55-3.839,10.719c-5.244,1.169-7.296-1.566-7.325-3.554
	c-0.029-1.988-0.036-3.482-0.036-3.482s-0.955,6.255,0,8.069c0.955,1.814,4.046,3.897,5.162,3.897
	c1.117-0.001,5.742-0.533,7.286-2.728c1.544-2.194,0.381-5.953,0.237-8.333c-0.144-2.38,0.542-4.865,0.542-4.865L257.843,91.906z"/>
<g>
	<path style="fill:#412E7C;" d="M232.151,181.687c-0.128,0-0.239-0.095-0.256-0.226l-0.434-3.454
		c-0.018-0.141,0.082-0.271,0.224-0.288c0.139-0.018,0.271,0.082,0.288,0.224l0.434,3.454c0.018,0.141-0.082,0.271-0.224,0.288
		C232.173,181.687,232.162,181.687,232.151,181.687z"/>
</g>
<g>
	<path style="fill:#FFFFFF;" d="M248.913,106.604c-0.05,0-0.101-0.015-0.146-0.045c-2.803-1.927-5.449-6.159-2.135-15.38
		c0.048-0.134,0.196-0.204,0.33-0.156c0.134,0.048,0.204,0.196,0.156,0.33c-2.535,7.054-1.864,12.165,1.942,14.78
		c0.117,0.081,0.147,0.242,0.067,0.359C249.076,106.565,248.995,106.604,248.913,106.604z"/>
</g>
<g>
	<path style="fill:#FFFFFF;" d="M258.498,105.66c-0.074,0-0.147-0.031-0.198-0.092c-0.092-0.109-0.078-0.272,0.032-0.364
		c0.421-0.353,0.704-0.702,0.843-1.037c0.666-1.604,0.447-2.538,0.445-2.547c-0.026-0.103,0.003-0.22,0.091-0.281
		c0.087-0.061,0.191-0.07,0.28-0.011c0,0,0.018,0.007,0.068,0.007c0.147,0,0.525-0.082,1.074-0.788
		c1.445-1.964,2.374-7.589,0.739-10.539c-0.069-0.125-0.024-0.282,0.101-0.351c0.125-0.069,0.282-0.024,0.351,0.101
		c1.752,3.162,0.782,8.979-0.779,11.101c-0.577,0.742-1.058,0.95-1.377,0.986c0.027,0.452-0.017,1.319-0.515,2.521
		c-0.171,0.412-0.504,0.827-0.988,1.235C258.616,105.64,258.557,105.66,258.498,105.66z"/>
</g>
<g>
	<path style="fill:#FFFFFF;" d="M251.88,107.998c-0.025,0-0.051-0.004-0.076-0.011c-1.155-0.356-2.176-0.836-3.037-1.427
		c-0.117-0.081-0.147-0.241-0.067-0.359c0.081-0.117,0.242-0.147,0.359-0.066c0.817,0.562,1.792,1.019,2.896,1.359
		c0.136,0.042,0.213,0.187,0.171,0.323C252.093,107.927,251.99,107.998,251.88,107.998z"/>
</g>
<g>
	<path style="fill:#FFFFFF;" d="M252.213,107.998c-0.137,0-0.251-0.108-0.258-0.246c-0.007-0.142,0.104-0.263,0.246-0.27
		c2.029-0.093,4.721-1.094,6.131-2.277c0.109-0.092,0.272-0.077,0.364,0.032c0.092,0.109,0.078,0.272-0.032,0.364
		c-1.484,1.247-4.312,2.3-6.439,2.398C252.221,107.998,252.217,107.998,252.213,107.998z"/>
</g>
<path style="fill:#F4A31A;" d="M240.839,186.56c0,0-7.369-3.267-7.423-3.292c-0.782-0.347-0.575-1.126,0.077-1.327
	c0.26-0.08,0.554-0.073,0.843-0.053c2.085,0.148,5.055,0.096,7.126,0.559c0.519,0.116,2.579,0.844,2.648,1.55
	c-0.469,0.717-1.277,2.098-2.137,2.587C241.707,186.737,241.159,186.702,240.839,186.56z"/>
<path style="fill:#F4A31A;" d="M248.738,193.295l-9.144-3.064c-0.474-0.16-0.553-0.801-0.128-1.065
	c0.579-0.36,1.334-0.728,2.024-0.75c1.153-0.036,9.948-0.003,9.69,1.854c-0.129,0.928-0.342,1.94-0.943,2.626
	C249.865,193.32,249.272,193.475,248.738,193.295z"/>
<path style="fill:#FBCE67;" d="M280.26,157.314c0.198,0.028,0.229,5.132,0.529,6.324c0.711,2.83,0.474,5.872-2.019,7.726
	c-1.928,1.433-9.551,2.266-13.45,1.376c-2.444,9.084-13.492,16.897-14.294,17.232c-1.679,0.702-3.049-1.115-3.049-1.115l6.4-17.878
	l-11.354,14.746l-2.263-2.567c0,0,5.322-21.941,8.99-23.013c4.178-1.221,14-4.799,14-4.799S280.251,157.312,280.26,157.314z"/>
<path style="fill:#FFA8A8;" d="M241.281,133.035c-0.442-0.029-1.22-0.849-1.565-0.925c-2.247-0.496-2.674-1.87-3.371-2.586
	c-0.491-0.505-1.713-1.129-1.691-1.901c0.014-0.491,1.888-1.015,2.984-0.49c1.455,0.697,3.199,3.551,3.199,3.551
	s1.714,1.222,1.513,1.285C242.15,132.031,241.281,133.035,241.281,133.035z"/>
<path style="fill:#E6EDF6;" d="M265.416,131.49c7.646,1.403,1.109,8.055-1.747,9.584s-9.934,0.098-13.13-0.732
	c-5.199-1.351-10.647-7.572-10.647-7.572l1.872-2.039c0,0,6.747,4.929,12.102,3.924C258.752,133.74,260.668,130.619,265.416,131.49z
	"/>
<path style="fill:#FFFFFF;" d="M275.77,157.632c0,0,0.531,0.625,2.042,0.737c1.415,0.105,2.195-0.195,2.195-0.195
	s4.153-13.596,3.328-18.838c-0.8-5.084-3.789-7.259-8.123-8.087c-2.602-0.497-3.855-1.717-8.938-0.055
	c-3.62,1.184-4.791,8.935-3.384,12.164C264.53,147.122,275.77,157.632,275.77,157.632z"/>
<path style="fill:#212529;" d="M271.08,118.226c-0.345,1.331-1.704,2.13-3.035,1.784c-1.331-0.345-2.13-1.704-1.784-3.035
	c0.345-1.331,1.704-2.13,3.035-1.784C270.626,115.536,271.425,116.895,271.08,118.226z"/>
<path style="fill:#FFA8A8;" d="M275.51,131.66c0,0-3.699,2.484-5.468,1.572c-1.927-0.994-0.983-2.285-0.983-2.285l0.765-7.389
	l5.79,2.446L275.51,131.66z"/>
<path style="fill:#FBCE67;" d="M266.272,131.195c-5.346,3.028-5.5,9.094-4.5,11.685c1,2.591,1.438,1.936,1.438,1.936l1.272,0.149
	c0,0-1.115-4.675-0.803-6.874c0.664-4.684,4.195-7.36,4.195-7.36L266.272,131.195z"/>
<path style="fill:#FFA8A8;" d="M277.542,125.172c-2.323,3.258-6.407,4.279-9.322,2.788c-1.704-0.872-2.566-5.727-0.255-9.636
	c2.039-3.448,5.341-3.703,8.525-1.433C279.673,119.161,279.865,121.914,277.542,125.172z"/>
<path style="fill:#FBCE67;" d="M261.295,139.346c0,0-0.442,9.037,0,10.802c0.505,2.017,3.514,5.969,3.514,5.969l8.506,1.789
	c0,0,3.316,0.757,2.454-0.274c-4.162-4.975-2.994-14.31-2.994-14.31L261.295,139.346z"/>
<circle style="fill:#212529;" cx="273.392" cy="115.46" r="4.836"/>
<ellipse transform="matrix(0.7943 -0.6075 0.6075 0.7943 -14.0909 193.2902)" style="fill:#212529;" cx="278.412" cy="117.455" rx="3.085" ry="4.067"/>
<path style="fill:#212529;" d="M281.954,123.659c-1.157,1.712-4.338,3.842-5.654,2.953c-1.315-0.889,0.919-4.911,2.076-6.624
	c1.157-1.712,1.976-1.927,3.291-1.039C282.983,119.838,283.111,121.947,281.954,123.659z"/>
<ellipse transform="matrix(0.6292 -0.7772 0.7772 0.6292 5.6973 261.3776)" style="fill:#FF8787;" cx="276.803" cy="124.717" rx="1.897" ry="1.035"/>
<path style="fill:#212529;" d="M289.085,115.172c2.876,1.143,4.155,4.171,2.503,5.631c-1.651,1.46-4.174,1.305-5.634-0.346
	c-1.46-1.651-4.7-1.172-3.049-2.632C284.557,116.365,287.036,114.358,289.085,115.172z"/>
<path style="fill:#212529;" d="M266.891,106.496c-2.017-0.888-3.721,0.615-4.622,2.57c-1.674,3.631,1.517,3.148,3.674,2.695
	s4.775,2.71,4.322,0.552C269.812,110.155,270.077,107.898,266.891,106.496z"/>
<path style="fill:#FBCE67;" d="M283.037,134.791c-2.936-2.735-6.859-3.896-9.472,5.3c-1.302,4.584-0.968,5.445-0.968,5.445
	l-4.407-1.468c0,0,3.233-8.63,6.722-11.665c2.125-1.848,5.485,0.533,6.196,0.728C281.82,133.326,283.037,134.791,283.037,134.791z"
	/>
<path style="fill:#FF8787;" d="M297.739,125.378c0.806-1.829,1.028-3.269,0.835-4.826c-0.193-1.557-2.045-4.508-2.703-3.175
	c-0.658,1.333,0.286,6.975,0.286,6.975s-0.108,1.233,0.085,1.095S297.739,125.378,297.739,125.378z"/>
<g>
	<path style="fill:#F4A31A;" d="M277.811,159.112c-0.021,0-0.043-0.003-0.064-0.008c-0.114-0.029-2.807-0.764-4.169-4.891
		c-1.653-5.008-1.738-9.653-0.257-14.201c0.044-0.136,0.189-0.21,0.325-0.166c0.135,0.044,0.21,0.19,0.165,0.325
		c-1.445,4.439-1.361,8.98,0.257,13.88c1.275,3.862,3.782,4.546,3.807,4.553c0.138,0.035,0.221,0.176,0.186,0.314
		C278.031,159.034,277.926,159.112,277.811,159.112z"/>
</g>
<path style="fill:#FFA8A8;" d="M275.525,161.049c-6.766,7.464-0.568,14.081,1.36,13.462c2.197-0.705,1.116-3.862,1.121-6.179
	c0.003-1.748-1.467-2.88,0.211-5.096C277.326,162.233,276.633,161.838,275.525,161.049z"/>
<g>
	<path style="fill:#FFA8A8;" d="M276.501,174.813c-1.389,0-2.482-1.45-2.532-1.518c-0.085-0.114-0.061-0.276,0.054-0.361
		c0.115-0.085,0.276-0.061,0.361,0.054c0.011,0.016,1.18,1.563,2.443,1.272c1.281-0.295,1.049-4.136,0.973-5.398l-0.012-0.196
		c-0.021-0.355-0.149-0.773-0.284-1.215c-0.399-1.301-0.895-2.919,0.667-4.636c0.096-0.105,0.259-0.113,0.365-0.017
		c0.105,0.096,0.113,0.259,0.017,0.365c-1.364,1.499-0.935,2.901-0.556,4.137c0.145,0.473,0.282,0.919,0.306,1.337l0.012,0.195
		c0.108,1.798,0.334,5.54-1.373,5.932C276.793,174.797,276.646,174.813,276.501,174.813z"/>
</g>
<path style="fill:#FFFFFF;" d="M298.511,129.367c-0.065,2.806-0.779,6.511-3.395,10.047c-1.67,2.258-3.66,3.941-5.934,4.576
	c0,3.391-1.434,7.64-8.495,12.686c-2.426,1.733-3.697,2.801-5.285,4.275c1.203,1.094,1.887,2.212,2.802,3.527
	c1.875-1.75,5.198-3.505,9.584-5.16c10.661-4.023,14.435-9.384,15.082-15.194C303.34,139.908,301.588,134.496,298.511,129.367z"/>
<path style="fill:#FFFFFF;" d="M280.316,133.554c-3.91-0.668-5.734,5.791-4.829,7.52c3.127,5.973,11.551,3.469,13.695,2.916
	c2.289-0.59,4.261-2.315,5.934-4.576c5.19-7.015,2.895-14.697,2.895-14.697l-1.854-0.366c0,0-1.77,10.771-8.325,10.349
	C283.491,134.421,281.262,133.716,280.316,133.554z"/>
<path style="fill:#212529;" d="M281.497,117.804l-1.117,0.605l0.995,1.889l1.154-0.527c0.537-0.245,0.779-0.865,0.549-1.409
	C282.821,117.749,282.081,117.488,281.497,117.804z"/>
<g>
	<path style="fill:#C7D8EE;" d="M287.531,134.893c-0.355,0-0.732-0.016-1.134-0.048c-0.142-0.011-0.248-0.136-0.237-0.278
		c0.011-0.142,0.133-0.249,0.278-0.237c4.514,0.36,5.626-1.415,7.467-4.357c0.16-0.256,0.326-0.52,0.498-0.791
		c0.077-0.12,0.237-0.155,0.356-0.079c0.12,0.077,0.156,0.236,0.079,0.356c-0.172,0.27-0.337,0.533-0.496,0.788
		C292.621,132.998,291.435,134.893,287.531,134.893z"/>
</g>
<g>
	<path style="fill:#C7D8EE;" d="M277.119,135.089c-0.073,0-0.146-0.031-0.198-0.092c-0.092-0.109-0.078-0.272,0.031-0.364
		l0.139-0.119c1.049-0.895,2.355-2.01,6.392-0.663c0.135,0.045,0.208,0.191,0.163,0.327c-0.045,0.135-0.191,0.208-0.327,0.163
		c-3.76-1.254-4.894-0.287-5.894,0.566l-0.142,0.121C277.236,135.069,277.177,135.089,277.119,135.089z"/>
</g>
<g>
	<path style="fill:#F4A31A;" d="M247.977,189.114c-0.029,0-0.06-0.005-0.089-0.016c-0.134-0.049-0.203-0.197-0.154-0.331
		l8.743-23.888c0.011-0.03,0.028-0.058,0.049-0.083c1.614-1.82,6.826-3.901,7.047-3.988c0.133-0.052,0.283,0.012,0.335,0.145
		c0.053,0.133-0.012,0.283-0.145,0.335c-0.053,0.021-5.246,2.094-6.819,3.815l-8.726,23.841
		C248.181,189.05,248.082,189.114,247.977,189.114z"/>
</g>
<g>
	<path style="fill:#F4A31A;" d="M265.32,172.997c-0.113,0-0.214-0.074-0.247-0.183l-0.977-3.197
		c-0.042-0.136,0.035-0.281,0.172-0.322c0.136-0.042,0.281,0.035,0.322,0.172l0.727,2.379l0.708-2.377
		c0.041-0.137,0.185-0.214,0.321-0.174c0.137,0.041,0.215,0.184,0.174,0.321l-0.952,3.197
		C265.535,172.922,265.435,172.997,265.32,172.997C265.321,172.997,265.32,172.997,265.32,172.997z"/>
</g>
<g>
	<path style="fill:#C7D8EE;" d="M283.553,145.114c-1.144,0-2.201-0.096-3.091-0.244c-0.141-0.023-0.236-0.156-0.212-0.297
		c0.023-0.141,0.157-0.235,0.297-0.212c4.107,0.686,11.867,0.224,14.892-5.854c2.574-5.171,3.258-9.844,2.092-14.283
		c-0.036-0.138,0.046-0.279,0.184-0.315c0.138-0.036,0.279,0.046,0.315,0.184c1.2,4.566,0.503,9.356-2.129,14.645
		C293.403,143.753,287.863,145.114,283.553,145.114z"/>
</g>
<path style="fill:#FF6F6D;" d="M26.808,237.745c-1.652-4.054-5.17-7.116-8.754-9.38c-3.584-2.263-11.152-6.085-15.397-10.878
	c-2.215-2.502-3.582-5.966-1.918-9.639c1.911-4.218,11.115-5.068,19.769,5.421c9.592,11.624,10.365,22.553,9.789,25.944
	C29.273,238.189,27.99,236.853,26.808,237.745z"/>
<linearGradient id="SVGID_19_" gradientUnits="userSpaceOnUse" x1="11.2684" y1="221.8392" x2="28.5229" y2="221.1203">
	<stop  offset="0" style="stop-color:#FF6F6D"/>
	<stop  offset="1" style="stop-color:#F04844"/>
</linearGradient>
<path style="fill:url(#SVGID_19_);" d="M23.186,225.963c0.286,4.766,3.121,8.851,7.245,10.702
	c-0.13-4.829-2.069-13.878-9.923-23.396c-2.942-3.566-5.947-5.818-8.708-7.076C15.955,212.821,22.918,221.49,23.186,225.963z"/>
<path style="fill:#FFFFFF;" d="M25.245,227.89c-7.795-11.644-17.033-16.104-19.678-17.193l0.221-0.537
	c2.684,1.105,12.054,5.627,19.94,17.407L25.245,227.89z"/>
<linearGradient id="SVGID_20_" gradientUnits="userSpaceOnUse" x1="53.1904" y1="220.0525" x2="0.9193" y2="186.7269">
	<stop  offset="0" style="stop-color:#209A9F"/>
	<stop  offset="1" style="stop-color:#46CFBC"/>
</linearGradient>
<path style="fill:url(#SVGID_20_);" d="M28.185,237.489c0.225-4.43,0.151-8.637-2.502-10.964c-2.814-2.468-6.674-3.968-7.552-7.848
	c-0.592-2.616,1.197-5.846,1.481-7.453c0.296-1.678,0.543-3.554-0.592-3.998c-1.135-0.444-1.53-1.58-1.728-3.208
	c-0.197-1.629-0.081-4.314,0.995-7.543c0.355-1.064,0.985-2.601,0.394-3.665s-1.222-1.3-1.222-3.349c0-2.049-0.544-4.514,0.36-7.407
	c0.394-1.261,1.423-2.311,0.822-3.942c-0.549-1.49-1.883-4.575-1.379-8.708c0.197-1.616,1.583-3.403,3.987-2.694
	c2.404,0.709,5.549,3.324,6.849,4.782c1.3,1.458,2.638,3.126,3.663,4.071c1.025,0.946,1.578,1.913,2.918,3.731
	c1.103,1.497,1.489,3.98,1.458,6.147c-0.039,2.719-0.433,5.201,0.749,6.147c1.182,0.946,4.374,2.404,3.625,9.654
	c-0.11,5.954-2.048,29.663-4.058,36.05C34.228,237.004,29.462,236.969,28.185,237.489z"/>
<linearGradient id="SVGID_21_" gradientUnits="userSpaceOnUse" x1="45.1185" y1="235.1431" x2="22.8397" y2="194.0526">
	<stop  offset="0" style="stop-color:#1A8894"/>
	<stop  offset="0.4708" style="stop-color:#209A9E"/>
	<stop  offset="1" style="stop-color:#36B5AE"/>
</linearGradient>
<path style="fill:url(#SVGID_21_);" d="M36.886,191.587c-0.462-0.369-0.681-0.975-0.777-1.735c-4.239,7.999-3.418,11.455-2.1,16.855
	c1.228,5.033-0.908,23.743-4.367,30.498c1.98-0.204,5.125-0.132,6.811,0.086c0.233-0.741,0.465-1.718,0.694-2.871l1.656-11.616
	c0.959-8.589,1.644-18.092,1.708-21.563C41.26,193.99,38.068,192.532,36.886,191.587z"/>
<linearGradient id="SVGID_22_" gradientUnits="userSpaceOnUse" x1="34.0086" y1="208.4124" x2="55.4035" y2="208.4124">
	<stop  offset="0" style="stop-color:#D1E9F3"/>
	<stop  offset="1" style="stop-color:#A9D8E9"/>
</linearGradient>
<path style="fill:url(#SVGID_22_);" d="M34.651,237.068c-2.851-19.171,4.156-35.92,13.66-53.344
	c1.808-3.315,4.483-8.002,6.216-7.399c1.733,0.603,0.458,6.217-0.115,9.01c-5.726,27.874-9.775,43.571-15.078,55.218
	C38.591,239.278,35.464,237.031,34.651,237.068z"/>
<linearGradient id="SVGID_23_" gradientUnits="userSpaceOnUse" x1="57.2243" y1="227.9802" x2="42.0752" y2="207.0555">
	<stop  offset="0" style="stop-color:#73B0CD"/>
	<stop  offset="1" style="stop-color:#A9D8E9"/>
</linearGradient>
<path style="fill:url(#SVGID_23_);" d="M42.652,211.68c-3.856,6.33-4.664,20.068-2.218,26.053c0.133-0.217,0.264-0.435,0.395-0.653
	c4.319-10.606,7.938-24.696,12.647-47.224C50.408,200.39,46.507,205.351,42.652,211.68z"/>
<linearGradient id="SVGID_24_" gradientUnits="userSpaceOnUse" x1="66.1462" y1="225.6885" x2="35.0999" y2="203.2344">
	<stop  offset="0" style="stop-color:#209A9F"/>
	<stop  offset="1" style="stop-color:#46CFBC"/>
</linearGradient>
<path style="fill:url(#SVGID_24_);" d="M44.023,237.078c0.843-4.676,2.759-7.972,6.592-9.505c3.833-1.533,9.858-1.222,12.418-4.676
	c2.801-3.779-2.496-5.9-1.262-7.931c1.384-2.277,7.004-1.996,10.267-7.857c2.411-4.33,0.011-9.005-4.241-10.401
	c-5.848-1.92-10.628,0.478-12.678,3.259c-1.25,1.696-0.582,3.079-1.518,4.285c-1.384,1.786-5.178,2.143-7.455,2.053
	c-2.277-0.089-3.973,0.491-4.598,1.875c-0.625,1.384,0.491,2.321,2.366,3.214c1.875,0.893,3.42,2.127,2.946,4.062
	c-0.536,2.187-2.675,2.846-4.821,4.91c-2.366,2.277-4.241,4.464-4.598,8.705c-0.357,4.241,1.786,7.008,2.991,8.66
	C42.085,236.84,43.104,236.646,44.023,237.078z"/>
<polygon style="fill:#FBE0CC;" points="46.038,235.727 21.137,235.727 24.76,258.872 42.415,258.872 "/>
<path style="fill:#8F7C6C;" d="M37.79,237.733l-16.043-0.442l0.049,2.649c8.216,1.281,18.208,3.446,22.319,8.071l1.773-11.326
	C43.762,236.386,40.751,238.034,37.79,237.733z"/>
<rect x="20.208" y="235.727" style="fill:#C7AC97;" width="26.648" height="3.972"/>
<path style="fill:#FFFFFF;" d="M41.959,231.702l-0.574-0.091c0.462-2.914,2.869-6.486,7.362-10.921c1.907-1.882,3.41-4.2,5-6.654
	c2.982-4.6,6.362-9.813,13.492-13.858l0.287,0.505c-7.007,3.975-10.346,9.125-13.291,13.668c-1.608,2.481-3.128,4.825-5.079,6.752
	C44.754,225.449,42.4,228.916,41.959,231.702z"/>
<path style="fill:#FFFFFF;" d="M31.721,227.735l-0.581-0.014c0.027-1.116-0.101-2.622-0.278-4.707
	c-0.301-3.551-0.755-8.918-0.749-16.606c0.01-12.454-3.576-25.848-9.592-35.826l0.498-0.3c6.068,10.066,9.685,23.571,9.675,36.127
	c-0.006,7.663,0.447,13.015,0.747,16.556C31.62,225.069,31.749,226.588,31.721,227.735z"/>
<g>
	<linearGradient id="SVGID_25_" gradientUnits="userSpaceOnUse" x1="66.2165" y1="224.2604" x2="51.7818" y2="194.4743">
		<stop  offset="0" style="stop-color:#2FAFAA"/>
		<stop  offset="0.5071" style="stop-color:#46CFBC"/>
		<stop  offset="1" style="stop-color:#83DDD0"/>
	</linearGradient>
	<path style="fill:url(#SVGID_25_);" d="M67.797,196.709c-5.848-1.92-10.628,0.478-12.678,3.259
		c-1.25,1.696-0.582,3.079-1.518,4.285c-1.384,1.786-5.178,2.143-7.455,2.053c-2.277-0.089-3.973,0.491-4.598,1.875
		c-0.625,1.384,0.491,2.321,2.366,3.214c1.325,0.631,2.482,1.434,2.881,2.533c-0.381-7.122,4.742-5.575,6.466-7.75
		c3.401-4.292,6.88-6.001,10.264-6.429c3.073-0.388,7.927,0.628,9.43,4.546C73.326,200.915,71.132,197.803,67.797,196.709z"/>
	<linearGradient id="SVGID_26_" gradientUnits="userSpaceOnUse" x1="45.2365" y1="234.4277" x2="30.8017" y2="204.6416">
		<stop  offset="0" style="stop-color:#2FAFAA"/>
		<stop  offset="0.5071" style="stop-color:#46CFBC"/>
		<stop  offset="1" style="stop-color:#83DDD0"/>
	</linearGradient>
	<path style="fill:url(#SVGID_26_);" d="M44.37,218.482c-0.719,0.534-1.524,1.111-2.33,1.886c-2.366,2.277-4.241,4.464-4.598,8.705
		c-0.209,2.488,0.443,4.465,1.26,6.011C38.232,229,41.664,223.174,44.37,218.482z"/>
</g>
<path style="fill:#FDF0E5;" d="M23.449,241.382l2.53,15.734h14.907C40.886,257.116,28.378,255.465,23.449,241.382z"/>
<path style="fill:#212529;" d="M112.443,258.896l-19.533,0.141c0,0-0.917-2.766,3.972-3.7c2.355-0.45,16.071-3.014,16.071-3.014
	L112.443,258.896z"/>
<path style="fill:#212529;" d="M147.334,258.8l-20.57,0.148c0,0-0.917-2.766,3.972-3.7c2.355-0.45,16.435-2.969,16.435-2.969
	L147.334,258.8z"/>
</svg>
